<svg xmlns="http://www.w3.org/2000/svg" xmlns:xlink="http://www.w3.org/1999/xlink" width="500" zoomAndPan="magnify" viewBox="0 0 375 374.999991" height="500" preserveAspectRatio="xMidYMid meet" version="1.0"><defs><clipPath id="eefbbe678d"><path d="M 0 51.351562 L 375 51.351562 L 375 322.101562 L 0 322.101562 Z M 0 51.351562 " clip-rule="nonzero"/></clipPath></defs><g clip-path="url(#eefbbe678d)"><path fill="#009b3a" d="M 374.894531 280.449219 C 374.894531 303.453125 356.246094 322.101562 333.25 322.101562 L 41.75 322.101562 C 18.753906 322.101562 0.105469 303.453125 0.105469 280.449219 L 0.105469 93.007812 C 0.105469 70.003906 18.753906 51.351562 41.75 51.351562 L 333.25 51.351562 C 356.246094 51.351562 374.894531 70.003906 374.894531 93.007812 Z M 374.894531 280.449219 " fill-opacity="1" fill-rule="nonzero"/></g><path fill="#fedf01" d="M 340.828125 186.726562 L 187.5 302.566406 L 34.171875 186.726562 L 187.5 70.878906 Z M 340.828125 186.726562 " fill-opacity="1" fill-rule="nonzero"/><path fill="#002776" d="M 254.484375 185.9375 C 254.484375 187.039062 254.457031 188.136719 254.402344 189.238281 C 254.347656 190.335938 254.265625 191.433594 254.160156 192.527344 C 254.050781 193.625 253.917969 194.714844 253.753906 195.804688 C 253.59375 196.894531 253.40625 197.976562 253.191406 199.058594 C 252.976562 200.136719 252.734375 201.210938 252.46875 202.277344 C 252.199219 203.34375 251.90625 204.40625 251.585938 205.457031 C 251.269531 206.511719 250.921875 207.558594 250.550781 208.59375 C 250.183594 209.628906 249.785156 210.65625 249.363281 211.671875 C 248.945312 212.6875 248.5 213.695312 248.027344 214.691406 C 247.558594 215.683594 247.0625 216.667969 246.542969 217.636719 C 246.023438 218.609375 245.484375 219.566406 244.917969 220.511719 C 244.351562 221.453125 243.761719 222.382812 243.152344 223.300781 C 242.539062 224.214844 241.90625 225.113281 241.25 225.996094 C 240.597656 226.882812 239.917969 227.75 239.222656 228.601562 C 238.523438 229.449219 237.804688 230.285156 237.066406 231.097656 C 236.328125 231.914062 235.570312 232.710938 234.789062 233.488281 C 234.011719 234.269531 233.214844 235.027344 232.402344 235.765625 C 231.585938 236.503906 230.753906 237.222656 229.902344 237.921875 C 229.050781 238.621094 228.183594 239.296875 227.300781 239.953125 C 226.417969 240.609375 225.515625 241.242188 224.601562 241.851562 C 223.6875 242.464844 222.757812 243.054688 221.816406 243.621094 C 220.871094 244.183594 219.914062 244.726562 218.945312 245.246094 C 217.972656 245.765625 216.992188 246.261719 215.996094 246.730469 C 215 247.199219 213.996094 247.648438 212.980469 248.066406 C 211.960938 248.488281 210.9375 248.886719 209.898438 249.257812 C 208.863281 249.625 207.820312 249.972656 206.765625 250.292969 C 205.714844 250.609375 204.652344 250.90625 203.585938 251.171875 C 202.519531 251.4375 201.445312 251.679688 200.367188 251.894531 C 199.289062 252.109375 198.203125 252.296875 197.113281 252.460938 C 196.027344 252.621094 194.933594 252.753906 193.839844 252.863281 C 192.746094 252.972656 191.648438 253.050781 190.550781 253.105469 C 189.449219 253.160156 188.351562 253.1875 187.25 253.1875 C 186.148438 253.1875 185.050781 253.160156 183.953125 253.105469 C 182.851562 253.050781 181.753906 252.972656 180.660156 252.863281 C 179.566406 252.753906 178.472656 252.621094 177.386719 252.460938 C 176.296875 252.296875 175.210938 252.109375 174.132812 251.894531 C 173.054688 251.679688 171.980469 251.4375 170.914062 251.171875 C 169.847656 250.90625 168.785156 250.609375 167.734375 250.292969 C 166.679688 249.972656 165.636719 249.625 164.601562 249.257812 C 163.5625 248.886719 162.539062 248.488281 161.519531 248.066406 C 160.503906 247.648438 159.5 247.199219 158.503906 246.730469 C 157.511719 246.261719 156.527344 245.765625 155.558594 245.246094 C 154.585938 244.726562 153.628906 244.183594 152.6875 243.621094 C 151.742188 243.054688 150.8125 242.464844 149.898438 241.851562 C 148.984375 241.242188 148.082031 240.609375 147.199219 239.953125 C 146.316406 239.296875 145.449219 238.621094 144.597656 237.921875 C 143.746094 237.222656 142.914062 236.503906 142.097656 235.765625 C 141.285156 235.027344 140.488281 234.269531 139.710938 233.488281 C 138.929688 232.710938 138.171875 231.914062 137.433594 231.097656 C 136.695312 230.285156 135.976562 229.449219 135.277344 228.601562 C 134.582031 227.75 133.902344 226.882812 133.25 225.996094 C 132.59375 225.113281 131.960938 224.214844 131.347656 223.300781 C 130.738281 222.382812 130.148438 221.453125 129.582031 220.511719 C 129.015625 219.566406 128.476562 218.609375 127.957031 217.636719 C 127.4375 216.667969 126.941406 215.683594 126.472656 214.691406 C 126.003906 213.695312 125.554688 212.6875 125.136719 211.671875 C 124.714844 210.65625 124.316406 209.628906 123.949219 208.59375 C 123.578125 207.558594 123.230469 206.511719 122.914062 205.457031 C 122.59375 204.40625 122.300781 203.34375 122.03125 202.277344 C 121.765625 201.210938 121.523438 200.136719 121.308594 199.058594 C 121.09375 197.976562 120.90625 196.894531 120.746094 195.804688 C 120.582031 194.714844 120.449219 193.625 120.339844 192.527344 C 120.234375 191.433594 120.152344 190.335938 120.097656 189.238281 C 120.042969 188.136719 120.015625 187.039062 120.015625 185.9375 C 120.015625 184.835938 120.042969 183.738281 120.097656 182.636719 C 120.152344 181.539062 120.234375 180.441406 120.339844 179.34375 C 120.449219 178.25 120.582031 177.15625 120.746094 176.070312 C 120.90625 174.980469 121.09375 173.898438 121.308594 172.816406 C 121.523438 171.738281 121.765625 170.664062 122.03125 169.597656 C 122.300781 168.527344 122.59375 167.46875 122.914062 166.414062 C 123.230469 165.363281 123.578125 164.316406 123.949219 163.28125 C 124.316406 162.246094 124.714844 161.21875 125.136719 160.203125 C 125.554688 159.183594 126.003906 158.179688 126.472656 157.183594 C 126.941406 156.1875 127.4375 155.207031 127.957031 154.234375 C 128.476562 153.265625 129.015625 152.308594 129.582031 151.363281 C 130.148438 150.417969 130.738281 149.488281 131.347656 148.574219 C 131.960938 147.660156 132.59375 146.761719 133.25 145.875 C 133.902344 144.992188 134.582031 144.125 135.277344 143.273438 C 135.976562 142.421875 136.695312 141.589844 137.433594 140.773438 C 138.171875 139.960938 138.929688 139.164062 139.710938 138.382812 C 140.488281 137.605469 141.285156 136.847656 142.097656 136.109375 C 142.914062 135.367188 143.746094 134.648438 144.597656 133.953125 C 145.449219 133.253906 146.316406 132.578125 147.199219 131.921875 C 148.082031 131.265625 148.984375 130.632812 149.898438 130.019531 C 150.8125 129.410156 151.742188 128.820312 152.6875 128.253906 C 153.628906 127.6875 154.585938 127.148438 155.558594 126.628906 C 156.527344 126.109375 157.511719 125.613281 158.503906 125.144531 C 159.5 124.671875 160.503906 124.226562 161.519531 123.804688 C 162.539062 123.386719 163.5625 122.988281 164.601562 122.617188 C 165.636719 122.246094 166.679688 121.902344 167.734375 121.582031 C 168.785156 121.261719 169.847656 120.96875 170.914062 120.703125 C 171.980469 120.433594 173.054688 120.195312 174.132812 119.980469 C 175.210938 119.765625 176.296875 119.578125 177.386719 119.414062 C 178.472656 119.253906 179.566406 119.117188 180.660156 119.011719 C 181.753906 118.902344 182.851562 118.820312 183.953125 118.769531 C 185.050781 118.714844 186.148438 118.6875 187.25 118.6875 C 188.351562 118.6875 189.449219 118.714844 190.550781 118.769531 C 191.648438 118.820312 192.746094 118.902344 193.839844 119.011719 C 194.933594 119.117188 196.027344 119.253906 197.113281 119.414062 C 198.203125 119.578125 199.289062 119.765625 200.367188 119.980469 C 201.445312 120.195312 202.519531 120.433594 203.585938 120.703125 C 204.652344 120.96875 205.714844 121.261719 206.765625 121.582031 C 207.820312 121.902344 208.863281 122.246094 209.898438 122.617188 C 210.9375 122.988281 211.960938 123.386719 212.980469 123.804688 C 213.996094 124.226562 215 124.671875 215.996094 125.144531 C 216.992188 125.613281 217.972656 126.109375 218.945312 126.628906 C 219.914062 127.148438 220.871094 127.6875 221.816406 128.253906 C 222.757812 128.820312 223.6875 129.410156 224.601562 130.019531 C 225.515625 130.632812 226.417969 131.265625 227.300781 131.921875 C 228.183594 132.578125 229.050781 133.253906 229.902344 133.953125 C 230.753906 134.648438 231.585938 135.367188 232.402344 136.109375 C 233.214844 136.847656 234.011719 137.605469 234.789062 138.382812 C 235.570312 139.164062 236.328125 139.960938 237.066406 140.773438 C 237.804688 141.589844 238.523438 142.421875 239.222656 143.273438 C 239.917969 144.125 240.597656 144.992188 241.25 145.875 C 241.90625 146.761719 242.539062 147.660156 243.152344 148.574219 C 243.761719 149.488281 244.351562 150.417969 244.917969 151.363281 C 245.484375 152.308594 246.023438 153.265625 246.542969 154.234375 C 247.0625 155.207031 247.558594 156.1875 248.027344 157.183594 C 248.5 158.179688 248.945312 159.183594 249.363281 160.203125 C 249.785156 161.21875 250.183594 162.246094 250.550781 163.28125 C 250.921875 164.316406 251.269531 165.363281 251.585938 166.414062 C 251.90625 167.46875 252.199219 168.527344 252.46875 169.597656 C 252.734375 170.664062 252.976562 171.738281 253.191406 172.816406 C 253.40625 173.898438 253.59375 174.980469 253.753906 176.070312 C 253.917969 177.15625 254.050781 178.25 254.160156 179.34375 C 254.265625 180.441406 254.347656 181.539062 254.402344 182.636719 C 254.457031 183.738281 254.484375 184.835938 254.484375 185.9375 Z M 254.484375 185.9375 " fill-opacity="1" fill-rule="nonzero"/><path fill="#cbe9d4" d="M 127.917969 154.3125 C 124.460938 160.777344 122.109375 167.878906 120.921875 175.378906 C 162.515625 172.359375 218.960938 195.070312 243.1875 223.226562 C 247.371094 216.9375 250.476562 209.898438 252.378906 202.359375 C 222.480469 173.117188 169.957031 154.144531 127.917969 154.3125 Z M 127.917969 154.3125 " fill-opacity="1" fill-rule="nonzero"/><path fill="#88c9f9" d="M 125.035156 189.15625 L 135.445312 189.15625 L 135.445312 199.566406 L 125.035156 199.566406 Z M 135.445312 209.980469 L 145.855469 209.980469 L 145.855469 220.394531 L 135.445312 220.394531 Z M 135.445312 209.980469 " fill-opacity="1" fill-rule="nonzero"/><path fill="#55acee" d="M 156.269531 189.15625 L 166.679688 189.15625 L 166.679688 199.566406 L 156.269531 199.566406 Z M 177.089844 199.566406 L 187.5 199.566406 L 187.5 209.980469 L 177.089844 209.980469 Z M 218.730469 220.394531 L 229.144531 220.394531 L 229.144531 230.808594 L 218.730469 230.808594 Z M 187.5 230.808594 L 197.910156 230.808594 L 197.910156 241.222656 L 187.5 241.222656 Z M 218.730469 168.328125 L 229.144531 168.328125 L 229.144531 178.742188 L 218.730469 178.742188 Z M 218.730469 168.328125 " fill-opacity="1" fill-rule="nonzero"/><path fill="#3b88c3" d="M 197.910156 209.980469 L 208.320312 209.980469 L 208.320312 220.394531 L 197.910156 220.394531 Z M 197.910156 209.980469 " fill-opacity="1" fill-rule="nonzero"/></svg>