<svg xmlns="http://www.w3.org/2000/svg" xmlns:xlink="http://www.w3.org/1999/xlink" width="500" zoomAndPan="magnify" viewBox="0 0 375 374.999991" height="500" preserveAspectRatio="xMidYMid meet" version="1.0"><defs><clipPath id="e46d415eab"><path d="M 0 52.160156 L 136 52.160156 L 136 188 L 0 188 Z M 0 52.160156 " clip-rule="nonzero"/></clipPath><clipPath id="61f1d85646"><path d="M 135 52.160156 L 375 52.160156 L 375 188 L 135 188 Z M 135 52.160156 " clip-rule="nonzero"/></clipPath><clipPath id="baeafd5f63"><path d="M 0 187 L 375 187 L 375 322.910156 L 0 322.910156 Z M 0 187 " clip-rule="nonzero"/></clipPath></defs><g clip-path="url(#e46d415eab)"><path fill="#1f429b" d="M 135.445312 52.160156 L 41.75 52.160156 C 18.753906 52.160156 0.105469 70.804688 0.105469 93.800781 L 0.105469 187.5 L 135.445312 187.5 Z M 86.902344 148.894531 L 67.308594 134.664062 L 47.714844 148.894531 L 55.199219 125.867188 L 35.605469 111.625 L 59.824219 111.625 L 67.308594 88.597656 L 74.792969 111.625 L 99.007812 111.625 L 79.414062 125.867188 Z M 86.902344 148.894531 " fill-opacity="1" fill-rule="nonzero"/></g><g clip-path="url(#61f1d85646)"><path fill="#ffffff" d="M 333.25 52.160156 L 135.445312 52.160156 L 135.445312 187.5 L 374.894531 187.5 L 374.894531 93.800781 C 374.894531 70.804688 356.246094 52.160156 333.25 52.160156 Z M 333.25 52.160156 " fill-opacity="1" fill-rule="nonzero"/></g><g clip-path="url(#baeafd5f63)"><path fill="#d42d27" d="M 0.105469 187.5 L 0.105469 281.195312 C 0.105469 304.191406 18.753906 322.839844 41.75 322.839844 L 333.25 322.839844 C 356.246094 322.839844 374.894531 304.191406 374.894531 281.195312 L 374.894531 187.5 Z M 0.105469 187.5 " fill-opacity="1" fill-rule="nonzero"/></g><path fill="#ffffff" d="M 74.792969 111.625 L 67.308594 88.597656 L 59.824219 111.625 L 35.605469 111.625 L 55.199219 125.867188 L 47.714844 148.894531 L 67.308594 134.664062 L 86.902344 148.894531 L 79.414062 125.867188 L 99.007812 111.625 Z M 74.792969 111.625 " fill-opacity="1" fill-rule="nonzero"/></svg>