<svg xmlns="http://www.w3.org/2000/svg" xmlns:xlink="http://www.w3.org/1999/xlink" width="500" zoomAndPan="magnify" viewBox="0 0 375 374.999991" height="500" preserveAspectRatio="xMidYMid meet" version="1.0"><defs><clipPath id="652259910f"><path d="M 0 52.160156 L 375 52.160156 L 375 322.910156 L 0 322.910156 Z M 0 52.160156 " clip-rule="nonzero"/></clipPath><clipPath id="4f4e1cf28e"><path d="M 0 52.160156 L 188 52.160156 L 188 198 L 0 198 Z M 0 52.160156 " clip-rule="nonzero"/></clipPath></defs><g clip-path="url(#652259910f)"><path fill="#b22334" d="M 369.117188 72.984375 C 361.902344 60.582031 348.628906 52.160156 333.25 52.160156 L 187.5 52.160156 L 187.5 72.984375 Z M 0.105469 260.429688 L 374.894531 260.429688 L 374.894531 281.253906 L 0.105469 281.253906 Z M 187.5 177.121094 L 374.894531 177.121094 L 374.894531 197.949219 L 187.5 197.949219 Z M 187.5 135.464844 L 374.894531 135.464844 L 374.894531 156.292969 L 187.5 156.292969 Z M 0.105469 218.773438 L 374.894531 218.773438 L 374.894531 239.601562 L 0.105469 239.601562 Z M 41.75 322.910156 L 333.25 322.910156 C 348.628906 322.910156 361.902344 314.484375 369.117188 302.082031 L 5.882812 302.082031 C 13.097656 314.484375 26.371094 322.910156 41.75 322.910156 Z M 187.5 93.8125 L 374.894531 93.8125 L 374.894531 114.640625 L 187.5 114.640625 Z M 187.5 93.8125 " fill-opacity="1" fill-rule="nonzero"/></g><path fill="#eeeeee" d="M 0.8125 288.324219 C 0.992188 289.292969 1.1875 290.261719 1.429688 291.210938 C 1.699219 292.261719 2.03125 293.273438 2.386719 294.292969 C 3.3125 296.988281 4.4375 299.59375 5.851562 302.03125 L 5.882812 302.082031 L 369.117188 302.082031 L 369.136719 302.039062 C 370.542969 299.613281 371.667969 297.011719 372.59375 294.324219 C 372.945312 293.292969 373.289062 292.261719 373.5625 291.191406 C 373.800781 290.253906 374 289.292969 374.175781 288.324219 C 374.601562 286.035156 374.894531 283.679688 374.894531 281.253906 L 0.105469 281.253906 C 0.105469 283.679688 0.398438 286.023438 0.8125 288.324219 Z M 0.105469 239.601562 L 374.894531 239.601562 L 374.894531 260.429688 L 0.105469 260.429688 Z M 0.105469 197.949219 L 0.105469 218.773438 L 374.894531 218.773438 L 374.894531 197.949219 Z M 187.5 156.292969 L 374.894531 156.292969 L 374.894531 177.121094 L 187.5 177.121094 Z M 187.5 114.640625 L 374.894531 114.640625 L 374.894531 135.464844 L 187.5 135.464844 Z M 0.105469 93.8125 C 0.105469 91.386719 0.417969 89.054688 0.8125 86.742188 C 0.398438 89.042969 0.105469 91.386719 0.105469 93.8125 Z M 5.882812 72.984375 L 5.851562 73.039062 Z M 1.4375 83.859375 C 1.699219 82.796875 2.0625 81.785156 2.398438 80.765625 C 2.042969 81.785156 1.710938 82.804688 1.4375 83.859375 Z M 187.5 93.8125 L 374.894531 93.8125 C 374.894531 91.386719 374.601562 89.03125 374.175781 86.730469 C 374 85.773438 373.8125 84.816406 373.5625 83.878906 C 373.28125 82.804688 372.945312 81.765625 372.582031 80.734375 C 371.65625 78.046875 370.53125 75.453125 369.125 73.027344 C 369.136719 73.015625 369.125 72.996094 369.117188 72.984375 L 187.5 72.984375 Z M 187.5 93.8125 " fill-opacity="1" fill-rule="nonzero"/><g clip-path="url(#4f4e1cf28e)"><path fill="#3c3b6e" d="M 187.5 52.160156 L 41.75 52.160156 C 18.753906 52.160156 0.105469 70.808594 0.105469 93.8125 L 0.105469 197.949219 L 187.5 197.949219 Z M 187.5 52.160156 " fill-opacity="1" fill-rule="nonzero"/></g><path fill="#ffffff" d="M 20.9375 80.546875 L 27.371094 85.222656 L 24.914062 92.773438 L 31.339844 88.105469 L 37.773438 92.773438 L 35.316406 85.222656 L 41.75 80.546875 L 33.796875 80.546875 L 31.339844 72.984375 L 28.890625 80.546875 Z M 41.761719 101.375 L 48.195312 106.046875 L 45.738281 113.597656 L 52.160156 108.933594 L 58.59375 113.597656 L 56.136719 106.046875 L 62.570312 101.375 L 54.617188 101.375 L 52.160156 93.8125 L 49.714844 101.375 Z M 83.402344 101.375 L 89.835938 106.046875 L 87.378906 113.597656 L 93.804688 108.933594 L 100.238281 113.597656 L 97.78125 106.046875 L 104.214844 101.375 L 96.261719 101.375 L 93.804688 93.8125 L 91.355469 101.375 Z M 125.046875 101.375 L 131.480469 106.046875 L 129.023438 113.597656 L 135.445312 108.933594 L 141.878906 113.597656 L 139.421875 106.046875 L 145.855469 101.375 L 137.902344 101.375 L 135.445312 93.8125 L 133 101.375 Z M 41.761719 143.027344 L 48.195312 147.703125 L 45.738281 155.253906 L 52.160156 150.585938 L 58.59375 155.253906 L 56.136719 147.703125 L 62.570312 143.027344 L 54.617188 143.027344 L 52.160156 135.464844 L 49.714844 143.027344 Z M 83.402344 143.027344 L 89.835938 147.703125 L 87.378906 155.253906 L 93.804688 150.585938 L 100.238281 155.253906 L 97.78125 147.703125 L 104.214844 143.027344 L 96.261719 143.027344 L 93.804688 135.464844 L 91.355469 143.027344 Z M 125.046875 143.027344 L 131.480469 147.703125 L 129.023438 155.253906 L 135.445312 150.585938 L 141.878906 155.253906 L 139.421875 147.703125 L 145.855469 143.027344 L 137.902344 143.027344 L 135.445312 135.464844 L 133 143.027344 Z M 62.582031 80.546875 L 69.015625 85.222656 L 66.558594 92.773438 L 72.980469 88.105469 L 79.414062 92.773438 L 76.957031 85.222656 L 83.390625 80.546875 L 75.4375 80.546875 L 72.980469 72.984375 L 70.535156 80.546875 Z M 104.222656 80.546875 L 110.65625 85.222656 L 108.203125 92.773438 L 114.625 88.105469 L 121.058594 92.773438 L 118.601562 85.222656 L 125.035156 80.546875 L 117.082031 80.546875 L 114.625 72.984375 L 112.179688 80.546875 Z M 145.867188 80.546875 L 152.300781 85.222656 L 149.84375 92.773438 L 156.269531 88.105469 L 162.703125 92.773438 L 160.246094 85.222656 L 166.679688 80.546875 L 158.726562 80.546875 L 156.269531 72.984375 L 153.820312 80.546875 Z M 20.9375 122.199219 L 27.371094 126.875 L 24.914062 134.425781 L 31.339844 129.761719 L 37.773438 134.425781 L 35.316406 126.875 L 41.75 122.199219 L 33.796875 122.199219 L 31.339844 114.640625 L 28.890625 122.199219 Z M 66.558594 134.425781 L 72.980469 129.761719 L 79.414062 134.425781 L 76.957031 126.875 L 83.390625 122.199219 L 75.4375 122.199219 L 72.980469 114.640625 L 70.535156 122.199219 L 62.582031 122.199219 L 69.015625 126.875 Z M 104.222656 122.199219 L 110.65625 126.875 L 108.203125 134.425781 L 114.625 129.761719 L 121.058594 134.425781 L 118.601562 126.875 L 125.035156 122.199219 L 117.082031 122.199219 L 114.625 114.640625 L 112.179688 122.199219 Z M 145.867188 122.199219 L 152.300781 126.875 L 149.84375 134.425781 L 156.269531 129.761719 L 162.703125 134.425781 L 160.246094 126.875 L 166.679688 122.199219 L 158.726562 122.199219 L 156.269531 114.640625 L 153.820312 122.199219 Z M 20.9375 163.855469 L 27.371094 168.53125 L 24.914062 176.078125 L 31.339844 171.414062 L 37.773438 176.078125 L 35.316406 168.53125 L 41.75 163.855469 L 33.796875 163.855469 L 31.339844 156.292969 L 28.890625 163.855469 Z M 66.558594 176.078125 L 72.980469 171.414062 L 79.414062 176.078125 L 76.957031 168.53125 L 83.390625 163.855469 L 75.4375 163.855469 L 72.980469 156.292969 L 70.535156 163.855469 L 62.582031 163.855469 L 69.015625 168.53125 Z M 104.222656 163.855469 L 110.65625 168.53125 L 108.203125 176.078125 L 114.625 171.414062 L 121.058594 176.078125 L 118.601562 168.53125 L 125.035156 163.855469 L 117.082031 163.855469 L 114.625 156.292969 L 112.179688 163.855469 Z M 145.867188 163.855469 L 152.300781 168.53125 L 149.84375 176.078125 L 156.269531 171.414062 L 162.703125 176.078125 L 160.246094 168.53125 L 166.679688 163.855469 L 158.726562 163.855469 L 156.269531 156.292969 L 153.820312 163.855469 Z M 145.867188 163.855469 " fill-opacity="1" fill-rule="nonzero"/></svg>