<svg xmlns="http://www.w3.org/2000/svg" xmlns:xlink="http://www.w3.org/1999/xlink" width="1080" zoomAndPan="magnify" viewBox="0 0 810 809.999993" height="1080" preserveAspectRatio="xMidYMid meet" version="1.0"><defs><clipPath id="f28f10119e"><path d="M 24.921875 24.921875 L 767.421875 24.921875 L 767.421875 767.421875 L 24.921875 767.421875 Z M 24.921875 24.921875 " clip-rule="nonzero"/></clipPath></defs><g clip-path="url(#f28f10119e)"><path fill="#00bf63" d="M 767.550781 396.238281 C 767.550781 601.308594 601.308594 767.550781 396.238281 767.550781 C 191.167969 767.550781 24.921875 601.308594 24.921875 396.238281 C 24.921875 191.167969 191.167969 24.921875 396.238281 24.921875 C 601.308594 24.921875 767.550781 191.167969 767.550781 396.238281 Z M 645.566406 224.808594 L 568.214844 146.371094 L 396.773438 317.816406 L 225.34375 146.371094 L 146.90625 224.792969 L 318.335938 396.238281 L 146.90625 567.679688 L 225.34375 646.101562 L 396.550781 474.4375 L 567.472656 645.375 L 645.554688 566.65625 L 475.132812 395.660156 Z M 645.566406 224.808594 " fill-opacity="1" fill-rule="nonzero"/></g></svg>