<svg xmlns="http://www.w3.org/2000/svg" xmlns:xlink="http://www.w3.org/1999/xlink" width="1080" zoomAndPan="magnify" viewBox="0 0 810 809.999993" height="1080" preserveAspectRatio="xMidYMid meet" version="1.0"><defs><clipPath id="361b385156"><path d="M 90.210938 62.230469 L 697.710938 62.230469 L 697.710938 773.230469 L 90.210938 773.230469 Z M 90.210938 62.230469 " clip-rule="nonzero"/></clipPath></defs><g clip-path="url(#361b385156)"><path fill="#00bf63" d="M 394.136719 360.625 C 508.054688 360.625 600.40625 452.976562 600.40625 566.898438 C 600.40625 680.820312 508.054688 773.171875 394.136719 773.171875 C 280.214844 773.171875 187.863281 680.820312 187.863281 566.898438 C 187.863281 452.976562 280.210938 360.625 394.136719 360.625 Z M 608.597656 64.46875 C 607.351562 63 605.691406 62.230469 603.761719 62.230469 C 601.832031 62.230469 600.171875 63 598.921875 64.46875 L 511.527344 167.398438 C 509.890625 169.328125 509.542969 171.878906 510.605469 174.171875 C 511.667969 176.472656 513.835938 177.855469 516.367188 177.855469 L 557.070312 177.855469 L 557.070312 405.707031 C 577.878906 426.742188 594.644531 451.785156 606.105469 479.578125 L 637.753906 479.578125 C 644.746094 479.578125 650.449219 473.875 650.449219 466.882812 L 650.449219 177.859375 L 691.152344 177.859375 C 693.683594 177.859375 695.851562 176.472656 696.914062 174.175781 C 697.976562 171.878906 697.632812 169.332031 695.992188 167.402344 Z M 189.347656 218.316406 C 188.097656 216.847656 186.4375 216.078125 184.511719 216.078125 C 182.582031 216.078125 180.917969 216.84375 179.671875 218.316406 L 92.277344 321.246094 C 90.640625 323.175781 90.292969 325.722656 91.355469 328.019531 C 92.417969 330.316406 94.585938 331.703125 97.117188 331.703125 L 137.820312 331.703125 L 137.820312 466.882812 C 137.820312 473.875 143.523438 479.578125 150.515625 479.578125 L 182.164062 479.578125 C 193.625 451.789062 210.386719 426.746094 231.199219 405.707031 L 231.199219 331.699219 L 271.902344 331.699219 C 274.429688 331.699219 276.597656 330.316406 277.664062 328.019531 C 278.726562 325.71875 278.378906 323.171875 276.738281 321.242188 Z M 398.972656 141.394531 C 428.105469 175.703125 457.234375 210.011719 486.363281 244.324219 C 488.003906 246.253906 488.351562 248.800781 487.285156 251.097656 C 486.222656 253.394531 484.058594 254.78125 481.523438 254.78125 C 467.957031 254.78125 454.386719 254.78125 440.820312 254.78125 L 440.820312 342.457031 C 425.746094 339.335938 410.132812 337.691406 394.132812 337.691406 C 378.132812 337.691406 362.515625 339.335938 347.441406 342.457031 L 347.441406 254.78125 C 333.875 254.78125 320.304688 254.78125 306.738281 254.78125 C 304.207031 254.78125 302.039062 253.394531 300.976562 251.097656 C 299.914062 248.800781 300.261719 246.253906 301.898438 244.324219 C 331.03125 210.011719 360.160156 175.703125 389.292969 141.394531 C 390.539062 139.921875 392.203125 139.152344 394.128906 139.152344 C 396.0625 139.152344 397.726562 139.921875 398.972656 141.394531 Z M 452.6875 513.945312 C 444.386719 494.179688 428.585938 482.757812 411.21875 478.355469 C 409.933594 478.03125 408.644531 477.746094 407.34375 477.5 L 407.34375 467.226562 C 407.34375 459.933594 401.433594 454.023438 394.144531 454.023438 C 386.851562 454.023438 380.941406 459.933594 380.941406 467.226562 L 380.941406 477.699219 L 380.933594 477.699219 C 370.910156 479.71875 361.496094 483.949219 353.914062 490.113281 C 342.269531 499.582031 334.882812 513.328125 335.71875 530.46875 C 336.554688 547.691406 345.144531 559.242188 357.113281 567.050781 C 367.542969 573.863281 380.359375 577.386719 392.175781 579.324219 C 401.671875 580.886719 411.808594 583.351562 419.511719 588 C 425.679688 591.722656 430.308594 597.164062 431.300781 605.316406 C 431.433594 606.402344 431.503906 607.191406 431.515625 607.695312 C 431.671875 614.183594 428.566406 619.125 423.910156 622.660156 C 418.082031 627.082031 409.898438 629.6875 401.714844 630.679688 C 399.488281 630.949219 397.542969 631.105469 395.894531 631.144531 C 386.207031 631.375 376.648438 629.003906 369.179688 624.027344 C 363.046875 619.945312 358.359375 613.972656 356.40625 606.121094 C 354.667969 599.058594 347.535156 594.742188 340.46875 596.480469 C 333.40625 598.21875 329.089844 605.351562 330.828125 612.414062 C 334.515625 627.21875 343.242188 638.410156 354.636719 645.996094 C 362.425781 651.183594 371.472656 654.613281 380.945312 656.28125 L 380.945312 666.574219 C 380.945312 673.863281 386.855469 679.773438 394.144531 679.773438 C 401.4375 679.773438 407.347656 673.863281 407.347656 666.574219 L 407.347656 656.53125 C 418.855469 654.78125 430.582031 650.582031 439.792969 643.597656 C 450.84375 635.210938 458.199219 623.199219 457.816406 607.078125 C 457.769531 605.238281 457.667969 603.613281 457.5 602.226562 C 455.355469 584.5625 445.796875 573.066406 433.128906 565.417969 C 421.996094 558.695312 408.644531 555.347656 396.402344 553.339844 C 387.570312 551.886719 378.265625 549.433594 371.449219 544.984375 C 366.164062 541.535156 362.375 536.539062 362.019531 529.234375 C 361.636719 521.332031 365.085938 514.957031 370.523438 510.539062 C 374.777344 507.078125 380.207031 504.671875 386.09375 503.488281 C 392.136719 502.269531 398.625 502.363281 404.828125 503.9375 C 414.667969 506.433594 423.628906 512.921875 428.347656 524.15625 C 431.167969 530.878906 438.902344 534.042969 445.625 531.222656 C 452.34375 528.398438 455.503906 520.664062 452.6875 513.945312 Z M 394.136719 397.921875 C 347.472656 397.921875 305.226562 416.835938 274.652344 447.414062 C 244.070312 477.992188 225.15625 520.238281 225.15625 566.898438 C 225.15625 613.558594 244.070312 655.804688 274.652344 686.382812 C 305.230469 716.960938 347.476562 735.875 394.136719 735.875 C 440.792969 735.875 483.042969 716.960938 513.617188 686.382812 C 544.199219 655.804688 563.113281 613.558594 563.113281 566.898438 C 563.113281 520.238281 544.199219 477.992188 513.617188 447.414062 C 483.039062 416.835938 440.792969 397.921875 394.136719 397.921875 Z M 497.40625 463.628906 C 470.976562 437.199219 434.464844 420.851562 394.136719 420.851562 C 353.804688 420.851562 317.292969 437.199219 290.863281 463.628906 C 264.4375 490.058594 248.089844 526.570312 248.089844 566.898438 C 248.089844 607.230469 264.433594 643.742188 290.863281 670.167969 C 317.292969 696.597656 353.804688 712.941406 394.136719 712.941406 C 434.464844 712.941406 470.976562 696.59375 497.40625 670.167969 C 523.832031 643.742188 540.179688 607.230469 540.179688 566.898438 C 540.179688 526.570312 523.832031 490.058594 497.40625 463.628906 Z M 497.40625 463.628906 " fill-opacity="1" fill-rule="evenodd"/></g></svg>