<svg xmlns="http://www.w3.org/2000/svg" xmlns:xlink="http://www.w3.org/1999/xlink" width="1080" zoomAndPan="magnify" viewBox="0 0 810 809.999993" height="1080" preserveAspectRatio="xMidYMid meet" version="1.0"><path fill="#32b744" d="M 809.445312 405.066406 C 809.445312 446.472656 762.929688 480.027344 750.796875 517.390625 C 738.21875 556.109375 755.6875 610.503906 732.21875 642.734375 C 708.519531 675.285156 651.214844 675.375 618.648438 699.066406 C 586.40625 722.519531 568.746094 777.105469 530.011719 789.675781 C 492.636719 801.804688 446.421875 768.421875 405 768.421875 C 363.578125 768.421875 317.363281 801.804688 279.988281 789.671875 C 241.253906 777.101562 223.59375 722.515625 191.351562 699.058594 C 158.785156 675.367188 101.480469 675.28125 77.78125 642.726562 C 54.316406 610.496094 71.785156 556.105469 59.203125 517.386719 C 47.070312 480.023438 0.554688 446.472656 0.554688 405.066406 C 0.554688 363.660156 47.070312 330.105469 59.203125 292.742188 C 71.78125 254.019531 54.3125 199.628906 77.78125 167.398438 C 101.480469 134.84375 158.785156 134.757812 191.351562 111.066406 C 223.59375 87.613281 241.253906 33.03125 279.988281 20.457031 C 317.363281 8.328125 363.578125 41.710938 405 41.710938 C 446.421875 41.710938 492.636719 8.328125 530.011719 20.460938 C 568.746094 33.03125 586.40625 87.617188 618.648438 111.070312 C 651.214844 134.761719 708.519531 134.851562 732.21875 167.402344 C 755.683594 199.632812 738.214844 254.027344 750.796875 292.746094 C 762.929688 330.109375 809.445312 363.660156 809.445312 405.066406 Z M 809.445312 405.066406 " fill-opacity="1" fill-rule="nonzero"/><path fill="#ffffff" d="M 341.003906 527.972656 C 340.558594 527.972656 340.109375 527.960938 339.664062 527.941406 C 332.058594 527.5625 324.960938 523.988281 320.140625 518.097656 L 256.148438 439.984375 C 246.710938 428.464844 248.402344 411.492188 259.921875 402.058594 C 271.441406 392.636719 288.433594 394.316406 297.863281 405.832031 L 342.996094 460.914062 L 513.925781 290.058594 C 524.460938 279.527344 541.53125 279.535156 552.054688 290.058594 C 562.589844 300.578125 562.589844 317.644531 552.054688 328.167969 L 360.070312 520.082031 C 355.003906 525.148438 348.140625 527.972656 341.003906 527.972656 Z M 341.003906 527.972656 " fill-opacity="1" fill-rule="nonzero"/></svg>