<svg xmlns="http://www.w3.org/2000/svg" xmlns:xlink="http://www.w3.org/1999/xlink" width="1080" zoomAndPan="magnify" viewBox="0 0 810 809.999993" height="1080" preserveAspectRatio="xMidYMid meet" version="1.0"><defs><clipPath id="1ace622571"><path d="M 16 275 L 664 275 L 664 755.648438 L 16 755.648438 Z M 16 275 " clip-rule="nonzero"/></clipPath><clipPath id="c4737d0fea"><path d="M 149 51.398438 L 797 51.398438 L 797 532 L 149 532 Z M 149 51.398438 " clip-rule="nonzero"/></clipPath></defs><g clip-path="url(#1ace622571)"><path fill="#00bf63" d="M 18.828125 399.867188 C 22.316406 406.371094 29.082031 410.40625 36.460938 410.40625 L 48.519531 410.40625 C 51.890625 410.40625 54.632812 413.160156 54.75 416.675781 C 61.742188 606.75 216.292969 755.648438 406.597656 755.648438 C 497.46875 755.648438 583.621094 721.246094 649.183594 658.785156 C 658.757812 649.667969 663.945312 636.832031 663.425781 623.570312 C 662.886719 610.199219 656.644531 597.699219 646.285156 589.277344 C 628.261719 574.636719 602.097656 575.574219 585.453125 591.441406 C 537.121094 637.554688 473.601562 662.941406 406.597656 662.941406 C 268.300781 662.941406 154.515625 554.8125 147.546875 416.777344 C 147.46875 415.1875 148.054688 413.640625 149.207031 412.4375 C 150.4375 411.148438 152.148438 410.40625 153.925781 410.40625 L 161.972656 410.40625 C 169.355469 410.40625 176.117188 406.371094 179.609375 399.867188 C 183.097656 393.367188 182.738281 385.507812 178.671875 379.355469 L 115.917969 284.394531 C 108.484375 273.148438 89.953125 273.148438 82.519531 284.394531 L 19.761719 379.355469 C 15.699219 385.507812 15.339844 393.367188 18.828125 399.867188 Z M 18.828125 399.867188 " fill-opacity="1" fill-rule="nonzero"/></g><g clip-path="url(#c4737d0fea)"><path fill="#00bf63" d="M 659.265625 396.714844 L 651.21875 396.714844 C 643.835938 396.714844 637.074219 400.753906 633.582031 407.257812 C 630.09375 413.753906 630.453125 421.609375 634.519531 427.761719 L 697.273438 522.738281 C 700.992188 528.351562 707.234375 531.710938 713.972656 531.710938 C 720.710938 531.710938 726.957031 528.351562 730.671875 522.722656 L 793.429688 427.761719 C 797.492188 421.609375 797.851562 413.753906 794.363281 407.257812 C 790.875 400.753906 784.109375 396.714844 776.730469 396.714844 L 764.671875 396.714844 C 761.300781 396.714844 758.5625 393.960938 758.441406 390.445312 C 751.449219 200.371094 596.898438 51.476562 406.597656 51.476562 C 315.722656 51.476562 229.570312 85.875 164.007812 148.34375 C 154.433594 157.449219 149.246094 170.285156 149.769531 183.546875 C 150.304688 196.925781 156.546875 209.421875 166.90625 217.855469 C 184.945312 232.507812 211.105469 231.570312 227.738281 215.6875 C 276.070312 169.582031 339.589844 144.1875 406.597656 144.1875 C 544.890625 144.1875 658.675781 252.3125 665.644531 390.347656 C 665.722656 391.9375 665.136719 393.480469 663.984375 394.683594 C 662.753906 395.976562 661.042969 396.714844 659.265625 396.714844 Z M 659.265625 396.714844 " fill-opacity="1" fill-rule="nonzero"/></g><path fill="#00bf63" d="M 438.082031 474.089844 L 437.15625 475.097656 L 438.082031 475.097656 Z M 438.082031 474.089844 " fill-opacity="1" fill-rule="nonzero"/><path fill="#00bf63" d="M 459.980469 475.097656 L 460.902344 475.097656 L 459.980469 474.089844 Z M 459.980469 475.097656 " fill-opacity="1" fill-rule="nonzero"/><path fill="#00bf63" d="M 449.03125 596.671875 C 455.074219 596.671875 459.980469 591.765625 459.980469 585.722656 L 459.980469 522.296875 L 512.226562 522.296875 C 559.664062 522.296875 598.261719 483.699219 598.261719 436.25 C 598.261719 388.808594 559.664062 350.21875 512.226562 350.21875 C 511.371094 350.21875 509.167969 350.21875 507.777344 350.042969 C 507.574219 294.425781 462.265625 249.238281 406.597656 249.238281 C 351.097656 249.238281 305.898438 294.140625 305.402344 349.910156 C 304.640625 350.058594 303.277344 350.21875 300.964844 350.21875 C 253.527344 350.21875 214.929688 388.808594 214.929688 436.25 C 214.929688 483.699219 253.527344 522.296875 300.964844 522.296875 L 353.210938 522.296875 L 353.210938 557.558594 L 344.855469 548.445312 C 340.75 543.953125 333.828125 543.6875 329.386719 547.765625 C 324.921875 551.855469 324.613281 558.78125 328.703125 563.234375 L 356.085938 593.113281 C 358.15625 595.386719 361.085938 596.671875 364.160156 596.671875 C 367.234375 596.671875 370.164062 595.386719 372.234375 593.113281 L 399.617188 563.234375 C 403.707031 558.78125 403.402344 551.855469 398.933594 547.765625 C 394.484375 543.6875 387.570312 543.953125 383.464844 548.445312 L 375.109375 557.558594 L 375.109375 522.296875 L 438.082031 522.296875 L 438.082031 585.722656 C 438.082031 591.765625 442.988281 596.671875 449.03125 596.671875 Z M 375.109375 522.175781 L 353.210938 522.175781 L 353.210938 445.929688 C 353.210938 439.886719 358.117188 434.980469 364.160156 434.980469 C 370.203125 434.980469 375.109375 439.886719 375.109375 445.929688 Z M 437.15625 475.097656 L 429.726562 483.203125 C 425.609375 487.683594 418.695312 487.949219 414.257812 483.886719 C 409.792969 479.796875 409.484375 472.871094 413.574219 468.417969 L 440.957031 438.535156 C 445.101562 433.992188 452.960938 433.992188 457.105469 438.535156 L 484.488281 468.417969 C 488.578125 472.871094 488.269531 479.796875 483.804688 483.886719 C 481.707031 485.8125 479.058594 486.757812 476.410156 486.757812 C 473.457031 486.757812 470.503906 485.570312 468.335938 483.203125 L 460.902344 475.097656 L 459.980469 475.097656 L 459.980469 522.175781 L 438.082031 522.175781 L 438.082031 475.097656 Z M 437.15625 475.097656 " fill-opacity="1" fill-rule="nonzero"/></svg>