<svg xmlns="http://www.w3.org/2000/svg" xmlns:xlink="http://www.w3.org/1999/xlink" width="1080" zoomAndPan="magnify" viewBox="0 0 810 809.999993" height="1080" preserveAspectRatio="xMidYMid meet" version="1.0"><path fill="#00bf63" d="M 125.5625 186.195312 L 355.351562 56.15625 C 385.980469 38.820312 424.015625 38.820312 454.648438 56.15625 L 684.433594 186.195312 C 715.851562 203.925781 735.316406 237.304688 735.316406 273.265625 L 735.316406 530.992188 C 735.316406 566.949219 715.851562 600.332031 684.433594 618.058594 L 454.648438 748.097656 C 439.332031 756.792969 422.164062 761.113281 405 761.113281 C 387.832031 761.113281 370.664062 756.792969 355.351562 748.097656 L 125.5625 618.058594 C 94.203125 600.332031 74.679688 566.949219 74.679688 530.992188 L 74.679688 273.265625 C 74.679688 237.304688 94.203125 203.925781 125.5625 186.195312 Z M 31.59375 273.265625 L 31.59375 530.992188 C 31.59375 582.433594 59.476562 630.175781 104.355469 655.589844 L 334.144531 785.574219 C 377.285156 809.976562 432.769531 809.976562 475.855469 785.574219 L 705.640625 655.589844 C 750.519531 630.175781 778.402344 582.433594 778.402344 530.992188 L 778.402344 273.265625 C 778.402344 221.820312 750.519531 174.078125 705.640625 148.667969 L 475.855469 18.679688 C 454.3125 6.453125 429.796875 0 405 0 C 380.203125 0 355.6875 6.453125 334.144531 18.625 L 104.355469 148.667969 C 59.476562 174.078125 31.59375 221.820312 31.59375 273.265625 " fill-opacity="1" fill-rule="nonzero"/><path fill="#00bf63" d="M 160.851562 287.234375 C 160.851562 280.558594 165.449219 274.78125 171.902344 273.265625 C 178.464844 271.75 185.085938 274.890625 188.058594 280.78125 L 275.742188 456.207031 L 275.742188 287.234375 C 275.742188 279.324219 282.195312 272.871094 290.105469 272.871094 C 298.015625 272.871094 304.46875 279.324219 304.46875 287.234375 L 304.46875 517.019531 C 304.46875 523.695312 299.867188 529.476562 293.414062 530.992188 C 292.292969 531.269531 291.226562 531.382812 290.105469 531.382812 C 284.777344 531.382812 279.726562 528.410156 277.257812 523.472656 L 189.574219 348.046875 L 189.574219 517.019531 C 189.574219 524.929688 183.121094 531.382812 175.210938 531.382812 C 167.300781 531.382812 160.851562 524.929688 160.851562 517.019531 Z M 347.550781 287.234375 C 347.550781 279.324219 354.003906 272.871094 361.914062 272.871094 L 476.808594 272.871094 C 484.71875 272.871094 491.167969 279.324219 491.167969 287.234375 C 491.167969 295.144531 484.71875 301.597656 476.808594 301.597656 L 376.277344 301.597656 L 376.277344 387.765625 L 433.722656 387.765625 C 441.632812 387.765625 448.082031 394.21875 448.082031 402.128906 C 448.082031 410.039062 441.632812 416.488281 433.722656 416.488281 L 376.277344 416.488281 L 376.277344 517.019531 C 376.277344 524.929688 369.824219 531.382812 361.914062 531.382812 C 354.003906 531.382812 347.550781 524.929688 347.550781 517.019531 Z M 519.890625 272.871094 L 634.785156 272.871094 C 642.695312 272.871094 649.148438 279.324219 649.148438 287.234375 C 649.148438 295.144531 642.695312 301.597656 634.785156 301.597656 L 591.699219 301.597656 L 591.699219 517.019531 C 591.699219 524.929688 585.25 531.382812 577.339844 531.382812 C 569.429688 531.382812 562.976562 524.929688 562.976562 517.019531 L 562.976562 301.597656 L 519.890625 301.597656 C 511.980469 301.597656 505.53125 295.144531 505.53125 287.234375 C 505.53125 279.324219 511.980469 272.871094 519.890625 272.871094 Z M 139.699219 593.09375 L 369.488281 723.132812 C 391.421875 735.476562 418.574219 735.476562 440.511719 723.132812 L 670.296875 593.09375 C 692.679688 580.414062 706.59375 556.628906 706.59375 530.992188 L 706.59375 273.265625 C 706.59375 247.628906 692.679688 223.839844 670.296875 211.160156 L 440.511719 81.175781 C 429.570312 74.949219 417.285156 71.863281 405 71.863281 C 392.710938 71.863281 380.425781 74.949219 369.488281 81.175781 L 139.699219 211.160156 C 117.316406 223.839844 103.402344 247.628906 103.402344 273.265625 L 103.402344 530.992188 C 103.402344 556.628906 117.316406 580.414062 139.699219 593.09375 " fill-opacity="1" fill-rule="nonzero"/></svg>