<svg xmlns="http://www.w3.org/2000/svg" xmlns:xlink="http://www.w3.org/1999/xlink" width="500" zoomAndPan="magnify" viewBox="0 0 375 374.999991" height="500" preserveAspectRatio="xMidYMid meet" version="1.0"><defs><clipPath id="526c1e8c8e"><path d="M 120.144531 52.242188 L 251.394531 52.242188 L 251.394531 329.742188 L 120.144531 329.742188 Z M 120.144531 52.242188 " clip-rule="nonzero"/></clipPath></defs><g clip-path="url(#526c1e8c8e)"><path fill="#ffffff" d="M 221.117188 98.269531 L 251.394531 98.269531 L 251.394531 52.660156 L 212.730469 52.660156 L 212.730469 52.835938 C 161.898438 54.699219 151.414062 83.144531 150.542969 113.21875 L 150.425781 113.21875 L 150.425781 144.863281 L 120.144531 144.863281 L 120.144531 190.527344 L 150.425781 190.527344 L 150.425781 329.324219 L 204.753906 329.324219 L 204.753906 190.527344 L 243.710938 190.527344 L 251.394531 144.863281 L 204.753906 144.863281 L 204.753906 116.535156 C 204.753906 106.46875 211.507812 98.269531 221.117188 98.269531 Z M 221.117188 98.269531 " fill-opacity="1" fill-rule="nonzero"/></g></svg>