<svg xmlns="http://www.w3.org/2000/svg" xmlns:xlink="http://www.w3.org/1999/xlink" width="500" zoomAndPan="magnify" viewBox="0 0 375 374.999991" height="500" preserveAspectRatio="xMidYMid meet" version="1.0"><defs><clipPath id="192372094b"><path d="M 33 137 L 230 137 L 230 335.714844 L 33 335.714844 Z M 33 137 " clip-rule="nonzero"/></clipPath><clipPath id="94091a078e"><path d="M 1 243 L 128 243 L 128 335.714844 L 1 335.714844 Z M 1 243 " clip-rule="nonzero"/></clipPath><clipPath id="3e264d2ab1"><path d="M 16 269 L 113 269 L 113 335.714844 L 16 335.714844 Z M 16 269 " clip-rule="nonzero"/></clipPath><clipPath id="976a193683"><path d="M 157 184 L 375 184 L 375 335.714844 L 157 335.714844 Z M 157 184 " clip-rule="nonzero"/></clipPath></defs><path fill="#2e7032" d="M 263.101562 146.550781 C 264.746094 146.425781 266 145.015625 265.921875 143.367188 C 264.570312 114.941406 271.019531 94.449219 276.667969 82.257812 C 282.785156 69.054688 289.308594 62.472656 289.371094 62.40625 C 290.558594 61.226562 290.570312 59.292969 289.390625 58.105469 C 288.207031 56.910156 286.277344 56.898438 285.085938 58.078125 C 284.792969 58.363281 277.867188 65.300781 271.285156 79.375 C 265.285156 92.230469 258.421875 113.816406 259.835938 143.65625 C 259.914062 145.335938 261.339844 146.632812 263.019531 146.550781 L 263.101562 146.550781 " fill-opacity="1" fill-rule="nonzero"/><path fill="#2e7032" d="M 262.273438 146.507812 C 260.640625 146.34375 259.421875 144.898438 259.550781 143.25 C 261.691406 114.871094 256.871094 86.84375 251.566406 74.503906 C 245.816406 61.132812 239.480469 54.375 239.417969 54.304688 C 238.265625 53.085938 238.308594 51.160156 239.527344 50.003906 C 240.738281 48.84375 242.660156 48.886719 243.824219 50.097656 C 244.109375 50.394531 250.839844 57.511719 257.023438 71.773438 C 262.667969 84.789062 267.871094 113.914062 265.621094 143.703125 C 265.5 145.386719 264.039062 146.644531 262.359375 146.515625 L 262.273438 146.507812 " fill-opacity="1" fill-rule="nonzero"/><path fill="#48b74f" d="M 292.664062 35.496094 C 273.015625 44.589844 266.105469 62.96875 283.945312 65.761719 C 273.183594 78.871094 293.011719 87.804688 312.664062 78.707031 C 332.316406 69.609375 330.796875 39.683594 346.101562 37 C 333.152344 29.011719 312.320312 26.398438 292.664062 35.496094 " fill-opacity="1" fill-rule="nonzero"/><path fill="#2e7032" d="M 283.945312 65.761719 C 283.945312 65.761719 285.660156 64.679688 288.082031 62.929688 C 289.304688 62.0625 290.707031 61.039062 292.191406 59.921875 C 293.699219 58.839844 295.257812 57.621094 296.855469 56.476562 C 297.636719 55.878906 298.425781 55.28125 299.21875 54.730469 C 300.007812 54.164062 300.761719 53.589844 301.527344 53.070312 C 302.28125 52.546875 303.011719 52.042969 303.707031 51.566406 C 304.402344 51.078125 305.082031 50.671875 305.695312 50.261719 C 306.3125 49.851562 306.898438 49.53125 307.417969 49.222656 C 307.941406 48.917969 308.390625 48.644531 308.789062 48.472656 C 309.566406 48.085938 310.023438 47.839844 310.023438 47.839844 C 310.023438 47.839844 309.527344 47.894531 308.636719 48.03125 C 308.191406 48.089844 307.664062 48.210938 307.074219 48.402344 C 306.484375 48.578125 305.792969 48.753906 305.09375 49.0625 C 304.394531 49.351562 303.605469 49.636719 302.839844 50.050781 C 302.0625 50.445312 301.222656 50.839844 300.421875 51.339844 C 299.605469 51.824219 298.746094 52.300781 297.9375 52.882812 C 297.109375 53.425781 296.285156 54.007812 295.46875 54.597656 C 294.660156 55.203125 293.878906 55.835938 293.101562 56.449219 C 292.316406 57.058594 291.617188 57.726562 290.898438 58.335938 C 289.496094 59.59375 288.238281 60.820312 287.207031 61.921875 C 285.125 64.105469 283.945312 65.761719 283.945312 65.761719 " fill-opacity="1" fill-rule="nonzero"/><path fill="#48b74f" d="M 227.617188 20.792969 C 253.472656 28.363281 265.367188 49.710938 243.917969 56.433594 C 259.582031 70.582031 236.820312 85.226562 210.964844 77.648438 C 185.101562 70.078125 181.457031 32.972656 162.121094 32.480469 C 176.59375 20.269531 201.75 13.21875 227.617188 20.792969 " fill-opacity="1" fill-rule="nonzero"/><path fill="#2e7032" d="M 243.917969 56.433594 C 243.917969 56.433594 242.109375 54.6875 239.113281 52.445312 C 237.625 51.3125 235.839844 50.0625 233.871094 48.789062 C 232.871094 48.179688 231.871094 47.492188 230.800781 46.894531 C 229.730469 46.285156 228.65625 45.652344 227.546875 45.070312 C 226.441406 44.484375 225.324219 43.925781 224.203125 43.402344 C 223.105469 42.84375 221.972656 42.398438 220.882812 41.949219 C 219.8125 41.472656 218.714844 41.125 217.695312 40.777344 C 216.683594 40.394531 215.671875 40.175781 214.761719 39.9375 C 213.855469 39.667969 212.984375 39.554688 212.230469 39.429688 C 211.472656 39.289062 210.808594 39.214844 210.25 39.214844 C 209.148438 39.175781 208.527344 39.179688 208.527344 39.179688 C 208.527344 39.179688 209.132812 39.371094 210.171875 39.671875 C 210.691406 39.800781 211.308594 40.03125 212.011719 40.296875 C 212.714844 40.558594 213.503906 40.824219 214.347656 41.207031 C 215.191406 41.582031 216.109375 41.933594 217.0625 42.394531 C 218.015625 42.847656 219.019531 43.304688 220.050781 43.824219 C 221.085938 44.316406 222.136719 44.867188 223.210938 45.421875 C 224.292969 45.953125 225.375 46.535156 226.453125 47.128906 C 228.640625 48.25 230.78125 49.464844 232.828125 50.546875 C 234.863281 51.65625 236.765625 52.683594 238.394531 53.570312 C 241.667969 55.332031 243.917969 56.433594 243.917969 56.433594 " fill-opacity="1" fill-rule="nonzero"/><g clip-path="url(#192372094b)"><path fill="#707678" d="M 33.074219 335.582031 L 229.78125 335.582031 L 229.78125 137.824219 L 33.074219 137.824219 L 33.074219 335.582031 " fill-opacity="1" fill-rule="nonzero"/></g><path fill="#303235" d="M 29.429688 145.335938 L 233.417969 145.335938 L 233.417969 136.003906 L 29.429688 136.003906 L 29.429688 145.335938 " fill-opacity="1" fill-rule="nonzero"/><g clip-path="url(#94091a078e)"><path fill="#8d8d94" d="M 1.304688 335.582031 L 127.273438 335.582031 L 127.273438 243.871094 L 1.304688 243.871094 L 1.304688 335.582031 " fill-opacity="1" fill-rule="nonzero"/></g><path fill="#040606" d="M 2.34375 228.027344 L 15.789062 228.027344 L 15.789062 242.253906 L 2.34375 242.253906 Z M 31.566406 242.253906 L 18.121094 242.253906 L 18.121094 228.027344 L 31.566406 228.027344 Z M 47.34375 242.253906 L 33.898438 242.253906 L 33.898438 228.027344 L 47.34375 228.027344 Z M 63.121094 242.253906 L 49.675781 242.253906 L 49.675781 228.027344 L 63.121094 228.027344 Z M 78.898438 242.253906 L 65.453125 242.253906 L 65.453125 228.027344 L 78.898438 228.027344 Z M 94.679688 242.253906 L 81.230469 242.253906 L 81.230469 228.027344 L 94.679688 228.027344 Z M 110.453125 242.253906 L 97.011719 242.253906 L 97.011719 228.027344 L 110.453125 228.027344 Z M 126.234375 242.253906 L 112.785156 242.253906 L 112.785156 228.027344 L 126.234375 228.027344 Z M 0.0117188 226.863281 L 0.0117188 243.417969 C 0.0117188 244.0625 0.535156 244.585938 1.175781 244.585938 L 127.402344 244.585938 C 128.042969 244.585938 128.566406 244.0625 128.566406 243.417969 L 128.566406 226.863281 C 128.566406 226.21875 128.042969 225.695312 127.402344 225.695312 L 1.175781 225.695312 C 0.535156 225.695312 0.0117188 226.21875 0.0117188 226.863281 " fill-opacity="1" fill-rule="nonzero"/><g clip-path="url(#3e264d2ab1)"><path fill="#303235" d="M 16.160156 335.582031 L 112.414062 335.582031 L 112.414062 269.8125 L 16.160156 269.8125 L 16.160156 335.582031 " fill-opacity="1" fill-rule="nonzero"/></g><path fill="#303235" d="M 11.933594 271.835938 L 116.640625 271.835938 L 116.640625 266.203125 L 11.933594 266.203125 L 11.933594 271.835938 " fill-opacity="1" fill-rule="nonzero"/><path fill="#b0b2b3" d="M 107.136719 201.21875 L 155.722656 201.21875 L 155.722656 212.597656 L 107.136719 212.597656 L 107.136719 201.21875 " fill-opacity="1" fill-rule="nonzero"/><path fill="#303235" d="M 110.34375 197.496094 L 152.4375 197.496094 L 152.4375 168.136719 L 110.34375 168.136719 L 110.34375 197.496094 " fill-opacity="1" fill-rule="nonzero"/><path fill="#4cbbb9" d="M 114.992188 194.253906 L 147.792969 194.253906 L 147.792969 171.378906 L 114.992188 171.378906 L 114.992188 194.253906 " fill-opacity="1" fill-rule="nonzero"/><path fill="#303235" d="M 107.242188 202.699219 L 155.539062 202.699219 L 155.539062 197.070312 L 107.242188 197.070312 L 107.242188 202.699219 " fill-opacity="1" fill-rule="nonzero"/><path fill="#b0b2b3" d="M 40.683594 201.21875 L 89.265625 201.21875 L 89.265625 212.597656 L 40.683594 212.597656 L 40.683594 201.21875 " fill-opacity="1" fill-rule="nonzero"/><path fill="#303235" d="M 43.890625 197.496094 L 85.992188 197.496094 L 85.992188 168.136719 L 43.890625 168.136719 L 43.890625 197.496094 " fill-opacity="1" fill-rule="nonzero"/><path fill="#4cbbb9" d="M 48.542969 194.253906 L 81.339844 194.253906 L 81.339844 171.378906 L 48.542969 171.378906 L 48.542969 194.253906 " fill-opacity="1" fill-rule="nonzero"/><path fill="#303235" d="M 40.789062 202.699219 L 89.089844 202.699219 L 89.089844 197.070312 L 40.789062 197.070312 L 40.789062 202.699219 " fill-opacity="1" fill-rule="nonzero"/><path fill="#b0b2b3" d="M 308.703125 232.039062 L 355.582031 232.039062 L 344.203125 112.789062 L 321.445312 112.789062 L 308.703125 232.039062 " fill-opacity="1" fill-rule="nonzero"/><path fill="#4cbbb9" d="M 316.972656 154.664062 L 318.285156 142.375 L 347.027344 142.375 L 348.199219 154.664062 L 316.972656 154.664062 " fill-opacity="1" fill-rule="nonzero"/><path fill="#4cbbb9" d="M 319.867188 127.585938 L 320.914062 117.800781 L 344.679688 117.800781 L 345.613281 127.585938 L 319.867188 127.585938 " fill-opacity="1" fill-rule="nonzero"/><path fill="#b0b2b3" d="M 239.523438 232.039062 L 286.402344 232.039062 L 275.023438 112.789062 L 252.265625 112.789062 L 239.523438 232.039062 " fill-opacity="1" fill-rule="nonzero"/><path fill="#4cbbb9" d="M 247.789062 154.664062 L 249.105469 142.375 L 277.847656 142.375 L 279.019531 154.664062 L 247.789062 154.664062 " fill-opacity="1" fill-rule="nonzero"/><path fill="#4cbbb9" d="M 250.6875 127.585938 L 251.734375 117.800781 L 275.5 117.800781 L 276.433594 127.585938 L 250.6875 127.585938 " fill-opacity="1" fill-rule="nonzero"/><g clip-path="url(#976a193683)"><path fill="#b0b2b3" d="M 230.257812 184.933594 L 230.257812 226.808594 L 302.621094 184.933594 L 302.621094 226.808594 L 374.988281 184.933594 L 374.988281 335.582031 L 157.890625 335.582031 L 157.890625 226.808594 L 230.257812 184.933594 " fill-opacity="1" fill-rule="nonzero"/></g><path fill="#303235" d="M 374.988281 184.933594 L 374.988281 201.320312 L 302.621094 243.191406 L 302.621094 226.808594 L 374.988281 184.933594 " fill-opacity="1" fill-rule="nonzero"/><path fill="#303235" d="M 302.621094 184.933594 L 302.621094 201.320312 L 230.257812 243.191406 L 230.257812 226.808594 L 302.621094 184.933594 " fill-opacity="1" fill-rule="nonzero"/><path fill="#303235" d="M 230.257812 184.933594 L 230.257812 201.320312 L 157.890625 243.191406 L 157.890625 226.808594 L 230.257812 184.933594 " fill-opacity="1" fill-rule="nonzero"/><path fill="#707678" d="M 169.894531 281.59375 L 218.480469 281.59375 L 218.480469 292.972656 L 169.894531 292.972656 L 169.894531 281.59375 " fill-opacity="1" fill-rule="nonzero"/><path fill="#303235" d="M 173.105469 277.867188 L 215.199219 277.867188 L 215.199219 248.511719 L 173.105469 248.511719 L 173.105469 277.867188 " fill-opacity="1" fill-rule="nonzero"/><path fill="#4cbbb9" d="M 177.753906 274.621094 L 210.550781 274.621094 L 210.550781 251.75 L 177.753906 251.75 L 177.753906 274.621094 " fill-opacity="1" fill-rule="nonzero"/><path fill="#303235" d="M 170.003906 283.074219 L 218.300781 283.074219 L 218.300781 277.441406 L 170.003906 277.441406 L 170.003906 283.074219 " fill-opacity="1" fill-rule="nonzero"/><path fill="#707678" d="M 314.398438 281.59375 L 362.988281 281.59375 L 362.988281 292.972656 L 314.398438 292.972656 L 314.398438 281.59375 " fill-opacity="1" fill-rule="nonzero"/><path fill="#303235" d="M 317.605469 277.867188 L 359.707031 277.867188 L 359.707031 248.511719 L 317.605469 248.511719 L 317.605469 277.867188 " fill-opacity="1" fill-rule="nonzero"/><path fill="#4cbbb9" d="M 322.257812 274.621094 L 355.058594 274.621094 L 355.058594 251.75 L 322.257812 251.75 L 322.257812 274.621094 " fill-opacity="1" fill-rule="nonzero"/><path fill="#303235" d="M 314.503906 283.074219 L 362.808594 283.074219 L 362.808594 277.441406 L 314.503906 277.441406 L 314.503906 283.074219 " fill-opacity="1" fill-rule="nonzero"/><path fill="#ffffff" d="M 239.988281 283.023438 L 252.046875 284.316406 L 234.96875 315.34375 L 224.71875 302.632812 L 239.988281 283.023438 " fill-opacity="1" fill-rule="nonzero"/><path fill="#ffffff" d="M 255.828125 317.679688 L 257.121094 305.621094 L 224.804688 302.738281 L 235.050781 315.445312 L 255.828125 317.679688 " fill-opacity="1" fill-rule="nonzero"/><path fill="#ffffff" d="M 255.242188 316.449219 L 254.429688 324.019531 L 274.3125 313.566406 L 257.105469 299.128906 L 256.289062 306.71875 " fill-opacity="1" fill-rule="nonzero"/><path fill="#ffffff" d="M 285.484375 263.109375 L 279.226562 273.503906 L 258.289062 244.941406 L 274.136719 241.003906 L 285.484375 263.109375 " fill-opacity="1" fill-rule="nonzero"/><path fill="#ffffff" d="M 247.378906 262.875 L 257.773438 269.132812 L 274.007812 241.039062 L 258.15625 244.972656 L 247.378906 262.875 " fill-opacity="1" fill-rule="nonzero"/><path fill="#ffffff" d="M 248.742188 262.863281 L 242.21875 258.933594 L 243.320312 281.371094 L 263.667969 271.847656 L 257.128906 267.910156 " fill-opacity="1" fill-rule="nonzero"/><path fill="#ffffff" d="M 279.542969 316.597656 L 273.15625 306.289062 L 308.128906 300.691406 L 304.398438 316.589844 L 279.542969 316.597656 " fill-opacity="1" fill-rule="nonzero"/><path fill="#ffffff" d="M 297.152344 282.800781 L 286.839844 289.191406 L 304.425781 316.457031 L 308.15625 300.566406 L 297.152344 282.800781 " fill-opacity="1" fill-rule="nonzero"/><path fill="#ffffff" d="M 296.535156 284.023438 L 303.007812 280.011719 L 282.542969 270.75 L 281.734375 293.195312 L 288.21875 289.179688 " fill-opacity="1" fill-rule="nonzero"/></svg>