<svg xmlns="http://www.w3.org/2000/svg" xmlns:xlink="http://www.w3.org/1999/xlink" width="1080" zoomAndPan="magnify" viewBox="0 0 810 809.999993" height="1080" preserveAspectRatio="xMidYMid meet" version="1.0"><defs><clipPath id="a1db2688e9"><path d="M 15.1875 24.921875 L 785.4375 24.921875 L 785.4375 795 L 15.1875 795 Z M 15.1875 24.921875 " clip-rule="nonzero"/></clipPath></defs><path fill="#00bf63" d="M 336.035156 137.351562 C 339.414062 137.351562 342.144531 134.613281 342.144531 131.242188 L 342.144531 68.183594 C 342.144531 64.808594 339.414062 62.074219 336.035156 62.074219 C 332.65625 62.074219 329.925781 64.808594 329.925781 68.183594 L 329.925781 131.242188 C 329.925781 134.613281 332.65625 137.351562 336.035156 137.351562 Z M 336.035156 137.351562 " fill-opacity="1" fill-rule="nonzero"/><path fill="#00bf63" d="M 209.125 137.351562 C 212.503906 137.351562 215.234375 134.613281 215.234375 131.242188 L 215.234375 68.183594 C 215.234375 64.808594 212.503906 62.074219 209.125 62.074219 C 205.746094 62.074219 203.015625 64.808594 203.015625 68.183594 L 203.015625 131.242188 C 203.015625 134.613281 205.746094 137.351562 209.125 137.351562 Z M 209.125 137.351562 " fill-opacity="1" fill-rule="nonzero"/><path fill="#00bf63" d="M 464.226562 137.351562 C 467.605469 137.351562 470.335938 134.613281 470.335938 131.242188 L 470.335938 68.183594 C 470.335938 64.808594 467.605469 62.074219 464.226562 62.074219 C 460.847656 62.074219 458.117188 64.808594 458.117188 68.183594 L 458.117188 131.242188 C 458.117188 134.613281 460.847656 137.351562 464.226562 137.351562 Z M 464.226562 137.351562 " fill-opacity="1" fill-rule="nonzero"/><path fill="#00bf63" d="M 591.136719 137.351562 C 594.515625 137.351562 597.246094 134.613281 597.246094 131.242188 L 597.246094 68.183594 C 597.246094 64.808594 594.515625 62.074219 591.136719 62.074219 C 587.757812 62.074219 585.027344 64.808594 585.027344 68.183594 L 585.027344 131.242188 C 585.027344 134.613281 587.757812 137.351562 591.136719 137.351562 Z M 591.136719 137.351562 " fill-opacity="1" fill-rule="nonzero"/><path fill="#00bf63" d="M 121.503906 480.074219 C 124.882812 480.074219 127.617188 477.335938 127.617188 473.960938 C 127.617188 470.589844 124.882812 467.851562 121.503906 467.851562 L 58.449219 467.851562 C 55.070312 467.851562 52.335938 470.589844 52.335938 473.960938 C 52.335938 477.335938 55.070312 480.074219 58.449219 480.074219 Z M 121.503906 480.074219 " fill-opacity="1" fill-rule="nonzero"/><path fill="#00bf63" d="M 121.503906 594.761719 L 58.449219 594.761719 C 55.070312 594.761719 52.335938 597.5 52.335938 600.871094 C 52.335938 604.246094 55.070312 606.980469 58.449219 606.980469 L 121.503906 606.980469 C 124.882812 606.980469 127.617188 604.246094 127.617188 600.871094 C 127.617188 597.5 124.882812 594.761719 121.503906 594.761719 Z M 121.503906 594.761719 " fill-opacity="1" fill-rule="nonzero"/><path fill="#00bf63" d="M 121.503906 351.878906 C 124.882812 351.878906 127.617188 349.144531 127.617188 345.769531 C 127.617188 342.398438 124.882812 339.660156 121.503906 339.660156 L 58.449219 339.660156 C 55.070312 339.660156 52.335938 342.398438 52.335938 345.769531 C 52.335938 349.144531 55.070312 351.878906 58.449219 351.878906 Z M 121.503906 351.878906 " fill-opacity="1" fill-rule="nonzero"/><path fill="#00bf63" d="M 58.449219 224.972656 L 121.503906 224.972656 C 124.882812 224.972656 127.617188 222.234375 127.617188 218.859375 C 127.617188 215.488281 124.882812 212.75 121.503906 212.75 L 58.449219 212.75 C 55.070312 212.75 52.335938 215.488281 52.335938 218.859375 C 52.335938 222.234375 55.070312 224.972656 58.449219 224.972656 Z M 58.449219 224.972656 " fill-opacity="1" fill-rule="nonzero"/><path fill="#00bf63" d="M 464.226562 682.382812 C 460.847656 682.382812 458.117188 685.121094 458.117188 688.492188 L 458.117188 751.550781 C 458.117188 754.921875 460.847656 757.660156 464.226562 757.660156 C 467.605469 757.660156 470.335938 754.921875 470.335938 751.550781 L 470.335938 688.492188 C 470.335938 685.121094 467.605469 682.382812 464.226562 682.382812 Z M 464.226562 682.382812 " fill-opacity="1" fill-rule="nonzero"/><path fill="#00bf63" d="M 591.136719 682.382812 C 587.757812 682.382812 585.027344 685.121094 585.027344 688.492188 L 585.027344 751.550781 C 585.027344 754.921875 587.757812 757.660156 591.136719 757.660156 C 594.515625 757.660156 597.246094 754.921875 597.246094 751.550781 L 597.246094 688.492188 C 597.246094 685.121094 594.507812 682.382812 591.136719 682.382812 Z M 591.136719 682.382812 " fill-opacity="1" fill-rule="nonzero"/><path fill="#00bf63" d="M 336.035156 682.382812 C 332.65625 682.382812 329.925781 685.121094 329.925781 688.492188 L 329.925781 751.550781 C 329.925781 754.921875 332.65625 757.660156 336.035156 757.660156 C 339.414062 757.660156 342.144531 754.921875 342.144531 751.550781 L 342.144531 688.492188 C 342.144531 685.121094 339.40625 682.382812 336.035156 682.382812 Z M 336.035156 682.382812 " fill-opacity="1" fill-rule="nonzero"/><path fill="#00bf63" d="M 209.125 682.382812 C 205.746094 682.382812 203.015625 685.121094 203.015625 688.492188 L 203.015625 751.550781 C 203.015625 754.921875 205.746094 757.660156 209.125 757.660156 C 212.503906 757.660156 215.234375 754.921875 215.234375 751.550781 L 215.234375 688.492188 C 215.234375 685.121094 212.503906 682.382812 209.125 682.382812 Z M 209.125 682.382812 " fill-opacity="1" fill-rule="nonzero"/><path fill="#00bf63" d="M 678.757812 339.660156 C 675.378906 339.660156 672.644531 342.398438 672.644531 345.769531 C 672.644531 349.144531 675.378906 351.878906 678.757812 351.878906 L 741.8125 351.878906 C 745.191406 351.878906 747.925781 349.144531 747.925781 345.769531 C 747.925781 342.398438 745.191406 339.660156 741.8125 339.660156 Z M 678.757812 339.660156 " fill-opacity="1" fill-rule="nonzero"/><path fill="#00bf63" d="M 678.757812 224.972656 L 741.8125 224.972656 C 745.191406 224.972656 747.925781 222.234375 747.925781 218.859375 C 747.925781 215.488281 745.191406 212.75 741.8125 212.75 L 678.757812 212.75 C 675.378906 212.75 672.644531 215.488281 672.644531 218.859375 C 672.644531 222.234375 675.378906 224.972656 678.757812 224.972656 Z M 678.757812 224.972656 " fill-opacity="1" fill-rule="nonzero"/><g clip-path="url(#a1db2688e9)"><path fill="#00bf63" d="M 785.074219 306.421875 L 785.074219 256.929688 C 785.074219 253.554688 782.34375 250.816406 778.964844 250.816406 L 637.085938 250.816406 L 637.085938 179.023438 C 637.085938 175.648438 634.355469 172.914062 630.976562 172.914062 L 559.179688 172.914062 L 559.179688 31.035156 C 559.179688 27.660156 556.449219 24.921875 553.070312 24.921875 L 503.578125 24.921875 C 500.199219 24.921875 497.464844 27.660156 497.464844 31.035156 L 497.464844 172.914062 L 430.988281 172.914062 L 430.988281 31.035156 C 430.988281 27.660156 428.257812 24.921875 424.878906 24.921875 L 375.382812 24.921875 C 372.003906 24.921875 369.273438 27.660156 369.273438 31.035156 L 369.273438 172.914062 L 302.796875 172.914062 L 302.796875 31.035156 C 302.796875 27.660156 300.0625 24.921875 296.683594 24.921875 L 247.191406 24.921875 C 243.8125 24.921875 241.082031 27.660156 241.082031 31.035156 L 241.082031 172.914062 L 169.285156 172.914062 C 165.90625 172.914062 163.175781 175.648438 163.175781 179.023438 L 163.175781 250.816406 L 21.296875 250.816406 C 17.917969 250.816406 15.1875 253.554688 15.1875 256.929688 L 15.1875 306.421875 C 15.1875 309.792969 17.917969 312.53125 21.296875 312.53125 L 163.175781 312.53125 L 163.175781 379.011719 L 21.296875 379.011719 C 17.917969 379.011719 15.1875 381.746094 15.1875 385.121094 L 15.1875 434.613281 C 15.1875 437.984375 17.917969 440.722656 21.296875 440.722656 L 163.175781 440.722656 L 163.175781 507.203125 L 21.296875 507.203125 C 17.917969 507.203125 15.1875 509.9375 15.1875 513.3125 L 15.1875 562.804688 C 15.1875 566.179688 17.917969 568.914062 21.296875 568.914062 L 163.175781 568.914062 L 163.175781 640.710938 C 163.175781 644.082031 165.90625 646.820312 169.285156 646.820312 L 241.082031 646.820312 L 241.082031 788.699219 C 241.082031 792.074219 243.8125 794.808594 247.191406 794.808594 L 296.691406 794.808594 C 300.070312 794.808594 302.800781 792.074219 302.800781 788.699219 L 302.800781 646.820312 L 369.28125 646.820312 L 369.28125 788.699219 C 369.28125 792.074219 372.011719 794.808594 375.390625 794.808594 L 424.882812 794.808594 C 428.261719 794.808594 430.992188 792.074219 430.992188 788.699219 L 430.992188 646.820312 L 497.472656 646.820312 L 497.472656 788.699219 C 497.472656 792.074219 500.203125 794.808594 503.582031 794.808594 L 553.082031 794.808594 C 556.460938 794.808594 559.191406 792.074219 559.191406 788.699219 L 559.191406 646.820312 L 630.988281 646.820312 C 634.367188 646.820312 637.097656 644.082031 637.097656 640.710938 L 637.097656 568.914062 L 778.964844 568.914062 C 782.34375 568.914062 785.074219 566.179688 785.074219 562.804688 L 785.074219 513.3125 C 785.074219 509.9375 782.34375 507.203125 778.964844 507.203125 L 637.085938 507.203125 L 637.085938 440.722656 L 778.964844 440.722656 C 782.34375 440.722656 785.074219 437.984375 785.074219 434.613281 L 785.074219 385.121094 C 785.074219 381.746094 782.34375 379.011719 778.964844 379.011719 L 637.085938 379.011719 L 637.085938 312.53125 L 778.964844 312.53125 C 782.34375 312.53125 785.074219 309.792969 785.074219 306.421875 Z M 469.359375 409.867188 C 469.359375 448.042969 438.300781 479.09375 400.128906 479.09375 C 361.960938 479.09375 330.902344 448.042969 330.902344 409.867188 C 330.902344 371.691406 361.960938 340.636719 400.128906 340.636719 C 438.300781 340.636719 469.359375 371.691406 469.359375 409.867188 Z M 469.359375 409.867188 " fill-opacity="1" fill-rule="nonzero"/></g><path fill="#00bf63" d="M 678.757812 467.851562 C 675.378906 467.851562 672.644531 470.589844 672.644531 473.960938 C 672.644531 477.335938 675.378906 480.074219 678.757812 480.074219 L 741.8125 480.074219 C 745.191406 480.074219 747.925781 477.335938 747.925781 473.960938 C 747.925781 470.589844 745.191406 467.851562 741.8125 467.851562 Z M 678.757812 467.851562 " fill-opacity="1" fill-rule="nonzero"/><path fill="#00bf63" d="M 741.8125 594.761719 L 678.757812 594.761719 C 675.378906 594.761719 672.644531 597.5 672.644531 600.871094 C 672.644531 604.246094 675.378906 606.980469 678.757812 606.980469 L 741.8125 606.980469 C 745.191406 606.980469 747.925781 604.246094 747.925781 600.871094 C 747.925781 597.5 745.191406 594.761719 741.8125 594.761719 Z M 741.8125 594.761719 " fill-opacity="1" fill-rule="nonzero"/></svg>