<svg xmlns="http://www.w3.org/2000/svg" xmlns:xlink="http://www.w3.org/1999/xlink" width="500" zoomAndPan="magnify" viewBox="0 0 375 374.999991" height="500" preserveAspectRatio="xMidYMid meet" version="1.0"><defs><clipPath id="677a5b0871"><path d="M 70.289062 82.671875 L 305 82.671875 L 305 317.421875 L 70.289062 317.421875 Z M 70.289062 82.671875 " clip-rule="nonzero"/></clipPath></defs><g clip-path="url(#677a5b0871)"><path fill="#ffffff" d="M 188.144531 82.671875 C 155.855469 82.671875 151.980469 82.671875 139.710938 83.316406 C 127.441406 83.316406 118.398438 85.898438 111.296875 88.480469 C 103.546875 91.710938 97.089844 95.585938 90.628906 102.042969 C 84.171875 108.5 80.296875 114.960938 77.070312 122.710938 C 73.839844 130.457031 71.902344 138.855469 71.902344 151.125 C 70.609375 164.6875 70.609375 168.558594 70.609375 200.203125 C 70.609375 232.492188 70.609375 236.367188 71.257812 248.636719 C 71.257812 260.910156 73.839844 269.949219 76.421875 277.054688 C 79.652344 284.800781 83.527344 291.261719 89.984375 297.71875 C 96.441406 304.175781 102.902344 308.050781 110.648438 311.28125 C 118.398438 314.507812 126.792969 316.445312 139.066406 316.445312 C 151.335938 316.445312 155.855469 317.09375 187.5 317.09375 C 219.144531 317.09375 223.664062 317.09375 235.933594 316.445312 C 248.203125 316.445312 257.246094 313.863281 264.347656 311.28125 C 272.097656 308.050781 278.554688 304.175781 285.011719 297.71875 C 291.472656 291.261719 295.347656 284.800781 298.574219 277.054688 C 301.15625 269.304688 303.742188 260.910156 303.742188 248.636719 C 303.742188 236.367188 304.386719 231.847656 304.386719 200.203125 C 304.386719 167.914062 304.386719 164.039062 303.742188 151.769531 C 303.742188 139.5 301.15625 130.457031 298.574219 123.355469 C 295.347656 115.605469 291.472656 109.148438 285.011719 102.691406 C 278.554688 96.230469 272.097656 92.355469 264.347656 89.128906 C 256.597656 85.898438 248.203125 83.960938 235.933594 83.960938 C 224.308594 82.671875 220.433594 82.671875 188.144531 82.671875 Z M 177.8125 103.980469 C 181.042969 103.980469 184.269531 103.980469 188.144531 103.980469 C 219.789062 103.980469 223.015625 103.980469 235.933594 104.628906 C 247.558594 104.628906 253.371094 107.210938 257.890625 108.5 C 263.703125 110.4375 267.578125 113.023438 271.453125 117.542969 C 275.328125 121.417969 277.910156 125.292969 280.492188 131.105469 C 281.785156 134.980469 283.722656 141.4375 284.367188 153.0625 C 284.367188 165.332031 285.011719 169.207031 285.011719 200.851562 C 285.011719 232.492188 285.011719 235.722656 284.367188 248.636719 C 284.367188 260.261719 281.785156 266.074219 280.492188 270.59375 C 278.554688 276.40625 275.972656 280.28125 271.453125 284.15625 C 267.578125 288.03125 263.703125 290.613281 257.890625 293.199219 C 254.015625 295.136719 247.558594 296.425781 235.933594 297.074219 C 223.664062 297.074219 219.789062 297.71875 188.144531 297.71875 C 156.5 297.71875 153.273438 297.71875 140.355469 297.074219 C 128.730469 297.074219 122.921875 294.488281 118.398438 293.199219 C 112.585938 291.261719 108.710938 288.675781 104.835938 284.15625 C 100.964844 280.28125 98.378906 276.40625 95.796875 270.59375 C 94.503906 266.71875 92.566406 260.261719 91.921875 248.636719 C 91.921875 236.367188 91.277344 232.492188 91.277344 200.851562 C 91.277344 169.207031 91.277344 165.976562 91.921875 153.0625 C 91.921875 141.4375 94.503906 135.625 95.796875 131.105469 C 97.734375 125.292969 100.316406 121.417969 104.835938 117.542969 C 108.710938 113.667969 112.585938 111.085938 118.398438 108.5 C 122.273438 106.566406 128.730469 105.273438 140.355469 104.628906 C 151.335938 104.628906 155.210938 104.628906 177.167969 103.980469 Z M 188.144531 140.144531 C 154.5625 140.144531 127.441406 167.269531 127.441406 200.851562 C 127.441406 234.429688 154.5625 261.554688 188.144531 261.554688 C 221.726562 261.554688 248.847656 234.429688 248.847656 200.851562 C 248.847656 167.269531 221.726562 140.144531 188.144531 140.144531 Z M 188.144531 161.457031 C 210.101562 161.457031 227.539062 178.894531 227.539062 200.851562 C 227.539062 222.808594 210.101562 240.242188 188.144531 240.242188 C 166.1875 240.242188 148.75 222.808594 148.75 200.851562 C 148.75 178.894531 166.1875 161.457031 188.144531 161.457031 Z M 188.144531 161.457031 " fill-opacity="1" fill-rule="nonzero"/></g></svg>