<svg xmlns="http://www.w3.org/2000/svg" xmlns:xlink="http://www.w3.org/1999/xlink" width="1080" zoomAndPan="magnify" viewBox="0 0 810 809.999993" height="1080" preserveAspectRatio="xMidYMid meet" version="1.0"><defs><clipPath id="451495126d"><path d="M 1 0 L 787 0 L 787 784.5 L 1 784.5 Z M 1 0 " clip-rule="nonzero"/></clipPath></defs><g clip-path="url(#451495126d)"><path fill="#00bf63" d="M 551.78125 0 C 491.710938 0 431.644531 23 385.914062 68.726562 C 324.222656 130.421875 302.035156 222.417969 328.28125 305.484375 L 6.828125 627.207031 C 4.125 629.644531 2.769531 633.160156 2.769531 636.679688 L 1.6875 771.160156 C 1.6875 774.675781 3.042969 778.195312 5.75 780.628906 C 8.183594 783.335938 11.699219 784.6875 15.21875 784.6875 C 55.515625 784.6875 95.84375 784.152344 136.140625 783.714844 C 146.523438 783.628906 163.226562 785.175781 163.226562 770.074219 L 163.226562 694.582031 L 238.71875 694.582031 C 242.507812 694.582031 246.292969 692.6875 248.730469 689.984375 C 251.433594 687.546875 252.789062 684.03125 252.789062 680.511719 L 252.789062 604.480469 L 328.550781 604.75 C 332.070312 604.75 335.585938 603.125 338.023438 600.691406 C 340.726562 598.257812 342.082031 594.738281 342.082031 591.222656 L 342.082031 515.1875 L 418.113281 515.1875 C 421.632812 515.1875 425.148438 513.5625 427.855469 511.128906 L 480.890625 458.09375 C 563.957031 484.070312 655.957031 462.152344 717.648438 400.460938 C 809.105469 309.003906 809.105469 160.183594 717.648438 68.726562 C 671.921875 23 611.851562 0 551.78125 0 Z M 654.332031 209.160156 C 632.957031 230.535156 598.320312 230.535156 577.21875 209.160156 C 555.839844 188.054688 555.839844 153.417969 577.21875 132.042969 C 598.320312 110.667969 632.957031 110.667969 654.332031 132.042969 C 675.707031 153.417969 675.707031 188.054688 654.332031 209.160156 Z M 654.332031 209.160156 " fill-opacity="1" fill-rule="nonzero"/></g></svg>