<svg xmlns="http://www.w3.org/2000/svg" xmlns:xlink="http://www.w3.org/1999/xlink" width="500" zoomAndPan="magnify" viewBox="0 0 375 374.999991" height="500" preserveAspectRatio="xMidYMid meet" version="1.0"><defs><clipPath id="f77764b86d"><path d="M 73.945312 73.945312 L 301.195312 73.945312 L 301.195312 301.195312 L 73.945312 301.195312 Z M 73.945312 73.945312 " clip-rule="nonzero"/></clipPath></defs><path fill="#ffffff" d="M 126.890625 156.308594 L 143.6875 156.308594 C 144.113281 156.308594 144.523438 156.390625 144.917969 156.554688 C 145.3125 156.71875 145.660156 156.949219 145.964844 157.253906 C 146.265625 157.554688 146.5 157.902344 146.664062 158.296875 C 146.824219 158.691406 146.90625 159.101562 146.90625 159.53125 L 146.90625 251.921875 C 146.90625 252.347656 146.824219 252.757812 146.664062 253.152344 C 146.5 253.546875 146.265625 253.894531 145.964844 254.199219 C 145.660156 254.5 145.3125 254.734375 144.917969 254.894531 C 144.523438 255.058594 144.113281 255.140625 143.6875 255.140625 L 126.890625 255.140625 C 126.460938 255.140625 126.050781 255.058594 125.65625 254.894531 C 125.261719 254.734375 124.914062 254.5 124.613281 254.199219 C 124.308594 253.894531 124.078125 253.546875 123.914062 253.152344 C 123.75 252.757812 123.667969 252.347656 123.667969 251.921875 L 123.667969 159.53125 C 123.667969 159.101562 123.75 158.691406 123.914062 158.296875 C 124.078125 157.902344 124.308594 157.554688 124.613281 157.253906 C 124.914062 156.949219 125.261719 156.71875 125.65625 156.554688 C 126.050781 156.390625 126.460938 156.308594 126.890625 156.308594 Z M 126.890625 156.308594 " fill-opacity="1" fill-rule="nonzero"/><path fill="#ffffff" d="M 148.816406 133.515625 C 148.792969 125.59375 143.109375 119.847656 135.289062 119.847656 C 127.46875 119.847656 121.566406 125.746094 121.566406 133.570312 C 121.566406 137.210938 122.894531 140.59375 125.304688 143.101562 C 127.78125 145.679688 131.191406 147.097656 134.90625 147.097656 C 139.023438 147.097656 142.695312 145.648438 145.25 143 C 147.648438 140.523438 148.910156 137.179688 148.820312 133.570312 C 148.820312 133.550781 148.816406 133.539062 148.816406 133.515625 Z M 148.816406 133.515625 " fill-opacity="1" fill-rule="nonzero"/><path fill="#ffffff" d="M 240.824219 162.808594 C 232.460938 155.328125 222.660156 154.207031 217.558594 154.207031 C 209.941406 154.207031 202.683594 156.246094 196.5625 160.097656 C 193.886719 161.78125 191.472656 163.777344 189.316406 166.085938 L 188.894531 159.324219 C 188.867188 158.914062 188.765625 158.523438 188.59375 158.152344 C 188.417969 157.78125 188.179688 157.453125 187.882812 157.171875 C 187.582031 156.894531 187.242188 156.675781 186.859375 156.527344 C 186.476562 156.375 186.082031 156.300781 185.671875 156.300781 L 170.792969 156.300781 C 170.570312 156.300781 170.351562 156.324219 170.132812 156.371094 C 169.917969 156.414062 169.707031 156.484375 169.503906 156.570312 C 169.300781 156.660156 169.109375 156.769531 168.925781 156.898438 C 168.746094 157.023438 168.582031 157.171875 168.429688 157.332031 C 168.28125 157.496094 168.148438 157.671875 168.03125 157.863281 C 167.917969 158.050781 167.824219 158.25 167.75 158.460938 C 167.679688 158.667969 167.628906 158.882812 167.597656 159.105469 C 167.570312 159.324219 167.5625 159.542969 167.578125 159.765625 C 168.109375 166.816406 168.332031 174.222656 168.332031 184.53125 L 168.332031 251.921875 C 168.332031 252.347656 168.414062 252.757812 168.578125 253.152344 C 168.742188 253.546875 168.976562 253.894531 169.277344 254.199219 C 169.578125 254.5 169.925781 254.734375 170.320312 254.894531 C 170.71875 255.058594 171.128906 255.140625 171.554688 255.140625 L 188.355469 255.140625 C 188.78125 255.140625 189.191406 255.058594 189.585938 254.894531 C 189.980469 254.734375 190.328125 254.5 190.632812 254.199219 C 190.933594 253.894531 191.167969 253.546875 191.328125 253.152344 C 191.492188 252.757812 191.574219 252.347656 191.574219 251.921875 L 191.574219 196.371094 C 191.574219 193.761719 191.921875 191.308594 192.527344 189.644531 C 192.542969 189.59375 192.5625 189.539062 192.578125 189.484375 C 194.847656 182.074219 201.742188 174.582031 212.023438 174.582031 C 218.386719 174.582031 222.953125 176.757812 225.988281 181.234375 C 228.726562 185.28125 230.175781 191.308594 230.175781 198.660156 L 230.175781 251.921875 C 230.175781 252.347656 230.257812 252.757812 230.421875 253.152344 C 230.585938 253.546875 230.816406 253.894531 231.121094 254.199219 C 231.421875 254.5 231.769531 254.734375 232.164062 254.894531 C 232.558594 255.058594 232.972656 255.140625 233.398438 255.140625 L 250.195312 255.140625 C 250.625 255.140625 251.035156 255.058594 251.429688 254.894531 C 251.824219 254.734375 252.171875 254.5 252.472656 254.199219 C 252.777344 253.894531 253.007812 253.546875 253.171875 253.152344 C 253.335938 252.757812 253.417969 252.347656 253.417969 251.921875 L 253.417969 196.753906 C 253.417969 188.894531 252.230469 181.925781 249.886719 176.046875 C 247.785156 170.761719 244.734375 166.304688 240.824219 162.808594 Z M 240.824219 162.808594 " fill-opacity="1" fill-rule="nonzero"/><g clip-path="url(#f77764b86d)"><path fill="#ffffff" d="M 271.480469 73.945312 L 103.511719 73.945312 C 87.207031 73.945312 73.945312 87.210938 73.945312 103.511719 L 73.945312 271.480469 C 73.945312 287.78125 87.207031 301.042969 103.511719 301.042969 L 271.480469 301.042969 C 287.78125 301.042969 301.042969 287.78125 301.042969 271.480469 L 301.042969 103.511719 C 301.042969 87.210938 287.78125 73.945312 271.480469 73.945312 Z M 280.285156 104.941406 L 280.285156 270.046875 C 280.285156 270.71875 280.21875 271.386719 280.085938 272.042969 C 279.953125 272.703125 279.761719 273.34375 279.503906 273.964844 C 279.246094 274.585938 278.929688 275.171875 278.554688 275.734375 C 278.183594 276.292969 277.757812 276.808594 277.28125 277.28125 C 276.808594 277.757812 276.292969 278.183594 275.734375 278.554688 C 275.175781 278.929688 274.585938 279.246094 273.964844 279.503906 C 273.34375 279.761719 272.703125 279.953125 272.042969 280.085938 C 271.386719 280.21875 270.71875 280.285156 270.046875 280.285156 L 104.941406 280.285156 C 104.269531 280.285156 103.605469 280.21875 102.945312 280.085938 C 102.289062 279.953125 101.648438 279.761719 101.027344 279.503906 C 100.40625 279.246094 99.816406 278.929688 99.257812 278.554688 C 98.699219 278.183594 98.183594 277.757812 97.707031 277.28125 C 97.230469 276.808594 96.808594 276.292969 96.433594 275.734375 C 96.0625 275.171875 95.746094 274.585938 95.488281 273.964844 C 95.230469 273.34375 95.035156 272.703125 94.90625 272.042969 C 94.773438 271.386719 94.707031 270.71875 94.707031 270.046875 L 94.707031 104.941406 C 94.707031 104.269531 94.773438 103.605469 94.90625 102.945312 C 95.035156 102.289062 95.230469 101.648438 95.488281 101.027344 C 95.746094 100.40625 96.0625 99.816406 96.433594 99.257812 C 96.808594 98.699219 97.230469 98.183594 97.707031 97.707031 C 98.183594 97.230469 98.699219 96.808594 99.257812 96.433594 C 99.816406 96.0625 100.40625 95.746094 101.027344 95.488281 C 101.648438 95.230469 102.289062 95.035156 102.945312 94.90625 C 103.605469 94.773438 104.269531 94.707031 104.941406 94.707031 L 270.046875 94.707031 C 270.71875 94.707031 271.386719 94.773438 272.042969 94.90625 C 272.703125 95.035156 273.34375 95.230469 273.964844 95.488281 C 274.585938 95.746094 275.171875 96.0625 275.734375 96.433594 C 276.292969 96.808594 276.808594 97.230469 277.28125 97.707031 C 277.757812 98.183594 278.183594 98.699219 278.554688 99.257812 C 278.929688 99.816406 279.246094 100.40625 279.503906 101.027344 C 279.761719 101.648438 279.953125 102.289062 280.085938 102.945312 C 280.21875 103.605469 280.285156 104.269531 280.285156 104.941406 Z M 280.285156 104.941406 " fill-opacity="1" fill-rule="nonzero"/></g></svg>