<svg xmlns="http://www.w3.org/2000/svg" xmlns:xlink="http://www.w3.org/1999/xlink" width="1080" zoomAndPan="magnify" viewBox="0 0 810 809.999993" height="1080" preserveAspectRatio="xMidYMid meet" version="1.0"><defs><clipPath id="46c4e10f59"><path d="M 457.164062 415 L 801.601562 415 L 801.601562 760.191406 L 457.164062 760.191406 Z M 457.164062 415 " clip-rule="nonzero"/></clipPath><clipPath id="f3f567113f"><path d="M 8.128906 50 L 655 50 L 655 749 L 8.128906 749 Z M 8.128906 50 " clip-rule="nonzero"/></clipPath></defs><g clip-path="url(#46c4e10f59)"><path fill="#00bf63" d="M 718.207031 560.078125 L 618.175781 660.109375 C 612.0625 666.222656 604.066406 669.265625 596.070312 669.265625 C 588.074219 669.265625 580.078125 666.222656 573.964844 660.109375 L 524.875 611.019531 C 512.675781 598.820312 512.675781 579.035156 524.875 566.808594 C 537.078125 554.609375 556.886719 554.609375 569.089844 566.808594 L 596.070312 593.816406 L 673.996094 515.890625 C 686.195312 503.664062 705.980469 503.664062 718.207031 515.890625 C 730.410156 528.089844 730.410156 547.875 718.207031 560.078125 Z M 629.371094 415.78125 C 534.265625 415.78125 457.164062 492.882812 457.164062 587.988281 C 457.164062 683.09375 534.265625 760.21875 629.371094 760.21875 C 724.476562 760.21875 801.574219 683.09375 801.574219 587.988281 C 801.574219 492.882812 724.476562 415.78125 629.371094 415.78125 " fill-opacity="1" fill-rule="nonzero"/></g><g clip-path="url(#f3f567113f)"><path fill="#00bf63" d="M 638.914062 178.082031 C 629.214844 169.648438 616.371094 165.832031 603.652344 167.609375 C 596.664062 168.589844 588.203125 169.363281 578.785156 169.363281 C 545.820312 169.363281 500.730469 160.15625 461.703125 119.863281 C 415.558594 72.273438 374.027344 50.0625 331.132812 50.0625 C 288.234375 50.0625 246.707031 72.273438 200.558594 119.863281 C 150.363281 171.710938 90.054688 172.074219 58.609375 167.609375 C 45.894531 165.832031 33.046875 169.648438 23.347656 178.082031 C 13.675781 186.464844 8.128906 198.617188 8.128906 211.433594 L 8.128906 310.203125 C 8.183594 313.324219 10.167969 388.722656 48.652344 480.140625 C 84.226562 564.695312 159.105469 679.300781 313.71875 745.101562 C 319.265625 747.476562 325.171875 748.609375 331.132812 748.609375 C 337.089844 748.609375 342.972656 747.476562 348.542969 745.101562 C 382.488281 730.632812 412.589844 713.863281 439.261719 695.472656 C 432.144531 682.9375 426.183594 669.574219 421.621094 655.59375 C 395.4375 674.320312 365.644531 691.320312 331.777344 705.714844 C 331.363281 705.894531 330.898438 705.894531 330.488281 705.714844 C 217.507812 657.605469 136.148438 576.664062 88.738281 465.050781 C 52.988281 380.984375 50.925781 309.972656 50.925781 309.738281 L 50.925781 211.433594 C 50.925781 211.28125 50.925781 210.816406 51.441406 210.351562 C 51.800781 210.066406 52.136719 209.992188 52.367188 209.992188 L 52.652344 209.992188 C 92.144531 215.5625 167.902344 215.097656 231.332031 149.632812 C 268.347656 111.402344 301.003906 92.855469 331.132812 92.855469 C 346.171875 92.855469 361.90625 97.472656 378.4375 106.914062 C 395.027344 116.332031 412.4375 130.492188 430.933594 149.632812 C 494.359375 215.097656 570.121094 215.5625 609.613281 209.992188 C 609.84375 209.9375 610.308594 209.886719 610.824219 210.351562 C 611.339844 210.816406 611.339844 211.28125 611.339844 211.433594 L 611.339844 309.273438 C 611.339844 310.101562 610.59375 334.320312 602.777344 371.15625 C 611.519531 370.046875 620.367188 369.53125 629.371094 369.53125 C 635.226562 369.53125 641.054688 369.761719 646.78125 370.226562 C 653.488281 334.835938 654.082031 311.726562 654.132812 309.738281 L 654.132812 211.433594 C 654.132812 198.617188 648.585938 186.464844 638.914062 178.082031 " fill-opacity="1" fill-rule="nonzero"/></g><path fill="#00bf63" d="M 373.691406 399.015625 L 373.691406 473.097656 C 373.691406 496.621094 354.65625 515.660156 331.132812 515.660156 C 307.582031 515.660156 288.570312 496.621094 288.570312 473.097656 L 288.570312 399.015625 C 274.359375 386.941406 265.148438 369.144531 265.148438 349 C 265.148438 312.578125 294.710938 283.042969 331.132812 283.042969 C 367.554688 283.042969 397.113281 312.578125 397.113281 349 C 397.113281 369.144531 387.90625 386.941406 373.691406 399.015625 Z M 392.550781 189.40625 C 357.082031 152.804688 337.785156 148.832031 331.132812 148.832031 C 324.476562 148.832031 305.15625 152.804688 269.714844 189.40625 C 215.261719 245.613281 153.792969 263.773438 104.394531 267.488281 L 104.394531 311.132812 C 104.707031 317.785156 108.574219 377.527344 137.929688 446.65625 C 176.855469 538.253906 241.804688 606.609375 331.132812 649.867188 C 361.777344 635.011719 388.320312 617.703125 411.222656 598.976562 C 411.042969 595.339844 410.914062 591.703125 410.914062 587.988281 C 410.914062 497.371094 466.425781 419.445312 545.203125 386.425781 C 555.933594 345.878906 557.6875 316.394531 557.839844 310.898438 L 557.839844 267.488281 C 508.523438 263.773438 447 245.613281 392.550781 189.40625 " fill-opacity="1" fill-rule="nonzero"/></svg>