<svg xmlns="http://www.w3.org/2000/svg" xmlns:xlink="http://www.w3.org/1999/xlink" width="500" zoomAndPan="magnify" viewBox="0 0 375 374.999991" height="500" preserveAspectRatio="xMidYMid meet" version="1.0"><defs><clipPath id="bb5318da26"><path d="M 23.273438 73 L 351.773438 73 L 351.773438 284 L 23.273438 284 Z M 23.273438 73 " clip-rule="nonzero"/></clipPath></defs><g clip-path="url(#bb5318da26)"><path fill="#16366f" d="M 40.121094 73.007812 L 334.929688 73.007812 C 344.234375 73.007812 351.773438 80.546875 351.773438 89.851562 L 351.773438 266.738281 C 351.773438 276.039062 344.234375 283.582031 334.929688 283.582031 L 40.121094 283.582031 C 30.816406 283.582031 23.273438 276.039062 23.273438 266.738281 L 23.273438 89.851562 C 23.273438 80.546875 30.816406 73.007812 40.121094 73.007812 Z M 40.121094 73.007812 " fill-opacity="1" fill-rule="nonzero"/></g><path fill="#d9222a" d="M 212.375 178.292969 C 212.375 220.050781 178.527344 253.890625 136.777344 253.890625 C 95.023438 253.890625 61.179688 220.046875 61.179688 178.292969 C 61.179688 136.542969 95.023438 102.699219 136.777344 102.699219 C 178.527344 102.699219 212.375 136.546875 212.375 178.292969 " fill-opacity="1" fill-rule="nonzero"/><path fill="#ee9f2d" d="M 238.269531 102.695312 C 218.734375 102.695312 200.9375 110.105469 187.519531 122.265625 C 184.785156 124.746094 182.234375 127.417969 179.886719 130.265625 L 195.160156 130.265625 C 197.253906 132.808594 199.175781 135.480469 200.925781 138.273438 L 174.125 138.273438 C 172.511719 140.851562 171.058594 143.523438 169.769531 146.277344 L 205.277344 146.277344 C 206.496094 148.882812 207.5625 151.554688 208.476562 154.28125 L 166.566406 154.28125 C 165.6875 156.90625 164.953125 159.578125 164.371094 162.289062 L 210.671875 162.289062 C 211.804688 167.546875 212.375 172.914062 212.375 178.292969 C 212.375 186.691406 211.003906 194.765625 208.476562 202.308594 L 166.566406 202.308594 C 167.480469 205.039062 168.546875 207.710938 169.765625 210.316406 L 205.277344 210.316406 C 203.984375 213.070312 202.53125 215.742188 200.917969 218.320312 L 174.121094 218.320312 C 175.871094 221.113281 177.800781 223.789062 179.886719 226.324219 L 195.15625 226.324219 C 192.808594 229.175781 190.257812 231.851562 187.519531 234.328125 C 200.9375 246.488281 218.734375 253.894531 238.269531 253.894531 C 280.023438 253.894531 313.871094 220.050781 313.871094 178.296875 C 313.871094 136.546875 280.023438 102.699219 238.269531 102.699219 " fill-opacity="1" fill-rule="nonzero"/><path fill="#000000" d="M 303.796875 220.433594 C 303.796875 219.085938 304.886719 217.992188 306.238281 217.992188 C 307.585938 217.992188 308.679688 219.085938 308.679688 220.433594 C 308.679688 221.78125 307.585938 222.878906 306.238281 222.878906 C 304.890625 222.875 303.796875 221.78125 303.796875 220.433594 Z M 306.238281 222.292969 C 307.261719 222.292969 308.09375 221.460938 308.09375 220.433594 C 308.09375 219.410156 307.265625 218.582031 306.238281 218.582031 C 305.214844 218.578125 304.382812 219.40625 304.382812 220.429688 L 304.382812 220.433594 C 304.382812 221.460938 305.210938 222.292969 306.234375 222.292969 C 306.234375 222.292969 306.238281 222.292969 306.238281 222.292969 Z M 305.90625 221.507812 L 305.40625 221.507812 L 305.40625 219.363281 L 306.3125 219.363281 C 306.503906 219.363281 306.695312 219.363281 306.863281 219.46875 C 307.035156 219.585938 307.132812 219.792969 307.132812 220.007812 C 307.132812 220.25 306.992188 220.472656 306.761719 220.5625 L 307.15625 221.507812 L 306.601562 221.507812 L 306.273438 220.660156 L 305.910156 220.660156 L 305.910156 221.507812 Z M 305.90625 220.289062 L 306.183594 220.289062 C 306.289062 220.289062 306.398438 220.300781 306.492188 220.25 C 306.574219 220.195312 306.613281 220.097656 306.613281 220.003906 C 306.613281 219.921875 306.566406 219.824219 306.492188 219.785156 C 306.40625 219.730469 306.269531 219.742188 306.175781 219.742188 L 305.90625 219.742188 Z M 119.125 186.570312 C 118.265625 186.472656 117.886719 186.445312 117.292969 186.445312 C 112.644531 186.445312 110.289062 188.042969 110.289062 191.191406 C 110.289062 193.132812 111.4375 194.367188 113.230469 194.367188 C 116.574219 194.367188 118.984375 191.183594 119.125 186.570312 Z M 125.09375 200.46875 L 118.292969 200.46875 L 118.449219 197.234375 C 116.375 199.789062 113.609375 201.003906 109.847656 201.003906 C 105.402344 201.003906 102.351562 197.53125 102.351562 192.484375 C 102.351562 184.894531 107.65625 180.464844 116.761719 180.464844 C 117.691406 180.464844 118.882812 180.550781 120.105469 180.707031 C 120.359375 179.675781 120.425781 179.238281 120.425781 178.683594 C 120.425781 176.617188 118.996094 175.847656 115.164062 175.847656 C 111.148438 175.800781 107.835938 176.800781 106.476562 177.25 C 106.5625 176.730469 107.613281 170.234375 107.613281 170.234375 C 111.703125 169.035156 114.402344 168.585938 117.4375 168.585938 C 124.484375 168.585938 128.214844 171.75 128.210938 177.730469 C 128.222656 179.332031 127.957031 181.308594 127.542969 183.90625 C 126.832031 188.425781 125.304688 198.109375 125.09375 200.46875 Z M 98.917969 200.46875 L 90.707031 200.46875 L 95.410156 170.988281 L 84.914062 200.46875 L 79.320312 200.46875 L 78.628906 171.15625 L 73.6875 200.46875 L 66.003906 200.46875 L 72.421875 162.121094 L 84.222656 162.121094 L 84.9375 183.585938 L 92.136719 162.121094 L 105.261719 162.121094 L 98.917969 200.46875 M 248.417969 186.570312 C 247.558594 186.472656 247.179688 186.445312 246.589844 186.445312 C 241.9375 186.445312 239.582031 188.042969 239.582031 191.191406 C 239.582031 193.132812 240.730469 194.367188 242.523438 194.367188 C 245.867188 194.367188 248.277344 191.183594 248.417969 186.570312 Z M 254.390625 200.46875 L 247.589844 200.46875 L 247.746094 197.234375 C 245.671875 199.789062 242.902344 201.003906 239.144531 201.003906 C 234.695312 201.003906 231.648438 197.53125 231.648438 192.484375 C 231.648438 184.894531 236.949219 180.464844 246.058594 180.464844 C 246.988281 180.464844 248.179688 180.550781 249.398438 180.707031 C 249.652344 179.675781 249.71875 179.238281 249.71875 178.683594 C 249.71875 176.617188 248.292969 175.847656 244.457031 175.847656 C 240.441406 175.800781 237.132812 176.800781 235.769531 177.25 C 235.855469 176.730469 236.910156 170.234375 236.910156 170.234375 C 241 169.035156 243.695312 168.585938 246.726562 168.585938 C 253.777344 168.585938 257.511719 171.75 257.503906 177.730469 C 257.515625 179.332031 257.253906 181.308594 256.839844 183.90625 C 256.128906 188.425781 254.597656 198.109375 254.390625 200.46875 Z M 161.574219 199.996094 C 159.328125 200.703125 157.574219 201.003906 155.675781 201.003906 C 151.480469 201.003906 149.191406 198.59375 149.191406 194.152344 C 149.132812 192.777344 149.792969 189.152344 150.316406 185.84375 C 150.789062 182.929688 153.875 164.5625 153.875 164.5625 L 162.03125 164.5625 L 161.078125 169.28125 L 166.007812 169.28125 L 164.894531 176.777344 L 159.949219 176.777344 C 159 182.707031 157.652344 190.09375 157.636719 191.074219 C 157.636719 192.683594 158.492188 193.382812 160.445312 193.382812 C 161.378906 193.382812 162.105469 193.289062 162.660156 193.089844 L 161.574219 199.996094 M 186.585938 199.742188 C 183.78125 200.597656 181.078125 201.011719 178.214844 201.003906 C 169.082031 200.996094 164.320312 196.226562 164.320312 187.09375 C 164.320312 176.433594 170.375 168.585938 178.597656 168.585938 C 185.324219 168.585938 189.621094 172.980469 189.621094 179.871094 C 189.621094 182.15625 189.324219 184.390625 188.613281 187.539062 L 172.367188 187.539062 C 171.820312 192.066406 174.714844 193.949219 179.460938 193.949219 C 182.378906 193.949219 185.011719 193.347656 187.941406 191.984375 Z M 182 181.253906 C 182.046875 180.605469 182.867188 175.6875 178.203125 175.6875 C 175.605469 175.6875 173.746094 177.667969 172.992188 181.253906 Z M 130.023438 179.140625 C 130.023438 183.085938 131.933594 185.804688 136.273438 187.847656 C 139.59375 189.410156 140.109375 189.875 140.109375 191.289062 C 140.109375 193.234375 138.644531 194.109375 135.394531 194.109375 C 132.949219 194.109375 130.671875 193.730469 128.042969 192.882812 C 128.042969 192.882812 126.964844 199.753906 126.914062 200.082031 C 128.78125 200.488281 130.445312 200.867188 135.457031 201.003906 C 144.117188 201.003906 148.113281 197.707031 148.113281 190.582031 C 148.113281 186.296875 146.441406 183.78125 142.328125 181.890625 C 138.886719 180.3125 138.492188 179.960938 138.492188 178.503906 C 138.492188 176.816406 139.855469 175.957031 142.511719 175.957031 C 144.121094 175.957031 146.320312 176.128906 148.40625 176.425781 L 149.574219 169.191406 C 147.449219 168.855469 144.226562 168.585938 142.351562 168.585938 C 133.171875 168.585938 129.992188 173.382812 130.023438 179.140625 M 226.503906 169.40625 C 228.785156 169.40625 230.910156 170.003906 233.835938 171.476562 L 235.179688 163.15625 C 233.976562 162.683594 229.746094 159.910156 226.160156 159.910156 C 220.667969 159.910156 216.023438 162.636719 212.757812 167.132812 C 207.996094 165.554688 206.039062 168.746094 203.636719 171.921875 L 201.503906 172.417969 C 201.667969 171.371094 201.8125 170.332031 201.761719 169.28125 L 194.226562 169.28125 C 193.195312 178.933594 191.371094 188.710938 189.941406 198.375 L 189.570312 200.46875 L 197.78125 200.46875 C 199.152344 191.566406 199.902344 185.863281 200.359375 182.003906 L 203.453125 180.285156 C 203.914062 178.566406 205.359375 177.984375 208.257812 178.054688 C 207.871094 180.164062 207.675781 182.304688 207.675781 184.449219 C 207.675781 194.652344 213.183594 201.003906 222.015625 201.003906 C 224.292969 201.003906 226.246094 200.707031 229.269531 199.886719 L 230.714844 191.144531 C 227.996094 192.484375 225.761719 193.113281 223.738281 193.113281 C 218.96875 193.113281 216.082031 189.589844 216.082031 183.769531 C 216.082031 175.324219 220.375 169.40625 226.503906 169.40625 " fill-opacity="1" fill-rule="nonzero"/><path fill="#ffffff" d="M 101.277344 198.191406 L 93.066406 198.191406 L 97.773438 168.714844 L 87.273438 198.191406 L 81.679688 198.191406 L 80.988281 168.882812 L 76.046875 198.191406 L 68.363281 198.191406 L 74.78125 159.847656 L 86.582031 159.847656 L 86.914062 183.585938 L 94.875 159.847656 L 107.625 159.847656 L 101.277344 198.191406 " fill-opacity="1" fill-rule="nonzero"/><path fill="#000000" d="M 295.980469 162.121094 L 294.160156 173.203125 C 291.917969 170.25 289.503906 168.109375 286.324219 168.109375 C 282.179688 168.109375 278.410156 171.25 275.945312 175.871094 C 272.507812 175.160156 268.953125 173.949219 268.953125 173.949219 L 268.953125 173.976562 C 269.230469 171.394531 269.339844 169.820312 269.316406 169.285156 L 261.777344 169.285156 C 260.75 178.933594 258.925781 188.710938 257.5 198.375 L 257.125 200.46875 L 265.332031 200.46875 C 266.441406 193.269531 267.292969 187.292969 267.914062 182.550781 C 270.71875 180.015625 272.125 177.804688 274.957031 177.953125 C 273.703125 180.988281 272.96875 184.480469 272.96875 188.066406 C 272.96875 195.863281 276.914062 201.007812 282.878906 201.007812 C 285.886719 201.007812 288.195312 199.96875 290.445312 197.566406 L 290.0625 200.464844 L 297.824219 200.464844 L 304.074219 162.121094 Z M 285.714844 193.261719 C 282.921875 193.261719 281.511719 191.195312 281.511719 187.117188 C 281.511719 180.988281 284.152344 176.640625 287.875 176.640625 C 290.695312 176.640625 292.222656 178.789062 292.222656 182.75 C 292.222656 188.933594 289.539062 193.261719 285.714844 193.261719 Z M 285.714844 193.261719 " fill-opacity="1" fill-rule="nonzero"/><path fill="#ffffff" d="M 121.484375 184.300781 C 120.625 184.199219 120.242188 184.171875 119.652344 184.171875 C 115 184.171875 112.648438 185.769531 112.648438 188.917969 C 112.648438 190.859375 113.796875 192.097656 115.585938 192.097656 C 118.933594 192.097656 121.34375 188.914062 121.484375 184.300781 Z M 127.453125 198.191406 L 120.65625 198.191406 L 120.808594 194.964844 C 118.738281 197.515625 115.964844 198.734375 112.210938 198.734375 C 107.757812 198.734375 104.710938 195.257812 104.710938 190.214844 C 104.710938 182.621094 110.015625 178.191406 119.121094 178.191406 C 120.050781 178.191406 121.246094 178.277344 122.464844 178.433594 C 122.71875 177.40625 122.785156 176.964844 122.785156 176.410156 C 122.785156 174.34375 121.355469 173.574219 117.523438 173.574219 C 113.507812 173.527344 110.195312 174.53125 108.835938 174.972656 C 108.921875 174.457031 109.972656 167.964844 109.972656 167.964844 C 114.0625 166.761719 116.761719 166.3125 119.792969 166.3125 C 126.84375 166.3125 130.578125 169.476562 130.570312 175.453125 C 130.582031 177.0625 130.316406 179.039062 129.902344 181.632812 C 129.191406 186.148438 127.664062 195.835938 127.453125 198.191406 Z M 237.535156 160.878906 L 236.191406 169.207031 C 233.265625 167.734375 231.136719 167.132812 228.859375 167.132812 C 222.734375 167.132812 218.4375 173.054688 218.4375 181.496094 C 218.4375 187.316406 221.324219 190.839844 226.09375 190.839844 C 228.117188 190.839844 230.347656 190.210938 233.066406 188.871094 L 231.625 197.609375 C 228.601562 198.433594 226.648438 198.734375 224.371094 198.734375 C 215.539062 198.734375 210.03125 192.378906 210.03125 182.179688 C 210.03125 168.46875 217.636719 158.886719 228.515625 158.886719 C 232.097656 158.890625 236.332031 160.410156 237.535156 160.878906 M 250.777344 184.300781 C 249.917969 184.199219 249.539062 184.171875 248.949219 184.171875 C 244.296875 184.171875 241.941406 185.769531 241.941406 188.917969 C 241.941406 190.859375 243.089844 192.097656 244.882812 192.097656 C 248.226562 192.097656 250.636719 188.914062 250.777344 184.300781 Z M 256.75 198.191406 L 249.949219 198.191406 L 250.105469 194.964844 C 248.03125 197.515625 245.261719 198.734375 241.503906 198.734375 C 237.054688 198.734375 234.003906 195.257812 234.003906 190.214844 C 234.003906 182.621094 239.308594 178.191406 248.414062 178.191406 C 249.347656 178.191406 250.539062 178.277344 251.757812 178.433594 C 252.011719 177.40625 252.078125 176.964844 252.078125 176.410156 C 252.078125 174.34375 250.652344 173.574219 246.816406 173.574219 C 242.800781 173.527344 239.492188 174.53125 238.128906 174.972656 C 238.214844 174.457031 239.269531 167.964844 239.269531 167.964844 C 243.355469 166.761719 246.054688 166.3125 249.085938 166.3125 C 256.136719 166.3125 259.871094 169.476562 259.863281 175.453125 C 259.875 177.0625 259.613281 179.039062 259.195312 181.632812 C 258.488281 186.148438 256.953125 195.835938 256.75 198.191406 Z M 163.929688 197.71875 C 161.683594 198.425781 159.933594 198.734375 158.035156 198.734375 C 153.839844 198.734375 151.550781 196.320312 151.550781 191.882812 C 151.492188 190.5 152.15625 186.878906 152.675781 183.570312 C 153.148438 180.652344 156.234375 162.289062 156.234375 162.289062 L 164.390625 162.289062 L 163.4375 167.011719 L 167.625 167.011719 L 166.511719 174.5 L 162.308594 174.5 C 161.363281 180.4375 160.007812 187.816406 159.996094 188.800781 C 159.996094 190.414062 160.855469 191.109375 162.804688 191.109375 C 163.738281 191.109375 164.464844 191.015625 165.019531 190.816406 L 163.929688 197.71875 M 188.945312 197.46875 C 186.144531 198.324219 183.4375 198.738281 180.570312 198.734375 C 171.441406 198.722656 166.679688 193.953125 166.679688 184.820312 C 166.679688 174.15625 172.734375 166.3125 180.957031 166.3125 C 187.683594 166.3125 191.976562 170.703125 191.976562 177.597656 C 191.976562 179.886719 191.683594 182.117188 190.976562 185.269531 L 174.730469 185.269531 C 174.179688 189.792969 177.074219 191.679688 181.820312 191.679688 C 184.738281 191.679688 187.375 191.074219 190.300781 189.710938 Z M 184.359375 178.976562 C 184.40625 178.328125 185.226562 173.410156 180.5625 173.410156 C 177.964844 173.410156 176.105469 175.394531 175.351562 178.976562 Z M 132.378906 176.867188 C 132.378906 180.8125 134.292969 183.53125 138.628906 185.574219 C 141.953125 187.136719 142.46875 187.601562 142.46875 189.015625 C 142.46875 190.960938 141 191.839844 137.753906 191.839844 C 135.304688 191.839844 133.027344 191.457031 130.398438 190.609375 C 130.398438 190.609375 129.324219 197.480469 129.273438 197.8125 C 131.136719 198.21875 132.800781 198.589844 137.8125 198.734375 C 146.476562 198.734375 150.472656 195.4375 150.472656 188.3125 C 150.472656 184.023438 148.800781 181.511719 144.6875 179.621094 C 141.246094 178.039062 140.847656 177.691406 140.847656 176.230469 C 140.847656 174.546875 142.214844 173.679688 144.867188 173.679688 C 146.476562 173.679688 148.675781 173.855469 150.765625 174.152344 L 151.933594 166.917969 C 149.808594 166.582031 146.585938 166.3125 144.710938 166.3125 C 135.527344 166.3125 132.351562 171.105469 132.378906 176.867188 M 300.1875 198.191406 L 292.421875 198.191406 L 292.808594 195.289062 C 290.558594 197.695312 288.25 198.734375 285.242188 198.734375 C 279.273438 198.734375 275.332031 193.589844 275.332031 185.792969 C 275.332031 175.421875 281.449219 166.675781 288.6875 166.675781 C 291.871094 166.675781 294.28125 167.976562 296.523438 170.929688 L 298.34375 159.847656 L 306.4375 159.847656 Z M 288.082031 190.984375 C 291.902344 190.984375 294.589844 186.65625 294.589844 180.476562 C 294.589844 176.515625 293.058594 174.367188 290.238281 174.367188 C 286.519531 174.367188 283.875 178.710938 283.875 184.84375 C 283.875 188.921875 285.289062 190.984375 288.082031 190.984375 Z M 264.140625 167.011719 C 263.113281 176.660156 261.289062 186.4375 259.863281 196.097656 L 259.488281 198.191406 L 267.695312 198.191406 C 270.632812 179.125 271.34375 175.398438 275.945312 175.867188 C 276.679688 171.964844 278.042969 168.546875 279.0625 166.820312 C 275.625 166.105469 273.703125 168.046875 271.191406 171.738281 C 271.390625 170.140625 271.753906 168.59375 271.679688 167.011719 L 264.140625 167.011719 M 196.582031 167.011719 C 195.550781 176.660156 193.726562 186.4375 192.296875 196.097656 L 191.925781 198.191406 L 200.136719 198.191406 C 203.070312 179.125 203.777344 175.398438 208.378906 175.867188 C 209.117188 171.964844 210.480469 168.546875 211.496094 166.820312 C 208.0625 166.105469 206.140625 168.046875 203.628906 171.738281 C 203.828125 170.140625 204.1875 168.59375 204.117188 167.011719 L 196.582031 167.011719 M 303.792969 195.75 C 303.792969 194.398438 304.886719 193.308594 306.234375 193.308594 C 307.582031 193.304688 308.671875 194.398438 308.675781 195.742188 L 308.675781 195.75 C 308.675781 197.097656 307.582031 198.191406 306.234375 198.191406 C 304.886719 198.191406 303.792969 197.097656 303.792969 195.75 Z M 306.234375 197.605469 C 307.257812 197.605469 308.089844 196.777344 308.089844 195.75 C 308.089844 194.726562 307.261719 193.894531 306.234375 193.894531 C 305.207031 193.894531 304.378906 194.726562 304.378906 195.75 C 304.378906 196.773438 305.210938 197.605469 306.234375 197.605469 Z M 305.902344 196.816406 L 305.402344 196.816406 L 305.402344 194.675781 L 306.3125 194.675781 C 306.5 194.675781 306.695312 194.679688 306.855469 194.785156 C 307.03125 194.902344 307.132812 195.105469 307.132812 195.320312 C 307.132812 195.5625 306.988281 195.789062 306.757812 195.875 L 307.15625 196.816406 L 306.597656 196.816406 L 306.269531 195.96875 L 305.902344 195.96875 Z M 305.902344 195.605469 L 306.179688 195.605469 C 306.28125 195.605469 306.394531 195.613281 306.488281 195.5625 C 306.570312 195.511719 306.609375 195.410156 306.609375 195.316406 C 306.605469 195.226562 306.5625 195.144531 306.488281 195.09375 C 306.402344 195.046875 306.261719 195.058594 306.167969 195.058594 L 305.902344 195.058594 Z M 305.902344 195.605469 " fill-opacity="1" fill-rule="nonzero"/></svg>