<svg xmlns="http://www.w3.org/2000/svg" xmlns:xlink="http://www.w3.org/1999/xlink" width="500" zoomAndPan="magnify" viewBox="0 0 375 374.999991" height="500" preserveAspectRatio="xMidYMid meet" version="1.0"><defs><clipPath id="a541048dc5"><path d="M 75 126 L 300 126 L 300 263.242188 L 75 263.242188 Z M 75 126 " clip-rule="nonzero"/></clipPath></defs><g clip-path="url(#a541048dc5)"><path fill="#ffffff" d="M 241.933594 202.847656 C 237.859375 199.046875 232.394531 196.722656 226.382812 196.722656 C 213.785156 196.722656 203.570312 206.933594 203.570312 219.535156 C 203.570312 232.132812 213.785156 242.34375 226.382812 242.34375 C 232.394531 242.34375 237.859375 240.019531 241.933594 236.21875 C 246.011719 240.019531 251.476562 242.34375 257.488281 242.34375 C 270.085938 242.34375 280.300781 232.132812 280.300781 219.535156 C 280.300781 206.933594 270.085938 196.722656 257.488281 196.722656 C 251.476562 196.722656 246.011719 199.046875 241.933594 202.847656 Z M 300 155.246094 L 75 155.246094 L 75 152.136719 C 75 137.820312 86.605469 126.214844 100.921875 126.214844 L 274.078125 126.214844 C 288.394531 126.214844 300 137.820312 300 152.136719 Z M 300 171.835938 L 300 237.160156 C 300 251.476562 288.394531 263.082031 274.078125 263.082031 L 100.921875 263.082031 C 86.605469 263.082031 75 251.476562 75 237.160156 L 75 171.835938 Z M 300 171.835938 " fill-opacity="1" fill-rule="nonzero"/></g></svg>