<svg xmlns="http://www.w3.org/2000/svg" xmlns:xlink="http://www.w3.org/1999/xlink" width="500" zoomAndPan="magnify" viewBox="0 0 375 374.999991" height="500" preserveAspectRatio="xMidYMid meet" version="1.0"><defs><clipPath id="ea47fd076e"><path d="M 96.03125 101.707031 L 264 101.707031 L 264 286.957031 L 96.03125 286.957031 Z M 96.03125 101.707031 " clip-rule="nonzero"/></clipPath></defs><g clip-path="url(#ea47fd076e)"><path fill="#ffffff" d="M 187.09375 141.582031 L 148.171875 141.582031 L 131.453125 222.367188 L 152.136719 222.367188 L 157.992188 203.417969 L 187.09375 203.417969 C 201.246094 203.417969 212.777344 190.558594 212.777344 174.804688 L 212.777344 169.085938 C 212.777344 153.273438 201.246094 141.582031 187.09375 141.582031 Z M 253.34375 119.003906 L 224.304688 269.558594 C 224.152344 270.238281 223.945312 270.902344 223.683594 271.550781 C 223.421875 272.195312 223.113281 272.816406 222.75 273.414062 C 222.386719 274.011719 221.980469 274.574219 221.527344 275.101562 C 221.070312 275.632812 220.578125 276.125 220.042969 276.574219 C 219.511719 277.023438 218.945312 277.425781 218.347656 277.785156 C 217.746094 278.140625 217.121094 278.449219 216.472656 278.703125 C 215.824219 278.960938 215.160156 279.164062 214.476562 279.3125 C 213.796875 279.457031 213.105469 279.550781 212.410156 279.585938 L 114.738281 279.585938 C 114.429688 279.59375 114.117188 279.585938 113.808594 279.558594 C 113.5 279.53125 113.195312 279.488281 112.890625 279.425781 C 112.585938 279.363281 112.285156 279.28125 111.992188 279.183594 C 111.695312 279.089844 111.40625 278.972656 111.125 278.84375 C 110.84375 278.714844 110.570312 278.566406 110.304688 278.40625 C 110.042969 278.242188 109.785156 278.066406 109.542969 277.875 C 109.296875 277.683594 109.066406 277.480469 108.84375 277.261719 C 108.625 277.042969 108.414062 276.8125 108.222656 276.570312 C 108.027344 276.328125 107.847656 276.078125 107.683594 275.816406 C 107.515625 275.550781 107.367188 275.28125 107.234375 275 C 107.097656 274.71875 106.980469 274.433594 106.882812 274.140625 C 106.78125 273.847656 106.695312 273.546875 106.628906 273.246094 C 106.5625 272.941406 106.515625 272.636719 106.484375 272.328125 C 106.453125 272.019531 106.441406 271.707031 106.445312 271.398438 C 106.449219 271.085938 106.472656 270.777344 106.511719 270.472656 C 106.554688 270.164062 106.609375 269.859375 106.6875 269.558594 L 135.726562 119.003906 C 135.875 118.320312 136.082031 117.65625 136.339844 117.007812 C 136.597656 116.359375 136.910156 115.734375 137.269531 115.136719 C 137.632812 114.539062 138.039062 113.976562 138.492188 113.445312 C 138.945312 112.914062 139.441406 112.421875 139.976562 111.972656 C 140.507812 111.523438 141.074219 111.121094 141.675781 110.761719 C 142.277344 110.40625 142.902344 110.097656 143.550781 109.84375 C 144.199219 109.589844 144.867188 109.386719 145.550781 109.242188 C 146.234375 109.097656 146.921875 109.007812 147.621094 108.972656 L 245.292969 108.972656 C 245.601562 108.964844 245.914062 108.972656 246.222656 108.996094 C 246.53125 109.023438 246.839844 109.066406 247.144531 109.128906 C 247.449219 109.191406 247.75 109.269531 248.042969 109.367188 C 248.339844 109.464844 248.628906 109.578125 248.910156 109.707031 C 249.191406 109.835938 249.464844 109.980469 249.730469 110.144531 C 249.996094 110.304688 250.253906 110.480469 250.496094 110.671875 C 250.742188 110.863281 250.976562 111.070312 251.195312 111.289062 C 251.417969 111.503906 251.625 111.734375 251.820312 111.976562 C 252.015625 112.21875 252.195312 112.472656 252.359375 112.738281 C 252.527344 113 252.675781 113.273438 252.808594 113.550781 C 252.941406 113.832031 253.058594 114.121094 253.160156 114.414062 C 253.261719 114.707031 253.34375 115.007812 253.410156 115.3125 C 253.476562 115.613281 253.523438 115.921875 253.554688 116.230469 C 253.585938 116.539062 253.597656 116.847656 253.59375 117.160156 C 253.585938 117.472656 253.5625 117.78125 253.523438 118.089844 C 253.480469 118.394531 253.421875 118.699219 253.34375 119.003906 Z M 253.648438 101.773438 L 142.070312 101.773438 C 141.269531 101.808594 140.476562 101.910156 139.695312 102.078125 C 138.910156 102.242188 138.148438 102.472656 137.402344 102.761719 C 136.65625 103.054688 135.941406 103.40625 135.253906 103.816406 C 134.566406 104.226562 133.914062 104.6875 133.304688 105.207031 C 132.691406 105.722656 132.128906 106.285156 131.609375 106.894531 C 131.089844 107.507812 130.625 108.15625 130.214844 108.839844 C 129.804688 109.527344 129.449219 110.242188 129.15625 110.988281 C 128.863281 111.734375 128.632812 112.496094 128.464844 113.28125 L 97.230469 275.28125 C 97.140625 275.621094 97.070312 275.96875 97.019531 276.320312 C 96.972656 276.671875 96.941406 277.023438 96.933594 277.378906 C 96.925781 277.734375 96.9375 278.089844 96.96875 278.441406 C 97.003906 278.792969 97.054688 279.144531 97.128906 279.492188 C 97.203125 279.839844 97.296875 280.179688 97.410156 280.515625 C 97.523438 280.851562 97.65625 281.179688 97.804688 281.5 C 97.957031 281.824219 98.128906 282.132812 98.316406 282.433594 C 98.503906 282.734375 98.707031 283.023438 98.929688 283.300781 C 99.152344 283.578125 99.386719 283.839844 99.640625 284.089844 C 99.890625 284.339844 100.160156 284.574219 100.4375 284.792969 C 100.71875 285.011719 101.007812 285.210938 101.3125 285.398438 C 101.613281 285.582031 101.925781 285.746094 102.25 285.894531 C 102.570312 286.042969 102.902344 286.171875 103.238281 286.28125 C 103.578125 286.390625 103.917969 286.480469 104.265625 286.550781 C 104.613281 286.621094 104.964844 286.671875 105.320312 286.699219 C 105.671875 286.726562 106.027344 286.734375 106.382812 286.722656 L 217.960938 286.722656 C 218.757812 286.691406 219.550781 286.59375 220.332031 286.429688 C 221.113281 286.269531 221.878906 286.042969 222.625 285.753906 C 223.367188 285.464844 224.085938 285.117188 224.773438 284.710938 C 225.460938 284.304688 226.109375 283.84375 226.722656 283.328125 C 227.332031 282.8125 227.898438 282.253906 228.417969 281.644531 C 228.933594 281.039062 229.402344 280.390625 229.8125 279.707031 C 230.226562 279.023438 230.578125 278.308594 230.871094 277.566406 C 231.167969 276.824219 231.398438 276.0625 231.566406 275.28125 L 262.800781 113.28125 C 262.890625 112.9375 262.960938 112.589844 263.011719 112.234375 C 263.0625 111.882812 263.089844 111.53125 263.097656 111.175781 C 263.109375 110.820312 263.097656 110.464844 263.0625 110.109375 C 263.03125 109.757812 262.976562 109.40625 262.90625 109.058594 C 262.832031 108.710938 262.738281 108.367188 262.625 108.03125 C 262.511719 107.691406 262.378906 107.363281 262.230469 107.042969 C 262.078125 106.71875 261.910156 106.40625 261.71875 106.105469 C 261.53125 105.804688 261.328125 105.511719 261.105469 105.234375 C 260.886719 104.957031 260.648438 104.691406 260.398438 104.441406 C 260.144531 104.191406 259.878906 103.957031 259.601562 103.734375 C 259.320312 103.515625 259.027344 103.3125 258.726562 103.125 C 258.421875 102.941406 258.109375 102.773438 257.789062 102.625 C 257.464844 102.472656 257.136719 102.34375 256.796875 102.230469 C 256.460938 102.121094 256.117188 102.027344 255.769531 101.957031 C 255.421875 101.886719 255.070312 101.835938 254.714844 101.804688 C 254.359375 101.773438 254.003906 101.765625 253.648438 101.773438 Z M 219.792969 165.453125 C 219.792969 170.253906 219.488281 174.683594 219.488281 178.746094 C 219.488281 198.925781 211.3125 210.859375 193.132812 210.859375 L 166.351562 210.859375 L 156.589844 241.746094 L 173.0625 241.746094 L 178.917969 222.734375 L 205.636719 222.734375 C 219.851562 222.734375 231.320312 211.90625 231.320312 196.21875 L 231.320312 190.496094 C 231.320312 179.667969 227.90625 170.191406 219.792969 165.453125 Z M 188.679688 173.882812 C 188.679688 180.40625 183.25 185.695312 180.078125 185.695312 L 161.835938 185.757812 L 167.019531 159.734375 L 180.078125 159.734375 C 183.25 159.734375 188.679688 165.023438 188.679688 171.546875 Z M 188.679688 173.882812 " fill-opacity="1" fill-rule="evenodd"/></g></svg>