<svg xmlns="http://www.w3.org/2000/svg" xmlns:xlink="http://www.w3.org/1999/xlink" width="500" zoomAndPan="magnify" viewBox="0 0 375 374.999991" height="500" preserveAspectRatio="xMidYMid meet" version="1.0"><path fill="#ffffff" d="M 125.933594 241.402344 L 94.40625 209.875 C 82.101562 197.570312 82.101562 177.425781 94.40625 165.121094 L 125.625 133.902344 L 168.3125 176.589844 C 171.390625 179.671875 172.929688 183.734375 172.929688 187.808594 C 172.929688 191.882812 171.390625 195.949219 168.3125 199.027344 Z M 224.316406 250.953125 L 202.277344 272.992188 C 189.972656 285.300781 169.828125 285.300781 157.523438 272.992188 L 135.792969 251.261719 L 178.171875 208.886719 C 178.878906 208.179688 179.542969 207.445312 180.160156 206.6875 C 180.632812 207.222656 181.117188 207.75 181.628906 208.261719 Z M 202.277344 102.003906 L 224.003906 123.734375 L 181.628906 166.109375 C 180.921875 166.816406 180.257812 167.550781 179.640625 168.3125 C 179.167969 167.769531 178.683594 167.242188 178.171875 166.730469 L 135.484375 124.042969 L 157.523438 102.003906 C 169.828125 89.699219 189.972656 89.699219 202.277344 102.003906 Z M 233.863281 133.59375 L 265.394531 165.121094 C 277.699219 177.425781 277.699219 197.570312 265.394531 209.875 L 234.175781 241.09375 L 191.488281 198.402344 C 188.410156 195.328125 186.871094 191.257812 186.871094 187.183594 C 186.871094 183.113281 188.410156 179.046875 191.488281 175.96875 Z M 233.863281 133.59375 " fill-opacity="1" fill-rule="evenodd"/></svg>