<svg xmlns="http://www.w3.org/2000/svg" xmlns:xlink="http://www.w3.org/1999/xlink" width="1080" zoomAndPan="magnify" viewBox="0 0 810 809.999993" height="1080" preserveAspectRatio="xMidYMid meet" version="1.0"><path fill="#00bf63" d="M 132.339844 41.390625 L 487.796875 41.390625 C 500.761719 41.390625 510.65625 51.378906 510.65625 64.238281 L 510.65625 95.285156 L 109.492188 95.285156 L 109.492188 64.238281 C 109.492188 51.378906 119.402344 41.390625 132.339844 41.390625 Z M 132.339844 13.1875 C 104.316406 13.1875 81.277344 36.203125 81.277344 64.238281 L 81.277344 685.480469 C 81.277344 713.53125 104.304688 736.539062 132.339844 736.539062 L 449.703125 736.539062 C 457.632812 736.75 464.160156 730.378906 464.160156 722.449219 C 464.160156 714.515625 457.632812 708.136719 449.703125 708.347656 L 132.339844 708.347656 C 119.394531 708.347656 109.480469 698.394531 109.480469 685.480469 L 109.480469 651.136719 L 333.351562 651.136719 C 352.167969 651.136719 352.167969 622.882812 333.351562 622.882812 L 109.492188 622.882812 L 109.492188 123.527344 L 510.664062 123.527344 L 510.664062 286.691406 C 510.464844 294.625 516.84375 301.152344 524.777344 301.152344 C 532.707031 301.152344 539.085938 294.625 538.867188 286.691406 L 538.867188 64.238281 C 538.867188 36.203125 515.851562 13.1875 487.804688 13.1875 Z M 132.339844 13.1875 " fill-opacity="1" fill-rule="evenodd"/><path fill="#00bf63" d="M 259.132812 226.367188 C 251.417969 226.882812 245.546875 230.199219 239.597656 234.296875 C 227.664062 242.4375 215.375 255.347656 203.09375 270.742188 C 178.644531 301.53125 154.949219 340.539062 150.382812 372.785156 C 147.078125 396.21875 159.089844 413.585938 171.21875 420.480469 C 183.3125 427.308594 195.382812 427.269531 195.382812 427.269531 C 213.574219 427.636719 214.101562 399.433594 195.851562 399.085938 C 195.851562 399.085938 189.472656 398.65625 184.40625 395.761719 C 179.3125 392.90625 175.488281 391.035156 177.507812 376.851562 C 180.304688 356.832031 201.921875 316.714844 224.3125 288.574219 C 229.535156 281.925781 234.828125 275.816406 239.914062 270.800781 C 255.042969 255.824219 256.960938 258.976562 258.046875 272.980469 C 258.296875 276.542969 257.835938 280.652344 257.269531 285.308594 C 255.25 301.011719 250.890625 319.484375 246.285156 337.246094 C 241.714844 354.96875 236.949219 371.917969 234.042969 385.820312 C 232.601562 392.695312 231.765625 398.828125 231.398438 404.726562 C 230.890625 413.804688 234.5625 420.222656 240.261719 425.136719 C 246.175781 430.292969 255.558594 430.292969 262.613281 428.261719 C 269.710938 426.183594 275.621094 422.082031 281.375 417.007812 C 292.816406 406.808594 304.074219 391.722656 316.671875 372.433594 C 327.707031 356.671875 304.074219 340.25 294.03125 356.613281 C 284.796875 370.78125 277.859375 381.429688 270.644531 388.914062 C 263.492188 396.277344 260.445312 393.054688 262.304688 384.972656 C 264.953125 373.578125 268.933594 359.417969 272.824219 344.492188 C 277.492188 326.359375 282.058594 307.015625 284.328125 289 C 286.65625 270.890625 287.382812 253.953125 280.4375 239.183594 C 276.796875 231.453125 266.84375 225.851562 259.132812 226.367188 Z M 259.132812 226.367188 " fill-opacity="1" fill-rule="nonzero"/><path fill="#00bf63" d="M 730.632812 666.9375 L 740.644531 683.109375 C 747.171875 699.996094 735.867188 706.167969 724.980469 714.207031 C 690.578125 733.585938 659.011719 753.757812 627.386719 769.660156 C 612.828125 776.457031 600.269531 776.875 594.109375 767.945312 L 583.480469 751.875 Z M 523.253906 427.578125 L 546.273438 467.382812 C 552.761719 478.636719 548.140625 495.882812 531.503906 507.925781 L 474.242188 450.496094 C 476.421875 449.777344 478.601562 449.140625 480.8125 448.164062 Z M 545.855469 341.027344 C 551.546875 341.964844 556.523438 345.84375 560.679688 353.40625 L 635.257812 473.351562 C 644.394531 490.507812 664.394531 481.394531 654.074219 464.855469 L 623.136719 411.246094 C 640.453125 420.363281 659.835938 431 672.894531 439.546875 C 686.695312 448.5625 692.855469 459.390625 694.878906 478.160156 L 703.523438 557.621094 C 706.132812 581.148438 704.261719 614.375 717.167969 642.160156 L 568.34375 728.042969 C 558.351562 712.585938 547.933594 702.535156 533.78125 691.597656 L 404.613281 591.777344 C 396.742188 585.714844 394.09375 572.289062 394.929688 554.824219 L 399.597656 506.261719 L 395.707031 466.972656 C 394.808594 457.957031 407.410156 453.816406 413.996094 460.695312 C 421.152344 468.207031 440.648438 485.324219 440.058594 517.410156 C 440.019531 522.632812 444.058594 525.699219 447.175781 528.851562 L 576.425781 658.628906 C 610.5 692.792969 663.25 640.089844 629.199219 605.917969 L 551.355469 527.867188 C 573.996094 508.324219 583.640625 475.78125 570.671875 453.269531 L 541.34375 402.417969 C 537.714844 396.21875 529.992188 393.730469 523.402344 396.628906 L 469.445312 422.320312 C 453.027344 429.585938 448.917969 424.988281 445.773438 420.0625 C 442.65625 415.167969 444.320312 408.90625 445.144531 408.339844 L 527.75 347.078125 C 535.226562 341.625 540.160156 340.132812 545.855469 341.027344 Z M 511.082031 324.289062 L 428.457031 385.53125 C 424.566406 388.386719 421.609375 391.8125 419.5 395.601562 L 397.886719 373.929688 C 395.746094 371.75 392.949219 370.355469 389.953125 369.886719 L 347.132812 359.996094 C 338.265625 359.566406 331.269531 367.339844 332.511719 376.105469 L 341.378906 418.929688 C 341.789062 421.984375 343.25 424.78125 345.421875 426.960938 L 365.222656 446.761719 L 368.835938 509.535156 L 366.816406 553.480469 C 365.78125 574.113281 367.75 598.929688 387.347656 614.136719 L 516.515625 713.851562 C 531.601562 725.574219 538.320312 731.742188 547.964844 748.433594 L 562.640625 771.90625 C 572.902344 785.222656 585.867188 801.863281 604.097656 803.632812 C 621.007812 805.304688 636.34375 797.683594 653.757812 787.730469 L 725.867188 746.402344 C 743.28125 736.449219 757.472656 726.964844 764.894531 711.679688 C 772.300781 696.40625 769.195312 677.9375 758.675781 659.226562 L 743.589844 632.476562 C 733.429688 614.863281 734.761719 583.554688 731.617188 554.527344 L 722.949219 475.234375 C 720.214844 450.464844 708.699219 429.257812 688.328125 415.933594 C 657.847656 395.929688 607.003906 371.25 602.128906 368.914062 L 585.023438 339.265625 C 578.433594 327.800781 568.75 317.550781 551.1875 314.855469 C 533.574219 312.097656 522.011719 316.296875 511.082031 324.289062 Z M 511.082031 324.289062 " fill-opacity="1" fill-rule="nonzero"/></svg>