<svg xmlns="http://www.w3.org/2000/svg" xmlns:xlink="http://www.w3.org/1999/xlink" width="1080" zoomAndPan="magnify" viewBox="0 0 810 809.999993" height="1080" preserveAspectRatio="xMidYMid meet" version="1.0"><defs><clipPath id="2b6eac0d03"><path d="M 228 612 L 350 612 L 350 734.265625 L 228 734.265625 Z M 228 612 " clip-rule="nonzero"/></clipPath><clipPath id="22a11aeffc"><path d="M 518 612 L 641 612 L 641 734.265625 L 518 734.265625 Z M 518 612 " clip-rule="nonzero"/></clipPath><clipPath id="ccb6a9326a"><path d="M 513 68 L 801.75 68 L 801.75 357 L 513 357 Z M 513 68 " clip-rule="nonzero"/></clipPath></defs><path fill="#32b744" d="M 469.683594 251.90625 L 200.703125 251.90625 L 184.683594 170.101562 C 181.339844 154.933594 167.8125 143.117188 151.792969 143.117188 L 33.746094 143.117188 C 15.164062 143.117188 0 158.28125 0 176.863281 C 0 195.375 15.164062 210.539062 33.746094 210.539062 L 123.953125 210.539062 L 191.449219 550.433594 C 194.792969 568.089844 202.414062 584.109375 213.375 596.78125 C 232.742188 577.417969 258.871094 566.453125 288.417969 566.453125 C 334.765625 566.453125 374.425781 595.929688 389.589844 637.292969 L 477.304688 637.292969 C 492.46875 595.929688 532.125 566.453125 578.472656 566.453125 C 608.875 566.453125 636.640625 579.054688 656.078125 600.128906 C 667.898438 586.671875 676.296875 570.652344 679.644531 552.925781 L 714.246094 396.078125 C 695.664062 401.988281 676.296875 404.550781 656.078125 404.550781 C 565.019531 404.550781 488.269531 338.765625 469.683594 251.90625 " fill-opacity="1" fill-rule="nonzero"/><g clip-path="url(#2b6eac0d03)"><path fill="#32b744" d="M 349.933594 673.53125 C 349.933594 707.066406 322.804688 734.265625 289.273438 734.265625 C 255.738281 734.265625 228.542969 707.066406 228.542969 673.53125 C 228.542969 640 255.738281 612.800781 289.273438 612.800781 C 322.804688 612.800781 349.933594 640 349.933594 673.53125 " fill-opacity="1" fill-rule="nonzero"/></g><g clip-path="url(#22a11aeffc)"><path fill="#32b744" d="M 640.058594 673.53125 C 640.058594 707.066406 612.863281 734.265625 579.328125 734.265625 C 545.792969 734.265625 518.597656 707.066406 518.597656 673.53125 C 518.597656 640 545.792969 612.800781 579.328125 612.800781 C 612.863281 612.800781 640.058594 640 640.058594 673.53125 " fill-opacity="1" fill-rule="nonzero"/></g><g clip-path="url(#ccb6a9326a)"><path fill="#32b744" d="M 724.355469 194.519531 L 660.277344 262.871094 C 656.078125 267.925781 649.316406 270.417969 643.40625 270.417969 C 636.640625 270.417969 630.734375 267.925781 626.601562 262.871094 L 592 225.777344 C 582.675781 216.449219 583.527344 201.285156 592.855469 192.027344 C 602.113281 182.703125 617.277344 183.554688 626.601562 192.882812 L 644.261719 211.394531 L 691.535156 161.699219 C 700.789062 152.371094 715.101562 151.519531 725.210938 160.84375 C 732.828125 170.101562 732.828125 185.265625 724.355469 194.519531 Z M 657.789062 68.074219 C 577.691406 68.074219 513.542969 133.007812 513.542969 212.25 C 513.542969 291.5625 578.472656 356.492188 657.789062 356.492188 C 737.03125 356.492188 801.960938 291.5625 801.960938 212.25 C 801.960938 133.007812 737.03125 68.074219 657.789062 68.074219 " fill-opacity="1" fill-rule="nonzero"/></g></svg>