<svg xmlns="http://www.w3.org/2000/svg" xmlns:xlink="http://www.w3.org/1999/xlink" width="1080" zoomAndPan="magnify" viewBox="0 0 810 809.999993" height="1080" preserveAspectRatio="xMidYMid meet" version="1.0"><defs><clipPath id="f03dcbb22f"><path d="M 311 127.277344 L 499 127.277344 L 499 318 L 311 318 Z M 311 127.277344 " clip-rule="nonzero"/></clipPath><clipPath id="89b0caa5e8"><path d="M 514 127.277344 L 734 127.277344 L 734 318 L 514 318 Z M 514 127.277344 " clip-rule="nonzero"/></clipPath><clipPath id="e7c73c4472"><path d="M 292 348 L 518 348 L 518 728.777344 L 292 728.777344 Z M 292 348 " clip-rule="nonzero"/></clipPath><clipPath id="49b536db40"><path d="M 76 127.277344 L 296 127.277344 L 296 318 L 76 318 Z M 76 127.277344 " clip-rule="nonzero"/></clipPath></defs><g clip-path="url(#f03dcbb22f)"><path fill="#00bf63" d="M 482.8125 127.277344 L 327.203125 127.277344 L 311.367188 317.292969 L 498.648438 317.292969 Z M 482.8125 127.277344 " fill-opacity="1" fill-rule="nonzero"/></g><g clip-path="url(#89b0caa5e8)"><path fill="#00bf63" d="M 673.367188 138.105469 C 671.214844 131.628906 665.179688 127.277344 658.355469 127.277344 L 514.578125 127.277344 L 530.410156 317.292969 L 733.113281 317.292969 Z M 673.367188 138.105469 " fill-opacity="1" fill-rule="nonzero"/></g><g clip-path="url(#e7c73c4472)"><path fill="#00bf63" d="M 517.109375 538.980469 L 501.277344 348.960938 L 308.722656 348.960938 L 292.890625 538.980469 L 389.164062 538.980469 L 389.164062 697.328125 L 309.992188 697.328125 C 301.25 697.328125 294.15625 704.40625 294.15625 713.164062 C 294.15625 721.921875 301.25 729 309.992188 729 L 500.007812 729 C 508.765625 729 515.84375 721.921875 515.84375 713.164062 C 515.84375 704.40625 508.765625 697.328125 500.007812 697.328125 L 420.835938 697.328125 L 420.835938 538.980469 Z M 517.109375 538.980469 " fill-opacity="1" fill-rule="nonzero"/></g><path fill="#00bf63" d="M 9.9375 518.140625 C 8.320312 522.972656 9.144531 528.292969 12.121094 532.410156 C 15.097656 536.527344 19.882812 538.980469 24.964844 538.980469 L 261.109375 538.980469 L 276.945312 348.960938 L 66.324219 348.960938 Z M 9.9375 518.140625 " fill-opacity="1" fill-rule="nonzero"/><g clip-path="url(#49b536db40)"><path fill="#00bf63" d="M 151.644531 127.277344 C 144.816406 127.277344 138.785156 131.628906 136.617188 138.105469 L 76.886719 317.292969 L 279.589844 317.292969 L 295.421875 127.277344 Z M 151.644531 127.277344 " fill-opacity="1" fill-rule="nonzero"/></g><path fill="#00bf63" d="M 800.046875 518.140625 L 743.660156 348.960938 L 533.039062 348.960938 L 548.875 538.980469 L 785.035156 538.980469 C 790.117188 538.980469 794.898438 536.542969 797.894531 532.410156 C 800.855469 528.277344 801.675781 522.957031 800.046875 518.140625 Z M 800.046875 518.140625 " fill-opacity="1" fill-rule="nonzero"/></svg>