<svg xmlns="http://www.w3.org/2000/svg" xmlns:xlink="http://www.w3.org/1999/xlink" width="1080" zoomAndPan="magnify" viewBox="0 0 810 809.999993" height="1080" preserveAspectRatio="xMidYMid meet" version="1.0"><defs><clipPath id="81a60d8a62"><path d="M 13.757812 120.226562 L 796.007812 120.226562 L 796.007812 636.976562 L 13.757812 636.976562 Z M 13.757812 120.226562 " clip-rule="nonzero"/></clipPath><clipPath id="3ae90f3e29"><path d="M 192 96.691406 L 219.75 96.691406 L 219.75 124 L 192 124 Z M 192 96.691406 " clip-rule="nonzero"/></clipPath><clipPath id="3e863f49d7"><path d="M 81 109 L 207 109 L 207 235.441406 L 81 235.441406 Z M 81 109 " clip-rule="nonzero"/></clipPath></defs><g clip-path="url(#81a60d8a62)"><path fill="#00bf63" d="M 119.980469 372.203125 C 89.460938 378.597656 62.683594 395.519531 43.628906 418.953125 C 24.96875 441.902344 13.757812 471.164062 13.757812 502.933594 C 13.757812 539.652344 28.78125 573.023438 52.980469 597.222656 C 77.179688 621.417969 110.570312 636.441406 147.269531 636.441406 L 662.703125 636.441406 C 699.398438 636.441406 732.792969 621.417969 756.988281 597.222656 C 781.1875 573.023438 796.210938 539.632812 796.210938 502.933594 C 796.210938 478.480469 789.597656 455.574219 778.097656 435.914062 C 766.125 415.453125 748.832031 398.394531 728.195312 386.675781 C 723.363281 383.9375 720.546875 378.34375 721.601562 372.554688 C 722.796875 366.078125 723.714844 359.546875 724.320312 353.050781 C 724.890625 346.949219 725.164062 340.375 725.164062 333.371094 C 725.164062 274.589844 701.335938 221.378906 662.820312 182.863281 C 624.339844 144.347656 571.113281 120.519531 512.351562 120.519531 C 469.097656 120.519531 428.917969 133.351562 395.429688 155.417969 C 360.863281 178.167969 333.320312 210.796875 316.75 249.335938 C 313.855469 256.042969 306.128906 259.25 299.320312 256.492188 C 292.0625 253.539062 284.472656 251.25 276.628906 249.726562 C 269.039062 248.238281 261.117188 247.457031 252.980469 247.457031 C 220.898438 247.457031 191.671875 259.761719 169.84375 279.890625 C 147.816406 300.175781 133.242188 328.460938 130.699219 360.113281 C 130.191406 365.902344 125.964844 370.96875 119.980469 372.203125 Z M 119.980469 372.203125 " fill-opacity="1" fill-rule="evenodd"/></g><path fill="#00bf63" d="M 193.316406 106.75 C 191.816406 106.75 190.601562 107.964844 190.601562 109.460938 C 190.601562 110.960938 191.816406 112.175781 193.316406 112.175781 C 199.300781 112.175781 204.171875 117.046875 204.171875 123.03125 C 204.171875 124.527344 205.386719 125.742188 206.882812 125.742188 C 208.382812 125.742188 209.597656 124.527344 209.597656 123.03125 C 209.597656 114.050781 202.292969 106.75 193.316406 106.75 Z M 193.316406 106.75 " fill-opacity="1" fill-rule="nonzero"/><g clip-path="url(#3ae90f3e29)"><path fill="#00bf63" d="M 195.234375 96.691406 C 193.738281 96.691406 192.523438 97.90625 192.523438 99.402344 C 192.523438 100.902344 193.738281 102.117188 195.234375 102.117188 C 205.707031 102.117188 214.230469 110.636719 214.230469 121.109375 C 214.230469 122.609375 215.445312 123.824219 216.941406 123.824219 C 218.441406 123.824219 219.65625 122.609375 219.65625 121.109375 C 219.65625 107.644531 208.699219 96.691406 195.234375 96.691406 Z M 195.234375 96.691406 " fill-opacity="1" fill-rule="nonzero"/></g><g clip-path="url(#3e863f49d7)"><path fill="#00bf63" d="M 191.582031 128.601562 L 197.152344 123.03125 C 198.214844 121.96875 198.214844 120.25 197.152344 119.191406 C 196.09375 118.132812 194.375 118.132812 193.316406 119.191406 L 187.746094 124.761719 L 172.8125 109.832031 C 171.753906 108.773438 170.035156 108.773438 168.976562 109.832031 C 161.300781 117.503906 159.308594 129.207031 163.929688 138.984375 L 158.8125 144.101562 L 153.058594 138.347656 C 151.996094 137.285156 150.28125 137.285156 149.21875 138.347656 L 141.542969 146.019531 C 139.058594 143.535156 112.554688 117.027344 108.925781 113.402344 C 107.867188 112.34375 106.148438 112.34375 105.089844 113.402344 L 82.066406 136.425781 C 81.007812 137.488281 81.007812 139.203125 82.066406 140.265625 L 114.683594 172.882812 L 113.722656 173.839844 C 110.011719 177.554688 110.011719 183.5625 113.722656 187.273438 L 114.683594 188.230469 L 113.722656 189.191406 C 110.011719 192.902344 110.011719 198.910156 113.722656 202.621094 C 117.4375 206.332031 123.445312 206.332031 127.15625 202.621094 L 128.113281 201.664062 L 129.074219 202.621094 C 132.785156 206.332031 138.792969 206.332031 142.503906 202.621094 L 143.464844 201.664062 L 176.082031 234.28125 C 177.140625 235.339844 178.859375 235.339844 179.917969 234.28125 L 202.945312 211.257812 C 204.003906 210.195312 204.003906 208.476562 202.945312 207.417969 C 199.3125 203.785156 172.8125 177.289062 170.324219 174.800781 L 178 167.125 C 179.058594 166.066406 179.058594 164.347656 178 163.289062 L 172.246094 157.53125 L 177.851562 151.925781 C 187.140625 155.515625 197.964844 153.480469 205.292969 146.148438 C 206.355469 145.089844 206.351562 143.371094 205.292969 142.3125 Z M 130.035156 157.53125 L 122.359375 149.859375 L 130.03125 142.183594 L 137.707031 149.859375 Z M 118.519531 169.042969 L 110.847656 161.371094 L 118.519531 153.695312 L 126.195312 161.371094 Z M 99.335938 149.859375 L 107.007812 142.183594 L 114.683594 149.859375 L 107.007812 157.53125 Z M 126.195312 138.347656 L 118.519531 146.019531 L 110.847656 138.347656 L 118.519531 130.671875 Z M 107.007812 119.160156 L 114.683594 126.832031 L 107.007812 134.507812 L 99.335938 126.832031 Z M 95.496094 130.671875 L 103.171875 138.347656 L 95.496094 146.019531 L 87.824219 138.347656 Z M 123.316406 198.785156 C 121.726562 200.375 119.152344 200.375 117.5625 198.785156 C 115.96875 197.195312 115.972656 194.617188 117.5625 193.027344 L 118.519531 192.070312 L 124.277344 197.824219 Z M 154.976562 190.152344 L 162.652344 197.824219 L 154.976562 205.5 L 147.300781 197.824219 Z M 166.488281 178.640625 L 174.164062 186.3125 L 166.488281 193.988281 L 158.8125 186.3125 Z M 185.675781 197.824219 L 178 205.5 L 170.324219 197.824219 L 178 190.152344 Z M 158.8125 209.335938 L 166.488281 201.664062 L 174.164062 209.335938 L 166.488281 217.011719 Z M 178 228.523438 L 170.324219 220.847656 L 178 213.175781 L 185.675781 220.847656 Z M 189.511719 217.011719 L 181.839844 209.335938 L 189.511719 201.664062 L 197.1875 209.335938 Z M 168.40625 153.695312 L 162.652344 147.941406 L 166.855469 143.734375 C 168.46875 145.8125 170.378906 147.667969 172.804688 149.296875 Z M 167.074219 125.300781 L 189.824219 148.050781 C 176.566406 149.816406 165.308594 138.570312 167.074219 125.300781 Z M 195.761719 146.3125 L 168.8125 119.367188 C 169.410156 118.089844 170.144531 116.867188 171.023438 115.714844 C 174.386719 119.082031 196.558594 141.253906 199.410156 144.101562 C 198.257812 144.980469 197.035156 145.714844 195.761719 146.3125 Z M 195.761719 146.3125 " fill-opacity="1" fill-rule="nonzero"/></g></svg>