<svg xmlns="http://www.w3.org/2000/svg" xmlns:xlink="http://www.w3.org/1999/xlink" width="1080" zoomAndPan="magnify" viewBox="0 0 810 809.999993" height="1080" preserveAspectRatio="xMidYMid meet" version="1.0"><defs><clipPath id="2d1128158d"><path d="M 24.035156 0 L 806 0 L 806 777.75 L 24.035156 777.75 Z M 24.035156 0 " clip-rule="nonzero"/></clipPath></defs><g clip-path="url(#2d1128158d)"><path fill="#31b744" d="M 104.007812 0.0859375 L 542.679688 0.0859375 C 586.683594 0.0859375 622.730469 36.09375 622.730469 80.136719 L 622.730469 269.855469 L 459.375 467.761719 L 385.332031 393.71875 C 354.835938 363.222656 305.207031 363.222656 274.710938 393.71875 L 255.960938 412.46875 C 225.460938 442.964844 225.460938 492.597656 255.960938 523.132812 L 411.507812 678.679688 C 427.347656 694.519531 448.203125 702.558594 470.550781 701.484375 C 492.972656 700.414062 512.871094 690.464844 527.144531 673.128906 L 622.769531 557.300781 L 622.769531 698.117188 C 622.769531 742.121094 586.761719 778.167969 542.71875 778.167969 L 104.046875 778.167969 C 60.042969 778.167969 23.996094 742.160156 23.996094 698.117188 L 23.996094 80.136719 C 23.996094 36.132812 60.003906 0.0859375 104.046875 0.0859375 Z M 462.054688 524.585938 L 714.03125 219.34375 C 728.035156 202.355469 753.328125 199.945312 770.28125 213.949219 L 790.753906 230.824219 C 807.742188 244.828125 810.152344 270.121094 796.148438 287.074219 L 497.601562 648.71875 C 490.179688 657.710938 480.34375 662.644531 468.675781 663.183594 C 457.003906 663.753906 446.75 659.777344 438.484375 651.511719 L 282.9375 495.964844 C 267.363281 480.390625 267.363281 455.019531 282.9375 439.40625 L 301.6875 420.65625 C 317.261719 405.082031 342.628906 405.082031 358.203125 420.65625 L 462.015625 524.472656 Z M 154.019531 172.890625 C 143.460938 172.890625 134.886719 164.320312 134.886719 153.757812 C 134.886719 143.199219 143.460938 134.625 154.019531 134.625 L 492.628906 134.625 C 503.191406 134.625 511.761719 143.199219 511.761719 153.757812 C 511.761719 164.320312 503.191406 172.890625 492.628906 172.890625 Z M 154.019531 299.359375 C 143.460938 299.359375 134.886719 290.785156 134.886719 280.226562 C 134.886719 269.664062 143.460938 261.09375 154.019531 261.09375 L 492.628906 261.09375 C 503.191406 261.09375 511.761719 269.664062 511.761719 280.226562 C 511.761719 290.785156 503.191406 299.359375 492.628906 299.359375 Z M 154.019531 299.359375 " fill-opacity="1" fill-rule="evenodd"/></g></svg>