<svg xmlns="http://www.w3.org/2000/svg" xmlns:xlink="http://www.w3.org/1999/xlink" width="500" zoomAndPan="magnify" viewBox="0 0 375 374.999991" height="500" preserveAspectRatio="xMidYMid meet" version="1.0"><defs><clipPath id="adb8a3a727"><path d="M 83 123.042969 L 292 123.042969 L 292 144 L 83 144 Z M 83 123.042969 " clip-rule="nonzero"/></clipPath></defs><path fill="#ffffff" d="M 83 152.371094 L 291.992188 152.371094 L 291.992188 174.851562 L 83 174.851562 Z M 83 152.371094 " fill-opacity="1" fill-rule="nonzero"/><path fill="#ffffff" d="M 83 238.777344 C 83 245.976562 88.972656 251.949219 96.171875 251.949219 L 278.820312 251.949219 C 286.019531 251.949219 291.992188 245.976562 291.992188 238.777344 L 291.992188 183.457031 L 83 183.457031 Z M 217.878906 201.019531 L 225.253906 201.019531 L 239.304688 235.96875 L 231.578125 235.96875 L 228.589844 228.066406 L 214.71875 228.066406 L 211.90625 235.96875 L 204.355469 235.96875 Z M 191.007812 223.675781 C 190.480469 223.148438 189.601562 222.621094 188.550781 222.09375 C 187.671875 221.742188 185.914062 221.214844 182.929688 220.511719 C 179.066406 219.636719 176.433594 218.40625 175.027344 217 C 172.917969 215.070312 171.867188 212.785156 171.867188 209.976562 C 171.867188 208.21875 172.390625 206.464844 173.445312 205.058594 C 174.5 203.476562 175.90625 202.25 177.835938 201.546875 C 179.769531 200.667969 182.050781 200.316406 184.6875 200.316406 C 189.078125 200.316406 192.414062 201.195312 194.519531 203.125 C 196.628906 205.058594 197.859375 207.691406 198.035156 210.855469 L 191.007812 211.203125 C 190.65625 209.449219 190.128906 208.042969 189.078125 207.339844 C 188.023438 206.640625 186.617188 206.113281 184.6875 206.113281 C 182.578125 206.113281 180.996094 206.464844 179.945312 207.339844 C 179.242188 207.867188 178.890625 208.570312 178.890625 209.449219 C 178.890625 210.328125 179.242188 211.03125 179.945312 211.554688 C 180.824219 212.257812 182.929688 213.136719 186.441406 213.839844 C 189.953125 214.71875 192.414062 215.421875 193.992188 216.296875 C 195.574219 217.175781 196.980469 218.40625 197.859375 219.808594 C 198.734375 221.390625 199.261719 223.148438 199.261719 225.429688 C 199.261719 227.363281 198.734375 229.292969 197.683594 231.050781 C 196.628906 232.804688 195.046875 234.035156 192.941406 234.914062 C 190.832031 235.792969 188.375 236.144531 185.386719 236.144531 C 180.996094 236.144531 177.660156 235.089844 175.203125 233.15625 C 172.917969 231.050781 171.339844 228.066406 170.988281 224.199219 L 177.835938 223.5 C 178.1875 225.78125 179.066406 227.539062 180.296875 228.589844 C 181.523438 229.644531 183.28125 230.171875 185.386719 230.171875 C 187.671875 230.171875 189.429688 229.644531 190.480469 228.765625 C 191.710938 227.890625 192.238281 226.660156 192.238281 225.429688 C 191.710938 225.078125 191.535156 224.375 191.007812 223.675781 Z M 154.128906 201.019531 L 161.152344 201.019531 L 161.152344 235.96875 L 154.128906 235.96875 Z M 118.300781 201.019531 L 127.082031 226.835938 L 135.6875 201.019531 L 143.238281 201.019531 L 130.769531 235.96875 L 123.21875 235.96875 L 110.75 201.019531 Z M 118.300781 201.019531 " fill-opacity="1" fill-rule="nonzero"/><path fill="#ffffff" d="M 221.390625 209.273438 L 216.648438 222.09375 L 226.308594 222.09375 Z M 221.390625 209.273438 " fill-opacity="1" fill-rule="nonzero"/><g clip-path="url(#adb8a3a727)"><path fill="#ffffff" d="M 278.820312 123.042969 L 96.171875 123.042969 C 88.972656 123.042969 83 129.015625 83 136.214844 L 83 143.589844 L 291.992188 143.589844 L 291.992188 136.214844 C 291.992188 129.015625 286.019531 123.042969 278.820312 123.042969 Z M 278.820312 123.042969 " fill-opacity="1" fill-rule="nonzero"/></g></svg>