<svg xmlns="http://www.w3.org/2000/svg" xmlns:xlink="http://www.w3.org/1999/xlink" width="1080" zoomAndPan="magnify" viewBox="0 0 810 809.999993" height="1080" preserveAspectRatio="xMidYMid meet" version="1.0"><defs><clipPath id="d270ba22a7"><path d="M 40.285156 57.769531 L 782 57.769531 L 782 741.019531 L 40.285156 741.019531 Z M 40.285156 57.769531 " clip-rule="nonzero"/></clipPath></defs><g clip-path="url(#d270ba22a7)"><path fill="#00bf63" d="M 714.074219 421.289062 L 708.988281 421.289062 L 708.988281 174.160156 C 708.988281 166.132812 702.476562 159.621094 694.449219 159.621094 L 679.914062 159.621094 L 679.914062 72.402344 C 679.914062 64.375 673.40625 57.863281 665.378906 57.863281 C 657.351562 57.863281 650.839844 64.375 650.839844 72.402344 L 650.839844 159.621094 L 636.304688 159.621094 C 628.277344 159.621094 621.765625 166.132812 621.765625 174.160156 L 621.765625 421.289062 L 592.28125 421.289062 C 588.652344 388.625 560.890625 363.140625 527.277344 363.140625 L 425.515625 363.140625 L 425.515625 331.566406 C 442.4375 325.566406 454.589844 309.40625 454.589844 290.457031 C 454.589844 266.410156 435.027344 246.84375 410.980469 246.84375 C 386.933594 246.84375 367.367188 266.410156 367.367188 290.457031 C 367.367188 309.40625 379.523438 325.566406 396.441406 331.566406 L 396.441406 363.140625 L 294.683594 363.140625 C 260.976562 363.140625 233.289062 388.558594 229.675781 421.289062 L 200.195312 421.289062 L 200.195312 174.160156 C 200.195312 166.132812 193.683594 159.621094 185.65625 159.621094 L 171.121094 159.621094 L 171.121094 72.402344 C 171.121094 64.375 164.609375 57.863281 156.582031 57.863281 C 148.554688 57.863281 142.046875 64.375 142.046875 72.402344 L 142.046875 159.621094 L 127.507812 159.621094 C 119.480469 159.621094 112.972656 166.132812 112.972656 174.160156 L 112.972656 421.289062 L 107.882812 421.289062 C 70.609375 421.289062 40.285156 451.609375 40.285156 488.886719 L 40.285156 600.820312 C 40.285156 638.09375 70.609375 668.417969 107.882812 668.417969 L 112.972656 668.417969 L 112.972656 726.566406 C 112.972656 734.59375 119.480469 741.101562 127.507812 741.101562 L 229.265625 741.101562 C 235.210938 741.101562 240.558594 737.484375 242.765625 731.964844 L 268.183594 668.417969 L 553.773438 668.417969 L 579.195312 731.964844 C 581.402344 737.484375 586.75 741.101562 592.691406 741.101562 L 694.449219 741.101562 C 702.476562 741.101562 708.988281 734.59375 708.988281 726.566406 L 708.988281 668.417969 L 714.074219 668.417969 C 751.351562 668.417969 781.671875 638.09375 781.671875 600.820312 L 781.671875 488.886719 C 781.671875 451.609375 751.351562 421.289062 714.074219 421.289062 Z M 410.980469 275.917969 C 418.996094 275.917969 425.515625 282.441406 425.515625 290.457031 C 425.515625 298.472656 418.996094 304.992188 410.980469 304.992188 C 402.964844 304.992188 396.441406 298.472656 396.441406 290.457031 C 396.441406 282.441406 402.964844 275.917969 410.980469 275.917969 Z M 650.839844 188.695312 L 679.914062 188.695312 L 679.914062 421.289062 L 650.839844 421.289062 Z M 142.046875 188.695312 L 171.121094 188.695312 L 171.121094 421.289062 L 142.046875 421.289062 Z M 752.597656 600.820312 C 752.597656 622.0625 735.316406 639.34375 714.074219 639.34375 C 703.695312 639.34375 118.421875 639.34375 107.882812 639.34375 C 86.640625 639.34375 69.359375 622.0625 69.359375 600.820312 L 69.359375 488.886719 C 69.359375 467.644531 86.640625 450.363281 107.882812 450.363281 C 134.25 450.363281 209.230469 450.363281 233 450.363281 C 242.109375 475.914062 266.71875 493.972656 294.683594 493.972656 L 527.277344 493.972656 C 555.3125 493.972656 579.753906 476.253906 588.949219 450.363281 C 612.726562 450.363281 687.789062 450.363281 714.074219 450.363281 C 735.316406 450.363281 752.597656 467.644531 752.597656 488.886719 Z M 752.597656 600.820312 " fill-opacity="1" fill-rule="nonzero"/></g><path fill="#00bf63" d="M 258.339844 523.046875 L 156.582031 523.046875 C 132.535156 523.046875 112.972656 542.613281 112.972656 566.660156 C 112.972656 590.707031 132.535156 610.269531 156.582031 610.269531 L 258.339844 610.269531 C 282.386719 610.269531 301.953125 590.707031 301.953125 566.660156 C 301.953125 542.613281 282.386719 523.046875 258.339844 523.046875 Z M 258.339844 581.195312 L 156.582031 581.195312 C 148.566406 581.195312 142.046875 574.675781 142.046875 566.660156 C 142.046875 558.644531 148.566406 552.121094 156.582031 552.121094 L 258.339844 552.121094 C 266.355469 552.121094 272.878906 558.644531 272.878906 566.660156 C 272.878906 574.675781 266.355469 581.195312 258.339844 581.195312 Z M 258.339844 581.195312 " fill-opacity="1" fill-rule="nonzero"/><path fill="#00bf63" d="M 359.585938 180.910156 C 353.90625 186.589844 353.90625 195.792969 359.585938 201.472656 C 365.261719 207.148438 374.464844 207.148438 380.144531 201.472656 C 397.148438 184.46875 424.816406 184.46875 441.820312 201.472656 C 447.496094 207.148438 456.695312 207.148438 462.378906 201.472656 C 468.054688 195.796875 468.054688 186.589844 462.378906 180.910156 C 434.035156 152.570312 387.925781 152.570312 359.585938 180.910156 Z M 359.585938 180.910156 " fill-opacity="1" fill-rule="nonzero"/><path fill="#00bf63" d="M 339.027344 160.355469 C 378.703125 120.679688 443.257812 120.679688 482.933594 160.355469 C 488.613281 166.027344 497.8125 166.03125 503.492188 160.355469 C 509.171875 154.675781 509.171875 145.472656 503.492188 139.792969 C 452.480469 88.785156 369.480469 88.785156 318.46875 139.792969 C 312.792969 145.472656 312.792969 154.675781 318.46875 160.355469 C 324.144531 166.027344 333.347656 166.027344 339.027344 160.355469 Z M 339.027344 160.355469 " fill-opacity="1" fill-rule="nonzero"/><path fill="#00bf63" d="M 591.972656 566.609375 C 591.972656 567.539062 591.878906 568.460938 591.699219 569.375 C 591.515625 570.285156 591.25 571.171875 590.890625 572.03125 C 590.535156 572.890625 590.097656 573.710938 589.582031 574.484375 C 589.066406 575.257812 588.476562 575.972656 587.820312 576.632812 C 587.160156 577.289062 586.445312 577.878906 585.671875 578.394531 C 584.898438 578.910156 584.078125 579.347656 583.21875 579.703125 C 582.359375 580.0625 581.472656 580.328125 580.558594 580.511719 C 579.648438 580.691406 578.726562 580.785156 577.792969 580.785156 C 576.863281 580.785156 575.941406 580.691406 575.027344 580.511719 C 574.117188 580.328125 573.230469 580.0625 572.371094 579.703125 C 571.507812 579.347656 570.691406 578.910156 569.917969 578.394531 C 569.144531 577.878906 568.429688 577.289062 567.769531 576.632812 C 567.113281 575.972656 566.523438 575.257812 566.007812 574.484375 C 565.488281 573.710938 565.054688 572.890625 564.699219 572.03125 C 564.339844 571.171875 564.070312 570.285156 563.890625 569.375 C 563.710938 568.460938 563.617188 567.539062 563.617188 566.609375 C 563.617188 565.675781 563.710938 564.753906 563.890625 563.84375 C 564.070312 562.929688 564.339844 562.042969 564.699219 561.183594 C 565.054688 560.324219 565.488281 559.503906 566.007812 558.730469 C 566.523438 557.957031 567.113281 557.242188 567.769531 556.582031 C 568.429688 555.925781 569.144531 555.335938 569.917969 554.820312 C 570.691406 554.304688 571.507812 553.867188 572.371094 553.511719 C 573.230469 553.152344 574.117188 552.886719 575.027344 552.703125 C 575.941406 552.523438 576.863281 552.429688 577.792969 552.429688 C 578.726562 552.429688 579.648438 552.523438 580.558594 552.703125 C 581.472656 552.886719 582.359375 553.152344 583.21875 553.511719 C 584.078125 553.867188 584.898438 554.304688 585.671875 554.820312 C 586.445312 555.335938 587.160156 555.925781 587.820312 556.582031 C 588.476562 557.242188 589.066406 557.957031 589.582031 558.730469 C 590.097656 559.503906 590.535156 560.324219 590.890625 561.183594 C 591.25 562.042969 591.515625 562.929688 591.699219 563.84375 C 591.878906 564.753906 591.972656 565.675781 591.972656 566.609375 Z M 591.972656 566.609375 " fill-opacity="1" fill-rule="nonzero"/><path fill="#00bf63" d="M 650.109375 566.609375 C 650.109375 567.539062 650.019531 568.460938 649.835938 569.375 C 649.65625 570.285156 649.386719 571.171875 649.03125 572.03125 C 648.671875 572.890625 648.238281 573.710938 647.71875 574.484375 C 647.203125 575.257812 646.613281 575.972656 645.957031 576.632812 C 645.296875 577.289062 644.582031 577.878906 643.808594 578.394531 C 643.035156 578.910156 642.21875 579.347656 641.359375 579.703125 C 640.496094 580.0625 639.609375 580.328125 638.699219 580.511719 C 637.785156 580.691406 636.863281 580.785156 635.933594 580.785156 C 635 580.785156 634.078125 580.691406 633.167969 580.511719 C 632.253906 580.328125 631.367188 580.0625 630.507812 579.703125 C 629.648438 579.347656 628.832031 578.910156 628.054688 578.394531 C 627.28125 577.878906 626.566406 577.289062 625.90625 576.632812 C 625.25 575.972656 624.664062 575.257812 624.144531 574.484375 C 623.628906 573.710938 623.191406 572.890625 622.835938 572.03125 C 622.480469 571.171875 622.210938 570.285156 622.027344 569.375 C 621.847656 568.460938 621.757812 567.539062 621.757812 566.609375 C 621.757812 565.675781 621.847656 564.753906 622.027344 563.84375 C 622.210938 562.929688 622.480469 562.042969 622.835938 561.183594 C 623.191406 560.324219 623.628906 559.503906 624.144531 558.730469 C 624.664062 557.957031 625.25 557.242188 625.90625 556.582031 C 626.566406 555.925781 627.28125 555.335938 628.054688 554.820312 C 628.832031 554.304688 629.648438 553.867188 630.507812 553.511719 C 631.367188 553.152344 632.253906 552.886719 633.167969 552.703125 C 634.078125 552.523438 635 552.429688 635.933594 552.429688 C 636.863281 552.429688 637.785156 552.523438 638.699219 552.703125 C 639.609375 552.886719 640.496094 553.152344 641.359375 553.511719 C 642.21875 553.867188 643.035156 554.304688 643.808594 554.820312 C 644.582031 555.335938 645.296875 555.925781 645.957031 556.582031 C 646.613281 557.242188 647.203125 557.957031 647.71875 558.730469 C 648.238281 559.503906 648.671875 560.324219 649.03125 561.183594 C 649.386719 562.042969 649.65625 562.929688 649.835938 563.84375 C 650.019531 564.753906 650.109375 565.675781 650.109375 566.609375 Z M 650.109375 566.609375 " fill-opacity="1" fill-rule="nonzero"/><path fill="#00bf63" d="M 709.019531 566.609375 C 709.019531 567.539062 708.929688 568.460938 708.746094 569.375 C 708.566406 570.285156 708.296875 571.171875 707.941406 572.03125 C 707.582031 572.890625 707.148438 573.710938 706.628906 574.484375 C 706.113281 575.257812 705.523438 575.972656 704.867188 576.632812 C 704.207031 577.289062 703.492188 577.878906 702.71875 578.394531 C 701.945312 578.910156 701.128906 579.347656 700.265625 579.703125 C 699.40625 580.0625 698.519531 580.328125 697.609375 580.511719 C 696.695312 580.691406 695.773438 580.785156 694.84375 580.785156 C 693.910156 580.785156 692.988281 580.691406 692.078125 580.511719 C 691.164062 580.328125 690.277344 580.0625 689.417969 579.703125 C 688.558594 579.347656 687.738281 578.910156 686.964844 578.394531 C 686.191406 577.878906 685.476562 577.289062 684.816406 576.632812 C 684.160156 575.972656 683.570312 575.257812 683.054688 574.484375 C 682.539062 573.710938 682.101562 572.890625 681.746094 572.03125 C 681.386719 571.171875 681.121094 570.285156 680.9375 569.375 C 680.757812 568.460938 680.664062 567.539062 680.664062 566.609375 C 680.664062 565.675781 680.757812 564.753906 680.9375 563.84375 C 681.121094 562.929688 681.386719 562.042969 681.746094 561.183594 C 682.101562 560.324219 682.539062 559.503906 683.054688 558.730469 C 683.570312 557.957031 684.160156 557.242188 684.816406 556.582031 C 685.476562 555.925781 686.191406 555.335938 686.964844 554.820312 C 687.738281 554.304688 688.558594 553.867188 689.417969 553.511719 C 690.277344 553.152344 691.164062 552.886719 692.078125 552.703125 C 692.988281 552.523438 693.910156 552.429688 694.84375 552.429688 C 695.773438 552.429688 696.695312 552.523438 697.609375 552.703125 C 698.519531 552.886719 699.40625 553.152344 700.265625 553.511719 C 701.128906 553.867188 701.945312 554.304688 702.71875 554.820312 C 703.492188 555.335938 704.207031 555.925781 704.867188 556.582031 C 705.523438 557.242188 706.113281 557.957031 706.628906 558.730469 C 707.148438 559.503906 707.582031 560.324219 707.941406 561.183594 C 708.296875 562.042969 708.566406 562.929688 708.746094 563.84375 C 708.929688 564.753906 709.019531 565.675781 709.019531 566.609375 Z M 709.019531 566.609375 " fill-opacity="1" fill-rule="nonzero"/></svg>