<svg xmlns="http://www.w3.org/2000/svg" xmlns:xlink="http://www.w3.org/1999/xlink" width="500" zoomAndPan="magnify" viewBox="0 0 375 374.999991" height="500" preserveAspectRatio="xMidYMid meet" version="1.0"><defs><clipPath id="e3a4d93415"><path d="M 67 41.824219 L 375 41.824219 L 375 131 L 67 131 Z M 67 41.824219 " clip-rule="nonzero"/></clipPath><clipPath id="e77f9dcdeb"><path d="M 67 224 L 375 224 L 375 312.574219 L 67 312.574219 Z M 67 224 " clip-rule="nonzero"/></clipPath><clipPath id="105ab043f4"><path d="M 0 42 L 375 42 L 375 312.574219 L 0 312.574219 Z M 0 42 " clip-rule="nonzero"/></clipPath><clipPath id="4b28dfa424"><path d="M 36 41.824219 L 375 41.824219 L 375 312.574219 L 36 312.574219 Z M 36 41.824219 " clip-rule="nonzero"/></clipPath></defs><g clip-path="url(#e3a4d93415)"><path fill="#de3830" d="M 333.25 41.824219 L 67.777344 41.824219 L 197.910156 130.339844 L 374.894531 130.339844 L 374.894531 83.480469 C 374.894531 60.476562 356.246094 41.824219 333.25 41.824219 Z M 333.25 41.824219 " fill-opacity="1" fill-rule="nonzero"/></g><g clip-path="url(#e77f9dcdeb)"><path fill="#002395" d="M 67.777344 312.574219 L 333.25 312.574219 C 356.246094 312.574219 374.894531 293.925781 374.894531 270.921875 L 374.894531 224.0625 L 197.910156 224.0625 Z M 67.777344 312.574219 " fill-opacity="1" fill-rule="nonzero"/></g><path fill="#141414" d="M 0.105469 104.304688 L 0.105469 250.09375 L 109.417969 177.199219 Z M 0.105469 104.304688 " fill-opacity="1" fill-rule="nonzero"/><path fill="#ffb611" d="M 0.105469 83.480469 L 0.105469 104.304688 L 109.417969 177.199219 L 0.105469 250.09375 L 0.105469 270.921875 L 140.652344 177.199219 Z M 0.105469 83.480469 " fill-opacity="1" fill-rule="nonzero"/><g clip-path="url(#105ab043f4)"><path fill="#007a4d" d="M 36.972656 42.117188 C 16.222656 44.5 0.105469 62.101562 0.105469 83.480469 L 140.652344 177.199219 L 0.105469 270.921875 C 0.105469 292.300781 16.222656 309.898438 36.972656 312.285156 L 192.707031 203.234375 L 374.894531 203.234375 L 374.894531 151.167969 L 192.707031 151.167969 Z M 36.972656 42.117188 " fill-opacity="1" fill-rule="nonzero"/></g><g clip-path="url(#4b28dfa424)"><path fill="#eeeeee" d="M 67.777344 41.824219 L 41.75 41.824219 C 40.125 41.824219 38.542969 41.941406 36.972656 42.117188 L 192.707031 151.167969 L 374.894531 151.167969 L 374.894531 130.339844 L 197.910156 130.339844 Z M 36.972656 312.285156 C 38.542969 312.460938 40.125 312.574219 41.75 312.574219 L 67.777344 312.574219 L 197.910156 224.0625 L 374.894531 224.0625 L 374.894531 203.234375 L 192.707031 203.234375 Z M 36.972656 312.285156 " fill-opacity="1" fill-rule="nonzero"/></g></svg>