<svg xmlns="http://www.w3.org/2000/svg" xmlns:xlink="http://www.w3.org/1999/xlink" width="500" zoomAndPan="magnify" viewBox="0 0 375 374.999991" height="500" preserveAspectRatio="xMidYMid meet" version="1.0"><defs><clipPath id="2273e69692"><path d="M 0 37.5 L 375 37.5 L 375 308.25 L 0 308.25 Z M 0 37.5 " clip-rule="nonzero"/></clipPath></defs><g clip-path="url(#2273e69692)"><path fill="#009b3a" d="M 374.894531 266.597656 C 374.894531 289.597656 356.246094 308.25 333.25 308.25 L 41.75 308.25 C 18.753906 308.25 0.105469 289.597656 0.105469 266.597656 L 0.105469 79.152344 C 0.105469 56.152344 18.753906 37.5 41.75 37.5 L 333.25 37.5 C 356.246094 37.5 374.894531 56.152344 374.894531 79.152344 Z M 374.894531 266.597656 " fill-opacity="1" fill-rule="nonzero"/></g><path fill="#fedf01" d="M 340.828125 172.875 L 187.5 288.714844 L 34.171875 172.875 L 187.5 57.023438 Z M 340.828125 172.875 " fill-opacity="1" fill-rule="nonzero"/><path fill="#002776" d="M 254.484375 172.082031 C 254.484375 173.183594 254.457031 174.285156 254.402344 175.382812 C 254.347656 176.484375 254.265625 177.578125 254.160156 178.675781 C 254.050781 179.769531 253.917969 180.863281 253.753906 181.953125 C 253.59375 183.039062 253.40625 184.125 253.191406 185.203125 C 252.976562 186.28125 252.734375 187.355469 252.46875 188.425781 C 252.199219 189.492188 251.90625 190.550781 251.585938 191.605469 C 251.269531 192.660156 250.921875 193.703125 250.550781 194.738281 C 250.183594 195.777344 249.785156 196.800781 249.363281 197.820312 C 248.945312 198.835938 248.5 199.839844 248.027344 200.835938 C 247.558594 201.832031 247.0625 202.8125 246.542969 203.785156 C 246.023438 204.753906 245.484375 205.714844 244.917969 206.65625 C 244.351562 207.601562 243.761719 208.53125 243.152344 209.445312 C 242.539062 210.359375 241.90625 211.261719 241.25 212.144531 C 240.597656 213.027344 239.917969 213.894531 239.222656 214.746094 C 238.523438 215.597656 237.804688 216.429688 237.066406 217.246094 C 236.328125 218.0625 235.570312 218.859375 234.789062 219.636719 C 234.011719 220.414062 233.214844 221.171875 232.402344 221.914062 C 231.585938 222.652344 230.753906 223.371094 229.902344 224.070312 C 229.050781 224.765625 228.183594 225.445312 227.300781 226.097656 C 226.417969 226.753906 225.515625 227.386719 224.601562 228 C 223.6875 228.613281 222.757812 229.199219 221.816406 229.765625 C 220.871094 230.332031 219.914062 230.875 218.945312 231.394531 C 217.972656 231.910156 216.992188 232.40625 215.996094 232.875 C 215 233.347656 213.996094 233.792969 212.980469 234.214844 C 211.960938 234.636719 210.9375 235.03125 209.898438 235.402344 C 208.863281 235.773438 207.820312 236.117188 206.765625 236.4375 C 205.714844 236.757812 204.652344 237.050781 203.585938 237.316406 C 202.519531 237.585938 201.445312 237.828125 200.367188 238.042969 C 199.289062 238.257812 198.203125 238.445312 197.113281 238.605469 C 196.027344 238.765625 194.933594 238.902344 193.839844 239.011719 C 192.746094 239.117188 191.648438 239.199219 190.550781 239.253906 C 189.449219 239.308594 188.351562 239.332031 187.25 239.332031 C 186.148438 239.332031 185.050781 239.308594 183.953125 239.253906 C 182.851562 239.199219 181.753906 239.117188 180.660156 239.011719 C 179.566406 238.902344 178.472656 238.765625 177.386719 238.605469 C 176.296875 238.445312 175.210938 238.257812 174.132812 238.042969 C 173.054688 237.828125 171.980469 237.585938 170.914062 237.316406 C 169.847656 237.050781 168.785156 236.757812 167.734375 236.4375 C 166.679688 236.117188 165.636719 235.773438 164.601562 235.402344 C 163.5625 235.03125 162.539062 234.636719 161.519531 234.214844 C 160.503906 233.792969 159.5 233.347656 158.503906 232.875 C 157.511719 232.40625 156.527344 231.910156 155.558594 231.394531 C 154.585938 230.875 153.628906 230.332031 152.6875 229.765625 C 151.742188 229.199219 150.8125 228.613281 149.898438 228 C 148.984375 227.386719 148.082031 226.753906 147.199219 226.097656 C 146.316406 225.445312 145.449219 224.765625 144.597656 224.070312 C 143.746094 223.371094 142.914062 222.652344 142.097656 221.914062 C 141.285156 221.171875 140.488281 220.414062 139.710938 219.636719 C 138.929688 218.859375 138.171875 218.0625 137.433594 217.246094 C 136.695312 216.429688 135.976562 215.597656 135.277344 214.746094 C 134.582031 213.894531 133.902344 213.027344 133.25 212.144531 C 132.59375 211.261719 131.960938 210.359375 131.347656 209.445312 C 130.738281 208.53125 130.148438 207.601562 129.582031 206.65625 C 129.015625 205.714844 128.476562 204.753906 127.957031 203.785156 C 127.4375 202.8125 126.941406 201.832031 126.472656 200.835938 C 126.003906 199.839844 125.554688 198.835938 125.136719 197.820312 C 124.714844 196.800781 124.316406 195.777344 123.949219 194.738281 C 123.578125 193.703125 123.230469 192.660156 122.914062 191.605469 C 122.59375 190.550781 122.300781 189.492188 122.03125 188.425781 C 121.765625 187.355469 121.523438 186.28125 121.308594 185.203125 C 121.09375 184.125 120.90625 183.039062 120.746094 181.953125 C 120.582031 180.863281 120.449219 179.769531 120.339844 178.675781 C 120.234375 177.578125 120.152344 176.484375 120.097656 175.382812 C 120.042969 174.285156 120.015625 173.183594 120.015625 172.082031 C 120.015625 170.984375 120.042969 169.882812 120.097656 168.785156 C 120.152344 167.683594 120.234375 166.585938 120.339844 165.492188 C 120.449219 164.398438 120.582031 163.304688 120.746094 162.214844 C 120.90625 161.128906 121.09375 160.042969 121.308594 158.964844 C 121.523438 157.882812 121.765625 156.8125 122.03125 155.742188 C 122.300781 154.675781 122.59375 153.613281 122.914062 152.5625 C 123.230469 151.507812 123.578125 150.464844 123.949219 149.425781 C 124.316406 148.390625 124.714844 147.363281 125.136719 146.347656 C 125.554688 145.332031 126.003906 144.324219 126.472656 143.332031 C 126.941406 142.335938 127.4375 141.351562 127.957031 140.382812 C 128.476562 139.410156 129.015625 138.453125 129.582031 137.511719 C 130.148438 136.566406 130.738281 135.636719 131.347656 134.722656 C 131.960938 133.804688 132.59375 132.90625 133.25 132.023438 C 133.902344 131.140625 134.582031 130.269531 135.277344 129.421875 C 135.976562 128.570312 136.695312 127.738281 137.433594 126.921875 C 138.171875 126.105469 138.929688 125.308594 139.710938 124.53125 C 140.488281 123.753906 141.285156 122.992188 142.097656 122.253906 C 142.914062 121.515625 143.746094 120.796875 144.597656 120.097656 C 145.449219 119.398438 146.316406 118.722656 147.199219 118.066406 C 148.082031 117.414062 148.984375 116.777344 149.898438 116.167969 C 150.8125 115.554688 151.742188 114.96875 152.6875 114.402344 C 153.628906 113.835938 154.585938 113.292969 155.558594 112.773438 C 156.527344 112.253906 157.511719 111.761719 158.503906 111.289062 C 159.5 110.820312 160.503906 110.375 161.519531 109.953125 C 162.539062 109.53125 163.5625 109.136719 164.601562 108.765625 C 165.636719 108.394531 166.679688 108.046875 167.734375 107.730469 C 168.785156 107.410156 169.847656 107.117188 170.914062 106.847656 C 171.980469 106.582031 173.054688 106.339844 174.132812 106.125 C 175.210938 105.910156 176.296875 105.722656 177.386719 105.5625 C 178.472656 105.398438 179.566406 105.265625 180.660156 105.15625 C 181.753906 105.050781 182.851562 104.96875 183.953125 104.914062 C 185.050781 104.859375 186.148438 104.832031 187.25 104.832031 C 188.351562 104.832031 189.449219 104.859375 190.550781 104.914062 C 191.648438 104.96875 192.746094 105.050781 193.839844 105.15625 C 194.933594 105.265625 196.027344 105.398438 197.113281 105.5625 C 198.203125 105.722656 199.289062 105.910156 200.367188 106.125 C 201.445312 106.339844 202.519531 106.582031 203.585938 106.847656 C 204.652344 107.117188 205.714844 107.410156 206.765625 107.730469 C 207.820312 108.046875 208.863281 108.394531 209.898438 108.765625 C 210.9375 109.136719 211.960938 109.53125 212.980469 109.953125 C 213.996094 110.375 215 110.820312 215.996094 111.289062 C 216.992188 111.761719 217.972656 112.253906 218.945312 112.773438 C 219.914062 113.292969 220.871094 113.835938 221.816406 114.402344 C 222.757812 114.96875 223.6875 115.554688 224.601562 116.167969 C 225.515625 116.777344 226.417969 117.414062 227.300781 118.066406 C 228.183594 118.722656 229.050781 119.398438 229.902344 120.097656 C 230.753906 120.796875 231.585938 121.515625 232.402344 122.253906 C 233.214844 122.992188 234.011719 123.753906 234.789062 124.53125 C 235.570312 125.308594 236.328125 126.105469 237.066406 126.921875 C 237.804688 127.738281 238.523438 128.570312 239.222656 129.421875 C 239.917969 130.269531 240.597656 131.140625 241.25 132.023438 C 241.90625 132.90625 242.539062 133.804688 243.152344 134.722656 C 243.761719 135.636719 244.351562 136.566406 244.917969 137.511719 C 245.484375 138.453125 246.023438 139.410156 246.542969 140.382812 C 247.0625 141.351562 247.558594 142.335938 248.027344 143.332031 C 248.5 144.324219 248.945312 145.332031 249.363281 146.347656 C 249.785156 147.363281 250.183594 148.390625 250.550781 149.425781 C 250.921875 150.464844 251.269531 151.507812 251.585938 152.5625 C 251.90625 153.613281 252.199219 154.675781 252.46875 155.742188 C 252.734375 156.8125 252.976562 157.882812 253.191406 158.964844 C 253.40625 160.042969 253.59375 161.128906 253.753906 162.214844 C 253.917969 163.304688 254.050781 164.398438 254.160156 165.492188 C 254.265625 166.585938 254.347656 167.683594 254.402344 168.785156 C 254.457031 169.882812 254.484375 170.984375 254.484375 172.082031 Z M 254.484375 172.082031 " fill-opacity="1" fill-rule="nonzero"/><path fill="#cbe9d4" d="M 127.917969 140.457031 C 124.460938 146.925781 122.109375 154.027344 120.921875 161.523438 C 162.515625 158.503906 218.960938 181.214844 243.1875 209.375 C 247.371094 203.085938 250.476562 196.046875 252.378906 188.503906 C 222.480469 159.265625 169.957031 140.292969 127.917969 140.457031 Z M 127.917969 140.457031 " fill-opacity="1" fill-rule="nonzero"/><path fill="#88c9f9" d="M 125.035156 175.300781 L 135.445312 175.300781 L 135.445312 185.714844 L 125.035156 185.714844 Z M 135.445312 196.128906 L 145.855469 196.128906 L 145.855469 206.542969 L 135.445312 206.542969 Z M 135.445312 196.128906 " fill-opacity="1" fill-rule="nonzero"/><path fill="#55acee" d="M 156.269531 175.300781 L 166.679688 175.300781 L 166.679688 185.714844 L 156.269531 185.714844 Z M 177.089844 185.714844 L 187.5 185.714844 L 187.5 196.128906 L 177.089844 196.128906 Z M 218.730469 206.542969 L 229.144531 206.542969 L 229.144531 216.957031 L 218.730469 216.957031 Z M 187.5 216.957031 L 197.910156 216.957031 L 197.910156 227.367188 L 187.5 227.367188 Z M 218.730469 154.472656 L 229.144531 154.472656 L 229.144531 164.886719 L 218.730469 164.886719 Z M 218.730469 154.472656 " fill-opacity="1" fill-rule="nonzero"/><path fill="#3b88c3" d="M 197.910156 196.128906 L 208.320312 196.128906 L 208.320312 206.542969 L 197.910156 206.542969 Z M 197.910156 196.128906 " fill-opacity="1" fill-rule="nonzero"/></svg>