<svg xmlns="http://www.w3.org/2000/svg" xmlns:xlink="http://www.w3.org/1999/xlink" width="500" zoomAndPan="magnify" viewBox="0 0 375 374.999991" height="500" preserveAspectRatio="xMidYMid meet" version="1.0"><defs><clipPath id="ecb0591b76"><path d="M 0 47.609375 L 375 47.609375 L 375 318.359375 L 0 318.359375 Z M 0 47.609375 " clip-rule="nonzero"/></clipPath></defs><g clip-path="url(#ecb0591b76)"><path fill="#009b3a" d="M 374.894531 276.707031 C 374.894531 299.710938 356.246094 318.359375 333.25 318.359375 L 41.75 318.359375 C 18.753906 318.359375 0.105469 299.710938 0.105469 276.707031 L 0.105469 89.265625 C 0.105469 66.261719 18.753906 47.609375 41.75 47.609375 L 333.25 47.609375 C 356.246094 47.609375 374.894531 66.261719 374.894531 89.265625 Z M 374.894531 276.707031 " fill-opacity="1" fill-rule="nonzero"/></g><path fill="#fedf01" d="M 340.828125 182.984375 L 187.5 298.824219 L 34.171875 182.984375 L 187.5 67.136719 Z M 340.828125 182.984375 " fill-opacity="1" fill-rule="nonzero"/><path fill="#002776" d="M 254.484375 182.195312 C 254.484375 183.292969 254.457031 184.394531 254.402344 185.492188 C 254.347656 186.59375 254.265625 187.691406 254.160156 188.785156 C 254.050781 189.878906 253.917969 190.972656 253.753906 192.0625 C 253.59375 193.148438 253.40625 194.234375 253.191406 195.3125 C 252.976562 196.394531 252.734375 197.464844 252.46875 198.535156 C 252.199219 199.601562 251.90625 200.660156 251.585938 201.714844 C 251.269531 202.769531 250.921875 203.8125 250.550781 204.847656 C 250.183594 205.886719 249.785156 206.910156 249.363281 207.929688 C 248.945312 208.945312 248.5 209.953125 248.027344 210.945312 C 247.558594 211.941406 247.0625 212.925781 246.542969 213.894531 C 246.023438 214.867188 245.484375 215.824219 244.917969 216.765625 C 244.351562 217.710938 243.761719 218.640625 243.152344 219.554688 C 242.539062 220.46875 241.90625 221.371094 241.25 222.253906 C 240.597656 223.136719 239.917969 224.003906 239.222656 224.855469 C 238.523438 225.707031 237.804688 226.539062 237.066406 227.355469 C 236.328125 228.171875 235.570312 228.96875 234.789062 229.746094 C 234.011719 230.523438 233.214844 231.285156 232.402344 232.023438 C 231.585938 232.761719 230.753906 233.480469 229.902344 234.179688 C 229.050781 234.875 228.183594 235.554688 227.300781 236.210938 C 226.417969 236.863281 225.515625 237.5 224.601562 238.109375 C 223.6875 238.722656 222.757812 239.308594 221.816406 239.875 C 220.871094 240.441406 219.914062 240.984375 218.945312 241.503906 C 217.972656 242.023438 216.992188 242.515625 215.996094 242.988281 C 215 243.457031 213.996094 243.902344 212.980469 244.324219 C 211.960938 244.746094 210.9375 245.140625 209.898438 245.511719 C 208.863281 245.882812 207.820312 246.226562 206.765625 246.546875 C 205.714844 246.867188 204.652344 247.160156 203.585938 247.429688 C 202.519531 247.695312 201.445312 247.9375 200.367188 248.152344 C 199.289062 248.367188 198.203125 248.554688 197.113281 248.714844 C 196.027344 248.878906 194.933594 249.011719 193.839844 249.121094 C 192.746094 249.226562 191.648438 249.308594 190.550781 249.363281 C 189.449219 249.417969 188.351562 249.445312 187.25 249.445312 C 186.148438 249.445312 185.050781 249.417969 183.953125 249.363281 C 182.851562 249.308594 181.753906 249.226562 180.660156 249.121094 C 179.566406 249.011719 178.472656 248.878906 177.386719 248.714844 C 176.296875 248.554688 175.210938 248.367188 174.132812 248.152344 C 173.054688 247.9375 171.980469 247.695312 170.914062 247.429688 C 169.847656 247.160156 168.785156 246.867188 167.734375 246.546875 C 166.679688 246.226562 165.636719 245.882812 164.601562 245.511719 C 163.5625 245.140625 162.539062 244.746094 161.519531 244.324219 C 160.503906 243.902344 159.5 243.457031 158.503906 242.988281 C 157.511719 242.515625 156.527344 242.023438 155.558594 241.503906 C 154.585938 240.984375 153.628906 240.441406 152.6875 239.875 C 151.742188 239.308594 150.8125 238.722656 149.898438 238.109375 C 148.984375 237.5 148.082031 236.863281 147.199219 236.210938 C 146.316406 235.554688 145.449219 234.875 144.597656 234.179688 C 143.746094 233.480469 142.914062 232.761719 142.097656 232.023438 C 141.285156 231.285156 140.488281 230.523438 139.710938 229.746094 C 138.929688 228.96875 138.171875 228.171875 137.433594 227.355469 C 136.695312 226.539062 135.976562 225.707031 135.277344 224.855469 C 134.582031 224.003906 133.902344 223.136719 133.25 222.253906 C 132.59375 221.371094 131.960938 220.46875 131.347656 219.554688 C 130.738281 218.640625 130.148438 217.710938 129.582031 216.765625 C 129.015625 215.824219 128.476562 214.867188 127.957031 213.894531 C 127.4375 212.925781 126.941406 211.941406 126.472656 210.945312 C 126.003906 209.953125 125.554688 208.945312 125.136719 207.929688 C 124.714844 206.910156 124.316406 205.886719 123.949219 204.847656 C 123.578125 203.8125 123.230469 202.769531 122.914062 201.714844 C 122.59375 200.660156 122.300781 199.601562 122.03125 198.535156 C 121.765625 197.464844 121.523438 196.394531 121.308594 195.3125 C 121.09375 194.234375 120.90625 193.148438 120.746094 192.0625 C 120.582031 190.972656 120.449219 189.878906 120.339844 188.785156 C 120.234375 187.691406 120.152344 186.59375 120.097656 185.492188 C 120.042969 184.394531 120.015625 183.292969 120.015625 182.195312 C 120.015625 181.09375 120.042969 179.992188 120.097656 178.894531 C 120.152344 177.792969 120.234375 176.695312 120.339844 175.601562 C 120.449219 174.507812 120.582031 173.414062 120.746094 172.324219 C 120.90625 171.238281 121.09375 170.152344 121.308594 169.074219 C 121.523438 167.992188 121.765625 166.921875 122.03125 165.851562 C 122.300781 164.785156 122.59375 163.726562 122.914062 162.671875 C 123.230469 161.617188 123.578125 160.574219 123.949219 159.539062 C 124.316406 158.5 124.714844 157.476562 125.136719 156.457031 C 125.554688 155.441406 126.003906 154.433594 126.472656 153.441406 C 126.941406 152.445312 127.4375 151.460938 127.957031 150.492188 C 128.476562 149.519531 129.015625 148.5625 129.582031 147.621094 C 130.148438 146.675781 130.738281 145.746094 131.347656 144.832031 C 131.960938 143.917969 132.59375 143.015625 133.25 142.132812 C 133.902344 141.25 134.582031 140.382812 135.277344 139.53125 C 135.976562 138.679688 136.695312 137.847656 137.433594 137.03125 C 138.171875 136.214844 138.929688 135.417969 139.710938 134.640625 C 140.488281 133.863281 141.285156 133.101562 142.097656 132.363281 C 142.914062 131.625 143.746094 130.90625 144.597656 130.207031 C 145.449219 129.511719 146.316406 128.832031 147.199219 128.175781 C 148.082031 127.523438 148.984375 126.886719 149.898438 126.277344 C 150.8125 125.664062 151.742188 125.078125 152.6875 124.511719 C 153.628906 123.945312 154.585938 123.402344 155.558594 122.882812 C 156.527344 122.367188 157.511719 121.871094 158.503906 121.398438 C 159.5 120.929688 160.503906 120.484375 161.519531 120.0625 C 162.539062 119.640625 163.5625 119.246094 164.601562 118.875 C 165.636719 118.503906 166.679688 118.160156 167.734375 117.839844 C 168.785156 117.519531 169.847656 117.226562 170.914062 116.957031 C 171.980469 116.691406 173.054688 116.449219 174.132812 116.234375 C 175.210938 116.019531 176.296875 115.832031 177.386719 115.671875 C 178.472656 115.507812 179.566406 115.375 180.660156 115.265625 C 181.753906 115.160156 182.851562 115.078125 183.953125 115.023438 C 185.050781 114.96875 186.148438 114.941406 187.25 114.941406 C 188.351562 114.941406 189.449219 114.96875 190.550781 115.023438 C 191.648438 115.078125 192.746094 115.160156 193.839844 115.265625 C 194.933594 115.375 196.027344 115.507812 197.113281 115.671875 C 198.203125 115.832031 199.289062 116.019531 200.367188 116.234375 C 201.445312 116.449219 202.519531 116.691406 203.585938 116.957031 C 204.652344 117.226562 205.714844 117.519531 206.765625 117.839844 C 207.820312 118.160156 208.863281 118.503906 209.898438 118.875 C 210.9375 119.246094 211.960938 119.640625 212.980469 120.0625 C 213.996094 120.484375 215 120.929688 215.996094 121.398438 C 216.992188 121.871094 217.972656 122.363281 218.945312 122.882812 C 219.914062 123.402344 220.871094 123.945312 221.816406 124.511719 C 222.757812 125.078125 223.6875 125.664062 224.601562 126.277344 C 225.515625 126.886719 226.417969 127.523438 227.300781 128.175781 C 228.183594 128.832031 229.050781 129.511719 229.902344 130.207031 C 230.753906 130.90625 231.585938 131.625 232.402344 132.363281 C 233.214844 133.101562 234.011719 133.863281 234.789062 134.640625 C 235.570312 135.417969 236.328125 136.214844 237.066406 137.03125 C 237.804688 137.847656 238.523438 138.679688 239.222656 139.53125 C 239.917969 140.382812 240.597656 141.25 241.25 142.132812 C 241.90625 143.015625 242.539062 143.917969 243.152344 144.832031 C 243.761719 145.746094 244.351562 146.675781 244.917969 147.621094 C 245.484375 148.5625 246.023438 149.519531 246.542969 150.492188 C 247.0625 151.460938 247.558594 152.445312 248.027344 153.441406 C 248.5 154.433594 248.945312 155.441406 249.363281 156.457031 C 249.785156 157.476562 250.183594 158.5 250.550781 159.539062 C 250.921875 160.574219 251.269531 161.617188 251.585938 162.671875 C 251.90625 163.726562 252.199219 164.785156 252.46875 165.851562 C 252.734375 166.921875 252.976562 167.992188 253.191406 169.074219 C 253.40625 170.152344 253.59375 171.238281 253.753906 172.324219 C 253.917969 173.414062 254.050781 174.507812 254.160156 175.601562 C 254.265625 176.695312 254.347656 177.792969 254.402344 178.894531 C 254.457031 179.992188 254.484375 181.09375 254.484375 182.195312 Z M 254.484375 182.195312 " fill-opacity="1" fill-rule="nonzero"/><path fill="#cbe9d4" d="M 127.917969 150.566406 C 124.460938 157.035156 122.109375 164.136719 120.921875 171.632812 C 162.515625 168.613281 218.960938 191.324219 243.1875 219.484375 C 247.371094 213.195312 250.476562 206.15625 252.378906 198.617188 C 222.480469 169.375 169.957031 150.402344 127.917969 150.566406 Z M 127.917969 150.566406 " fill-opacity="1" fill-rule="nonzero"/><path fill="#88c9f9" d="M 125.035156 185.410156 L 135.445312 185.410156 L 135.445312 195.824219 L 125.035156 195.824219 Z M 135.445312 206.238281 L 145.855469 206.238281 L 145.855469 216.652344 L 135.445312 216.652344 Z M 135.445312 206.238281 " fill-opacity="1" fill-rule="nonzero"/><path fill="#55acee" d="M 156.269531 185.410156 L 166.679688 185.410156 L 166.679688 195.824219 L 156.269531 195.824219 Z M 177.089844 195.824219 L 187.5 195.824219 L 187.5 206.238281 L 177.089844 206.238281 Z M 218.730469 216.652344 L 229.144531 216.652344 L 229.144531 227.066406 L 218.730469 227.066406 Z M 187.5 227.066406 L 197.910156 227.066406 L 197.910156 237.476562 L 187.5 237.476562 Z M 218.730469 164.585938 L 229.144531 164.585938 L 229.144531 174.996094 L 218.730469 174.996094 Z M 218.730469 164.585938 " fill-opacity="1" fill-rule="nonzero"/><path fill="#3b88c3" d="M 197.910156 206.238281 L 208.320312 206.238281 L 208.320312 216.652344 L 197.910156 216.652344 Z M 197.910156 206.238281 " fill-opacity="1" fill-rule="nonzero"/></svg>