<svg xmlns="http://www.w3.org/2000/svg" xmlns:xlink="http://www.w3.org/1999/xlink" width="500" zoomAndPan="magnify" viewBox="0 0 375 374.999991" height="500" preserveAspectRatio="xMidYMid meet" version="1.0"><defs><clipPath id="0afdcf2bf0"><path d="M 0 52.160156 L 375 52.160156 L 375 322.910156 L 0 322.910156 Z M 0 52.160156 " clip-rule="nonzero"/></clipPath><clipPath id="6e70780376"><path d="M 104 52.160156 L 271 52.160156 L 271 322.910156 L 104 322.910156 Z M 104 52.160156 " clip-rule="nonzero"/></clipPath></defs><g clip-path="url(#0afdcf2bf0)"><path fill="#d52b1e" d="M 41.75 52.160156 C 18.753906 52.160156 0.105469 70.804688 0.105469 93.800781 L 0.105469 281.195312 C 0.105469 304.191406 18.753906 322.839844 41.75 322.839844 L 104.214844 322.839844 L 104.214844 52.160156 Z M 333.25 52.160156 L 270.785156 52.160156 L 270.785156 322.839844 L 333.25 322.839844 C 356.246094 322.839844 374.894531 304.191406 374.894531 281.195312 L 374.894531 93.800781 C 374.894531 70.804688 356.246094 52.160156 333.25 52.160156 Z M 333.25 52.160156 " fill-opacity="1" fill-rule="nonzero"/></g><g clip-path="url(#6e70780376)"><path fill="#ffffff" d="M 104.214844 52.160156 L 270.785156 52.160156 L 270.785156 322.839844 L 104.214844 322.839844 Z M 104.214844 52.160156 " fill-opacity="1" fill-rule="nonzero"/></g><path fill="#d52b1e" d="M 193.902344 230.320312 C 206.375 231.765625 217.554688 233.066406 230.015625 234.492188 L 226.84375 224.0625 C 226.332031 222.230469 227.0625 220.230469 228.496094 219.105469 L 264.714844 189.601562 L 257.222656 186.074219 C 253.921875 184.894531 254.828125 183.03125 256.023438 178.554688 L 261.550781 158.402344 L 240.511719 162.847656 C 238.460938 163.160156 237.097656 161.855469 236.785156 160.609375 L 234.066406 151.125 L 217.429688 169.800781 C 215.066406 172.800781 210.277344 172.800781 211.765625 165.886719 L 218.878906 128.054688 L 209.332031 133 C 206.65625 134.496094 203.980469 134.746094 202.492188 132.070312 L 189.320312 107.441406 L 189.320312 108.054688 L 189.320312 107.441406 L 176.152344 132.070312 C 174.652344 134.746094 171.976562 134.496094 169.300781 133 L 159.765625 128.054688 L 166.875 165.886719 C 168.375 172.800781 163.574219 172.800781 161.210938 169.800781 L 144.578125 151.132812 L 141.871094 160.617188 C 141.558594 161.867188 140.183594 163.167969 138.132812 162.855469 L 117.09375 158.410156 L 122.621094 178.566406 C 123.796875 183.042969 124.710938 184.90625 121.414062 186.082031 L 113.917969 189.613281 L 150.136719 219.117188 C 151.574219 220.230469 152.300781 222.238281 151.78125 224.070312 L 148.605469 234.503906 L 184.730469 230.328125 C 185.835938 230.328125 186.5625 230.941406 186.550781 232.214844 L 184.324219 270.773438 L 194.277344 270.773438 L 192.058594 232.214844 C 192.082031 230.933594 192.800781 230.320312 193.902344 230.320312 Z M 193.902344 230.320312 " fill-opacity="1" fill-rule="nonzero"/></svg>