<svg xmlns="http://www.w3.org/2000/svg" xmlns:xlink="http://www.w3.org/1999/xlink" width="500" zoomAndPan="magnify" viewBox="0 0 375 374.999991" height="500" preserveAspectRatio="xMidYMid meet" version="1.0"><defs><clipPath id="ec915ad7cc"><path d="M 0 56.296875 L 375 56.296875 L 375 327.046875 L 0 327.046875 Z M 0 56.296875 " clip-rule="nonzero"/></clipPath></defs><g clip-path="url(#ec915ad7cc)"><path fill="#de2910" d="M 374.894531 285.394531 C 374.894531 308.398438 356.246094 327.046875 333.25 327.046875 L 41.75 327.046875 C 18.753906 327.046875 0.105469 308.398438 0.105469 285.394531 L 0.105469 97.949219 C 0.105469 74.949219 18.753906 56.296875 41.75 56.296875 L 333.25 56.296875 C 356.246094 56.296875 374.894531 74.949219 374.894531 97.949219 Z M 374.894531 285.394531 " fill-opacity="1" fill-rule="nonzero"/></g><path fill="#ffde02" d="M 116.039062 97.710938 L 123.703125 101.417969 L 129.835938 95.523438 L 128.679688 103.960938 L 136.175781 107.980469 L 127.804688 109.480469 L 126.304688 117.851562 L 122.285156 110.351562 L 113.855469 111.507812 L 119.746094 105.375 Z M 164.605469 128.335938 L 160.902344 135.992188 L 166.792969 142.136719 L 158.371094 140.96875 L 154.351562 148.476562 L 152.851562 140.09375 L 144.472656 138.59375 L 151.976562 134.574219 L 150.8125 126.152344 L 156.953125 132.042969 Z M 154.644531 167.691406 L 157.433594 175.730469 L 165.9375 175.90625 L 159.160156 181.039062 L 161.628906 189.195312 L 154.644531 184.332031 L 147.65625 189.195312 L 150.113281 181.039062 L 143.335938 175.90625 L 151.84375 175.730469 Z M 116.039062 201.847656 L 123.703125 205.554688 L 129.835938 199.660156 L 128.679688 208.09375 L 136.175781 212.113281 L 127.804688 213.613281 L 126.304688 221.984375 L 122.285156 214.488281 L 113.855469 215.644531 L 119.746094 209.511719 Z M 72.980469 118.265625 L 82.652344 146.082031 L 112.074219 146.6875 L 88.617188 164.472656 L 97.144531 192.652344 L 72.980469 175.832031 L 48.816406 192.652344 L 57.34375 164.472656 L 33.890625 146.6875 L 63.308594 146.082031 Z M 72.980469 118.265625 " fill-opacity="1" fill-rule="nonzero"/></svg>