<svg xmlns="http://www.w3.org/2000/svg" xmlns:xlink="http://www.w3.org/1999/xlink" width="500" zoomAndPan="magnify" viewBox="0 0 375 374.999991" height="500" preserveAspectRatio="xMidYMid meet" version="1.0"><defs><clipPath id="b305145ce9"><path d="M 0 52.160156 L 375 52.160156 L 375 322.910156 L 0 322.910156 Z M 0 52.160156 " clip-rule="nonzero"/></clipPath><clipPath id="f7e5d6930a"><path d="M 156 52.160156 L 375 52.160156 L 375 322.910156 L 156 322.910156 Z M 156 52.160156 " clip-rule="nonzero"/></clipPath></defs><g clip-path="url(#b305145ce9)"><path fill="#006600" d="M 374.894531 281.253906 C 374.894531 304.257812 356.246094 322.910156 333.25 322.910156 L 41.75 322.910156 C 18.753906 322.910156 0.105469 304.257812 0.105469 281.253906 L 0.105469 93.8125 C 0.105469 70.808594 18.753906 52.160156 41.75 52.160156 L 333.25 52.160156 C 356.246094 52.160156 374.894531 70.808594 374.894531 93.8125 Z M 374.894531 281.253906 " fill-opacity="1" fill-rule="nonzero"/></g><g clip-path="url(#f7e5d6930a)"><path fill="#d52b1e" d="M 333.25 52.160156 L 156.269531 52.160156 L 156.269531 322.910156 L 333.25 322.910156 C 356.246094 322.910156 374.894531 304.257812 374.894531 281.253906 L 374.894531 93.8125 C 374.894531 70.808594 356.246094 52.160156 333.25 52.160156 Z M 333.25 52.160156 " fill-opacity="1" fill-rule="nonzero"/></g><path fill="#ffcc4d" d="M 156.269531 104.226562 C 110.273438 104.226562 72.980469 141.527344 72.980469 187.535156 C 72.980469 233.539062 110.273438 270.839844 156.269531 270.839844 C 202.261719 270.839844 239.554688 233.539062 239.554688 187.535156 C 239.554688 141.527344 202.261719 104.226562 156.269531 104.226562 Z M 197.847656 166.0625 L 219.597656 151.554688 C 224.707031 160.542969 227.957031 170.707031 228.839844 181.558594 Z M 166.679688 250.015625 L 193.664062 250.015625 C 185.554688 254.878906 176.433594 258.199219 166.679688 259.59375 Z M 83.695312 181.558594 C 84.558594 170.914062 87.683594 160.917969 92.625 152.066406 L 109.304688 168.75 Z M 83.695312 193.5 L 122.703125 213.015625 L 127.355469 203.695312 L 95.03125 187.535156 L 117.0625 176.515625 L 131.761719 191.21875 L 139.121094 183.859375 L 126.878906 171.613281 L 127.355469 171.371094 L 122.703125 162.050781 L 119.121094 163.84375 L 108.972656 153.691406 L 124.183594 156.230469 L 125.890625 145.964844 L 99.714844 141.601562 C 111 127.71875 127.304688 118.140625 145.855469 115.484375 L 145.855469 239.601562 L 113.59375 239.601562 L 138.328125 223.105469 L 132.550781 214.441406 L 101.320312 235.269531 L 101.464844 235.488281 C 91.480469 224.0625 84.996094 209.539062 83.695312 193.5 Z M 145.855469 259.59375 C 136.101562 258.1875 126.980469 254.878906 118.871094 250.015625 L 145.855469 250.015625 Z M 211.308594 235.226562 L 180.773438 204.683594 L 173.414062 212.046875 L 178.316406 216.953125 L 174.207031 223.117188 L 198.941406 239.601562 L 166.679688 239.601562 L 166.679688 115.472656 C 180.429688 117.441406 192.957031 123.1875 203.105469 131.726562 L 175.445312 140.953125 L 178.734375 150.828125 L 209.964844 140.414062 L 208.894531 137.207031 C 210.632812 139.019531 212.257812 140.921875 213.796875 142.914062 L 184.605469 162.375 L 187.5 166.707031 L 185.167969 171.363281 L 217.503906 187.535156 L 185.179688 203.707031 L 189.832031 213.027344 L 228.839844 193.511719 C 227.550781 209.414062 221.167969 223.847656 211.308594 235.226562 Z M 211.308594 235.226562 " fill-opacity="1" fill-rule="nonzero"/><path fill="#d52b1e" d="M 114.625 135.464844 L 114.625 208.359375 C 114.625 231.363281 133.269531 250.015625 156.269531 250.015625 C 179.265625 250.015625 197.910156 231.363281 197.910156 208.359375 L 197.910156 135.464844 Z M 114.625 135.464844 " fill-opacity="1" fill-rule="nonzero"/><path fill="#ffffff" d="M 125.035156 145.878906 L 125.035156 208.359375 C 125.035156 225.605469 139.015625 239.601562 156.269531 239.601562 C 173.519531 239.601562 187.5 225.605469 187.5 208.359375 L 187.5 145.878906 Z M 125.035156 145.878906 " fill-opacity="1" fill-rule="nonzero"/><path fill="#829acd" d="M 135.445312 177.121094 L 177.089844 177.121094 L 177.089844 197.949219 L 135.445312 197.949219 Z M 135.445312 177.121094 " fill-opacity="1" fill-rule="nonzero"/><path fill="#829acd" d="M 145.855469 166.707031 L 166.679688 166.707031 L 166.679688 208.359375 L 145.855469 208.359375 Z M 145.855469 166.707031 " fill-opacity="1" fill-rule="nonzero"/><path fill="#003399" d="M 125.035156 177.121094 L 135.445312 177.121094 L 135.445312 197.949219 L 125.035156 197.949219 Z M 145.855469 177.121094 L 166.679688 177.121094 L 166.679688 197.949219 L 145.855469 197.949219 Z M 177.089844 177.121094 L 187.5 177.121094 L 187.5 197.949219 L 177.089844 197.949219 Z M 145.855469 208.359375 L 166.679688 208.359375 L 166.679688 229.1875 L 145.855469 229.1875 Z M 145.855469 145.878906 L 166.679688 145.878906 L 166.679688 166.707031 L 145.855469 166.707031 Z M 145.855469 145.878906 " fill-opacity="1" fill-rule="nonzero"/></svg>