<svg xmlns="http://www.w3.org/2000/svg" xmlns:xlink="http://www.w3.org/1999/xlink" width="500" zoomAndPan="magnify" viewBox="0 0 375 374.999991" height="500" preserveAspectRatio="xMidYMid meet" version="1.0"><defs><clipPath id="d84997064e"><path d="M 0 37.5 L 375 37.5 L 375 308.25 L 0 308.25 Z M 0 37.5 " clip-rule="nonzero"/></clipPath><clipPath id="2cfb8834f8"><path d="M 0 37.5 L 188 37.5 L 188 184 L 0 184 Z M 0 37.5 " clip-rule="nonzero"/></clipPath></defs><g clip-path="url(#d84997064e)"><path fill="#b22334" d="M 369.117188 58.328125 C 361.902344 45.925781 348.628906 37.5 333.25 37.5 L 187.5 37.5 L 187.5 58.328125 Z M 0.105469 245.769531 L 374.894531 245.769531 L 374.894531 266.597656 L 0.105469 266.597656 Z M 187.5 162.460938 L 374.894531 162.460938 L 374.894531 183.289062 L 187.5 183.289062 Z M 187.5 120.808594 L 374.894531 120.808594 L 374.894531 141.632812 L 187.5 141.632812 Z M 0.105469 204.117188 L 374.894531 204.117188 L 374.894531 224.941406 L 0.105469 224.941406 Z M 41.75 308.25 L 333.25 308.25 C 348.628906 308.25 361.902344 299.824219 369.117188 287.421875 L 5.882812 287.421875 C 13.097656 299.824219 26.371094 308.25 41.75 308.25 Z M 187.5 79.152344 L 374.894531 79.152344 L 374.894531 99.980469 L 187.5 99.980469 Z M 187.5 79.152344 " fill-opacity="1" fill-rule="nonzero"/></g><path fill="#eeeeee" d="M 0.8125 273.667969 C 0.992188 274.636719 1.1875 275.605469 1.429688 276.550781 C 1.699219 277.601562 2.03125 278.613281 2.386719 279.632812 C 3.3125 282.332031 4.4375 284.933594 5.851562 287.371094 L 5.882812 287.421875 L 369.117188 287.421875 L 369.136719 287.382812 C 370.542969 284.953125 371.667969 282.351562 372.59375 279.664062 C 372.945312 278.632812 373.289062 277.601562 373.5625 276.53125 C 373.800781 275.59375 374 274.636719 374.175781 273.667969 C 374.601562 271.375 374.894531 269.023438 374.894531 266.597656 L 0.105469 266.597656 C 0.105469 269.023438 0.398438 271.367188 0.8125 273.667969 Z M 0.105469 224.941406 L 374.894531 224.941406 L 374.894531 245.769531 L 0.105469 245.769531 Z M 0.105469 183.289062 L 0.105469 204.117188 L 374.894531 204.117188 L 374.894531 183.289062 Z M 187.5 141.632812 L 374.894531 141.632812 L 374.894531 162.460938 L 187.5 162.460938 Z M 187.5 99.980469 L 374.894531 99.980469 L 374.894531 120.808594 L 187.5 120.808594 Z M 0.105469 79.152344 C 0.105469 76.726562 0.417969 74.394531 0.8125 72.082031 C 0.398438 74.382812 0.105469 76.726562 0.105469 79.152344 Z M 5.882812 58.328125 L 5.851562 58.378906 Z M 1.4375 69.199219 C 1.699219 68.136719 2.0625 67.125 2.398438 66.105469 C 2.042969 67.125 1.710938 68.148438 1.4375 69.199219 Z M 187.5 79.152344 L 374.894531 79.152344 C 374.894531 76.726562 374.601562 74.375 374.175781 72.074219 C 374 71.113281 373.8125 70.15625 373.5625 69.21875 C 373.28125 68.148438 372.945312 67.105469 372.582031 66.074219 C 371.65625 63.386719 370.53125 60.792969 369.125 58.367188 C 369.136719 58.359375 369.125 58.335938 369.117188 58.328125 L 187.5 58.328125 Z M 187.5 79.152344 " fill-opacity="1" fill-rule="nonzero"/><g clip-path="url(#2cfb8834f8)"><path fill="#3c3b6e" d="M 187.5 37.5 L 41.75 37.5 C 18.753906 37.5 0.105469 56.152344 0.105469 79.152344 L 0.105469 183.289062 L 187.5 183.289062 Z M 187.5 37.5 " fill-opacity="1" fill-rule="nonzero"/></g><path fill="#ffffff" d="M 20.9375 65.886719 L 27.371094 70.5625 L 24.914062 78.113281 L 31.339844 73.445312 L 37.773438 78.113281 L 35.316406 70.5625 L 41.75 65.886719 L 33.796875 65.886719 L 31.339844 58.328125 L 28.890625 65.886719 Z M 41.761719 86.714844 L 48.195312 91.390625 L 45.738281 98.9375 L 52.160156 94.273438 L 58.59375 98.9375 L 56.136719 91.390625 L 62.570312 86.714844 L 54.617188 86.714844 L 52.160156 79.152344 L 49.714844 86.714844 Z M 83.402344 86.714844 L 89.835938 91.390625 L 87.378906 98.9375 L 93.804688 94.273438 L 100.238281 98.9375 L 97.78125 91.390625 L 104.214844 86.714844 L 96.261719 86.714844 L 93.804688 79.152344 L 91.355469 86.714844 Z M 125.046875 86.714844 L 131.480469 91.390625 L 129.023438 98.9375 L 135.445312 94.273438 L 141.878906 98.9375 L 139.421875 91.390625 L 145.855469 86.714844 L 137.902344 86.714844 L 135.445312 79.152344 L 133 86.714844 Z M 41.761719 128.367188 L 48.195312 133.042969 L 45.738281 140.59375 L 52.160156 135.929688 L 58.59375 140.59375 L 56.136719 133.042969 L 62.570312 128.367188 L 54.617188 128.367188 L 52.160156 120.808594 L 49.714844 128.367188 Z M 83.402344 128.367188 L 89.835938 133.042969 L 87.378906 140.59375 L 93.804688 135.929688 L 100.238281 140.59375 L 97.78125 133.042969 L 104.214844 128.367188 L 96.261719 128.367188 L 93.804688 120.808594 L 91.355469 128.367188 Z M 125.046875 128.367188 L 131.480469 133.042969 L 129.023438 140.59375 L 135.445312 135.929688 L 141.878906 140.59375 L 139.421875 133.042969 L 145.855469 128.367188 L 137.902344 128.367188 L 135.445312 120.808594 L 133 128.367188 Z M 62.582031 65.886719 L 69.015625 70.5625 L 66.558594 78.113281 L 72.980469 73.445312 L 79.414062 78.113281 L 76.957031 70.5625 L 83.390625 65.886719 L 75.4375 65.886719 L 72.980469 58.328125 L 70.535156 65.886719 Z M 104.222656 65.886719 L 110.65625 70.5625 L 108.203125 78.113281 L 114.625 73.449219 L 121.058594 78.113281 L 118.601562 70.5625 L 125.035156 65.886719 L 117.082031 65.886719 L 114.625 58.328125 L 112.179688 65.886719 Z M 145.867188 65.886719 L 152.300781 70.5625 L 149.84375 78.113281 L 156.269531 73.449219 L 162.703125 78.113281 L 160.246094 70.5625 L 166.679688 65.886719 L 158.726562 65.886719 L 156.269531 58.328125 L 153.820312 65.886719 Z M 20.9375 107.539062 L 27.371094 112.214844 L 24.914062 119.765625 L 31.339844 115.101562 L 37.773438 119.765625 L 35.316406 112.214844 L 41.75 107.539062 L 33.796875 107.539062 L 31.339844 99.980469 L 28.890625 107.539062 Z M 66.558594 119.765625 L 72.980469 115.101562 L 79.414062 119.765625 L 76.957031 112.214844 L 83.390625 107.539062 L 75.4375 107.539062 L 72.980469 99.980469 L 70.535156 107.539062 L 62.582031 107.539062 L 69.015625 112.214844 Z M 104.222656 107.539062 L 110.65625 112.214844 L 108.203125 119.765625 L 114.625 115.101562 L 121.058594 119.765625 L 118.601562 112.214844 L 125.035156 107.539062 L 117.082031 107.539062 L 114.625 99.980469 L 112.179688 107.539062 Z M 145.867188 107.539062 L 152.300781 112.214844 L 149.84375 119.765625 L 156.269531 115.101562 L 162.703125 119.765625 L 160.246094 112.214844 L 166.679688 107.539062 L 158.726562 107.539062 L 156.269531 99.980469 L 153.820312 107.539062 Z M 20.9375 149.195312 L 27.371094 153.871094 L 24.914062 161.421875 L 31.339844 156.753906 L 37.773438 161.421875 L 35.316406 153.871094 L 41.75 149.195312 L 33.796875 149.195312 L 31.339844 141.632812 L 28.890625 149.195312 Z M 66.558594 161.421875 L 72.980469 156.753906 L 79.414062 161.421875 L 76.957031 153.871094 L 83.390625 149.195312 L 75.4375 149.195312 L 72.980469 141.632812 L 70.535156 149.195312 L 62.582031 149.195312 L 69.015625 153.871094 Z M 104.222656 149.195312 L 110.65625 153.871094 L 108.203125 161.421875 L 114.625 156.753906 L 121.058594 161.421875 L 118.601562 153.871094 L 125.035156 149.195312 L 117.082031 149.195312 L 114.625 141.632812 L 112.179688 149.195312 Z M 145.867188 149.195312 L 152.300781 153.871094 L 149.84375 161.421875 L 156.269531 156.753906 L 162.703125 161.421875 L 160.246094 153.871094 L 166.679688 149.195312 L 158.726562 149.195312 L 156.269531 141.632812 L 153.820312 149.195312 Z M 145.867188 149.195312 " fill-opacity="1" fill-rule="nonzero"/></svg>